/* XPM */
static char *_0413_0e6fa0b09a9fc60385277c1b8537276b9e6d74d86192485a2f8a305018313e76[] = {
/* columns rows colors chars-per-pixel */
"64 64 213 2 ",
"   c #030607",
".  c #06090A",
"X  c #0A0C0E",
"o  c #160D0E",
"O  c #0D0F11",
"+  c #0E1213",
"@  c #0F1719",
"#  c #121315",
"$  c #191416",
"%  c #141718",
"&  c #1B1618",
"*  c #16191B",
"=  c #1B1C1E",
"-  c #281719",
";  c #221D1D",
":  c #2D1819",
">  c #321819",
",  c #3E1A1A",
"<  c #2B211F",
"1  c #1C1F20",
"2  c #221F20",
"3  c #1D2122",
"4  c #222425",
"5  c #2A2524",
"6  c #282827",
"7  c #2C2826",
"8  c #242628",
"9  c #262929",
"0  c #2B2B2B",
"q  c #322623",
"w  c #312825",
"e  c #3C2C27",
"r  c #332D2C",
"t  c #3B2E2A",
"y  c #33302E",
"u  c #3B312E",
"i  c #2F2F32",
"p  c #2E3233",
"a  c #343332",
"s  c #3C3432",
"d  c #3D3835",
"f  c #333739",
"g  c #363A3D",
"h  c #3B3B3B",
"j  c #421B1A",
"k  c #4D1C1B",
"l  c #561E1D",
"z  c #611F1E",
"x  c #67201F",
"c  c #442D27",
"v  c #442F2C",
"b  c #43312C",
"n  c #4B342C",
"m  c #53382F",
"M  c #423634",
"N  c #4A3633",
"B  c #443936",
"V  c #4B3A36",
"C  c #403538",
"Z  c #453C3A",
"A  c #4C3D39",
"S  c #523532",
"D  c #543B35",
"F  c #5B3D36",
"G  c #543E39",
"H  c #5A3E39",
"J  c #742321",
"K  c #633D35",
"L  c #693F37",
"P  c #613F3B",
"I  c #46403E",
"U  c #4E433D",
"Y  c #5D4137",
"T  c #54423C",
"R  c #5C423B",
"E  c #654136",
"W  c #6B4136",
"Q  c #63433A",
"!  c #6B443A",
"~  c #6C493E",
"^  c #744436",
"/  c #7D4535",
"(  c #744538",
")  c #79463A",
"_  c #744A3C",
"`  c #7C4B3C",
"'  c #7F513F",
"]  c #3A3E42",
"[  c #3E4143",
"{  c #424344",
"}  c #464748",
"|  c #4B4C4D",
" . c #574944",
".. c #5C4C46",
"X. c #4A4E50",
"o. c #4E5254",
"O. c #525556",
"+. c #535658",
"@. c #565A5C",
"#. c #5D5C5D",
"$. c #634741",
"%. c #634A41",
"&. c #6B4D44",
"*. c #784C44",
"=. c #66524A",
"-. c #6C544D",
";. c #7B5343",
":. c #77564B",
">. c #6B5A53",
",. c #725956",
"<. c #60605F",
"1. c #796258",
"2. c #5E6164",
"3. c #636465",
"4. c #66696C",
"5. c #656A6C",
"6. c #796561",
"7. c #736D70",
"8. c #6D7173",
"9. c #727475",
"0. c #757879",
"q. c #812322",
"w. c #8A2623",
"e. c #982824",
"r. c #A32A25",
"t. c #B42E26",
"y. c #CF3329",
"u. c #824937",
"i. c #884639",
"p. c #844C3B",
"a. c #894E3B",
"s. c #85503E",
"d. c #8C513D",
"f. c #93533C",
"g. c #9C573F",
"h. c #845344",
"j. c #8C5543",
"k. c #8A5747",
"l. c #84554B",
"z. c #855A4D",
"x. c #8D5B4B",
"c. c #935542",
"v. c #955646",
"b. c #955A45",
"n. c #9B5C45",
"m. c #945C4B",
"M. c #9B5E4D",
"N. c #855E54",
"B. c #8C5D53",
"V. c #945F51",
"C. c #9A5F50",
"Z. c #A15D45",
"A. c #A05F4D",
"S. c #9D624E",
"D. c #86645C",
"F. c #936252",
"G. c #9B6353",
"H. c #906956",
"J. c #986659",
"K. c #956B5C",
"L. c #9D6A5B",
"P. c #A1634D",
"I. c #A36452",
"U. c #A96755",
"Y. c #AB6A55",
"T. c #A46958",
"R. c #AB6C5B",
"E. c #B26E5B",
"W. c #AE7159",
"Q. c #B5745D",
"!. c #976C64",
"~. c #85796D",
"^. c #987669",
"/. c #8F7972",
"(. c #9B7B76",
"). c #A56C62",
"_. c #AD6D60",
"`. c #AD7363",
"'. c #A47469",
"]. c #B47462",
"[. c #B87865",
"{. c #B37A6D",
"}. c #BC7D6B",
"|. c #AA7B71",
" X c #C07E73",
".X c #9F8174",
"XX c #B9826A",
"oX c #A58873",
"OX c #B98679",
"+X c #C28971",
"@X c #7A7D80",
"#X c #B47A81",
"$X c #838383",
"%X c #858889",
"&X c #8B8C8C",
"*X c #948685",
"=X c #939495",
"-X c #999B9C",
";X c #AB8C83",
":X c #BD8A84",
">X c #B99687",
",X c #A19D9A",
"<X c #A7A9A9",
"1X c #B3ACA7",
"2X c #B6B8B8",
"3X c #C88D84",
"4X c #C3ADA7",
"5X c #C7C7C7",
"6X c #CFD0D1",
"7X c #D5D6D6",
"8X c #E6E2DC",
"9X c #E9EBEB",
"0X c #F3F3F3",
/* pixels */
"= # # # # # # # # # # # # # # # # # # # # # # # # # # # # # # # # # # # # # # # # # # # # # # # # # # # # # # # # # # # # # # # ",
"1 # # # # # # # # # % # # # # # # # # # # # # # # # # # # # # # # # # # # # # # # # # # # # # # # # # # # + # # # # # # # # # # ",
"= # # # # # # # # # & # # % # % # # # # # # # # # # # # # # # # # # # % # # # # # # + + # # # # # % # # # # # % # # # # % # # # ",
"= # # # # # # # # # % # # # # # # # # # # # O # # # # # % # # # # # # # # # # # # # X + 3 3 X # # X X # # # + # # + O + # # % # ",
"= # # # # # # $ # % # % # # # % % # # % 4 0 a a 7 * @ % # # # # # # # # % # # # + O 9.7X9X0X5.% h 0.2.= # 9 p + # f 9.g # # # # ",
"= # # # # # # # # # # # # # # # % % t U A V V A V y 3 * % % # % # # % # # # # # + o.+.  X 5.0Xp a -Xf 6X+ &X%X+ { <X4 O.% # # # ",
"= # # $ # # # # # # # % # # # # # n ! Q G V V V d y 8 * # + # # # # # % # # # # # 9 # # # + 7XO.a 2XO.-X# %X&X1 <X3.. X # # # # ",
"= # # # # # # # # # # # # # # + b ` ! Q H G V B M y 9 = % % # # # % # # # # # # # # # + #   6Xa f <X0 % O.=X5Xf =X8.  # # # # # ",
"= # # # # # # # # # # # # + # 5 _ h._ Q R G M M B a 9 3 % # # # # # # # # # # # # # # # O [ -X% X.<XX + <X  3.-X2 <X5.0.* # # # ",
"= # # % # % # # # # # # # # # F F.z.*._ Q B s d M y 9 3 = % % % # # # # # # # # # # # # = $Xf + * % % * = % * 2 + + 0 % # % # # ",
"= # # # # # # # # # # # # # ; ;.J.!.z.l.Q B d M M a 9 3 3 % 7 * % # # # # # # # # # # X 3.X.O # # + % % + @ # + # # + # # # # # ",
"= # # # # # # % @ # # # # # < ;.L.(.!.z.~ V s s s y 8 3 = = 0 = & # # # # # # # # % . 3.[ # # + % # + # % # # # # # # # # # # # ",
"= # # # # # # # # # # # # % q k.J.(.!.D.&.T A M a 0 8 3 = * % 4 5 + # # # # # % # . @.p . X . 0 ] O # # # # # # # # # # # # # # ",
"= # # # # # # # % # # # # # q k.F.K.'.J.z.k.R 0 0 4 4 9 3 % 8 9 7 + # # # # # # # O.7X<X2X2X5X5X. + # # # # + % # # # # # # # # ",
"= # # # # + # # % Q $ # # # < _ m.G.L.).T.Z 3 0 y 9 0 y 0 = * 8 9 # # # # # % % & } O.@.2.@.2.* # # # # # # % # # + # # % # # # ",
"= # # # # # # # w ).= + # # & F j.T.'.`.%.9 M R 5 4 D V r 1 % * * % % # # % t M n e 4 # X X X # # # # # + # # + # # # # # # # # ",
"= # # # # # # O S L & # # # # t v._.T.h.L r A R t r ` F u 1 % % % # + % % % F ! ^ W Y V 0 2 # + # # # # # # @ # % # # # # # # # ",
"= # # # # # # O h.S % # # # # 2 H s u K ) s H &.M ;.j.D s 1 1 % # % # % % % E a.u.u.^ W Y s 9 * # + # # # # # # # # # # # # # # ",
"2 # # # O # # O M.F % # # # G B.2 1 r u k.c.( k.I.G.p.V i 4 4 1 % % % % % @ ` f.f.s.u.u.W A s 8 % # # + + # # + # # # # % # # # ",
"= # # # # # # 2 h.S # # O R }.l.& 8 N B j. XL ( m.C._ M i 8 5 3 % # % * * @ ' S.S.n.Z.f./ E M 7 = % # # # # # # # # # # + @ # # ",
"1 # # # # # O v i.S # # ;._.!.e 2 M r H f.}.c.K S j._ M 0 9 0 3 % # # % @ @ E S.n.U.Y.n.u.T y 9 = * % # # # % # # # # # # + # # ",
"1 # # # # # O $.i.K # F I.L.D * Y P.G ( v.U. XL 9 E ` V 9 8 9 3 % # % * 3 3 n m.S.{.{.L...d y 0 1 * # % # # # # # # % # # % % # ",
"= # # # # # + l.n.I.l.x.].m.= b S.Q.F.H c.Z._.c 8 s d 9 3 3 3 3 # # y = 9 3 D n.R.:XOX1...Z a 9 1 % # % # % # # # # # # # # + # ",
"= # # # # + q G.]. XE.U.M.n * ' Q.+X}.:.L i.L 6 s u 0 r 3 = 3 % # 9 3 = f 9 K M.|.:X;X6.:.T a 9 3 * % % % # # % # # # # # # # # ",
"= # # # # + c R.].E.E.M.N % w T.XX+X+X`.>.G Q G T u *.i 3 3 = # < 4 # * a 0 D T.{.:X.X~.B.R B 0 3 = * % # # # # # $ # # # # # % ",
"1 # # # # + n P.T.v.>X/.w = D W.Q.3XR.z.7.#.i s ,.#XP 1 8 9 % # < % @ 3 p f n S.`.OX#X~.-.$.G 0 3 = * % % % # # # + # # # # # + ",
"= # # # # # F A.c.c.z.r w F j.[.T.( K n 3 % % 5 P H 1 1 0 = # = % @ % 1 9 f y g.Y.[.^.^.>.$.T a 0 3 % % # @ % + # # # # $ # # # ",
"1 O # # # % W P.a.p.F N n.I.;.~ K ^ E 5 = = + % 1 r 0 1 1 ; = & + + # * 3 8 3 ` P.T.Q.'.:.&.R a 7 3 = % % # % % # % % + + # + # ",
"; # # # # & _ I.c.u.H H ! D s.d.p.H r * 1 4 % + + A T d M 5 % # # % % 3 3 * 7 < d.n.P.S.F.~ I y s 0 3 @ % # @ @ # # # # % # # # ",
"1 O # # # t S.S.h.p.P t = _ Y.S.( s * # + # % h ,X/.0 i 0 4 = # # # + % * % y # e u.f.g.b.E U Y y 9 3 3 * % # # # # # # # + # # ",
"1 # # # # ;.Y.n.c.` F 8 b x.Y.S.( s 1 % # # + Z 1X5X,XO # # # # # # # # + # % 6 d t ^ a.d.d._ U s < < 9 1 % # # + # # # # # # # ",
"= O # o 5 OXS.S.a.L M e j.G.Y.f.W M 8 % # # + } 8X1X*X2 5 5 2 & $ $ % * * % # + 4 4 t W p.s.Y I M I s 0 < = # # # # # # # # # # ",
"; + % + e XX^.S.p.u 3 ` F.L.x.a.F a 3 % # # & 0.0X/.v D B H G B u u u b b v n c : 1 * b a.c.R Q W Y s u 9 = % # % # # # # # # # ",
"; + # + ; XX.X_ m 0 t S.R.H.~ R V i 1 # # 2 [ !.'.z.D w 1 2 5 5 y s N B D G L L K 5 # * h.k.;.h.~ ' Q D u 4 * # + + # + # # + # ",
"= + # # * x.H.T y * b I.S.' Y V a 4 1 % # # m.I.U.R.R.U.P 4 3 4 4 1 # * = 1 5 7 w = # # ! z.:.M.m.S.j.Q M 0 = % # # # % # + # # ",
"= + + + 3 ' / m y = w ' W V s y 5 1 & # # 2 c.C.C.C.C.l.N % # + # 1 4 4 4 4 4 2 4 % % % E l.N.J.D.-.%.Q V u = % # # + + # % + + ",
"= + % + n f.u.u.F 4 * u y 9 9 8 3 * # # # = ` Q.}.`._.l.4 % # + # O # # + # # O # * 4 8 S F.K.6.1.>. .B d 0 3 * # # # # # # # # ",
"= + + + _ f.a.u.F 3 # % % = = 3 = @ # # # # l.U.R.R.C.P 3 % # # # # # # # # # # # # # # n F.D.1.1.>. .h A 0 3 = # # # # # # + # ",
"= # # # ' f.d.p.F 3 # # + # % * % # # # # # !.;XV.E.I.r 1 % # # # # # # # # # # # # # # q m.,.1.1.>. .C B u 0 % # # # # # # # # ",
"= # # # / f.u.p.F = # # # # % % # # # # O e 4X;XC.C.F 8 1 * # # # # # O # # # # # # # = ; ~ =.-.N.=.Z d d V r % # # + # # # # # ",
"= # # + ^ a./ a.N 3 # # + # % % # # # # # ; e  .U.v.0 0 2 1 * * & % # # + + + @ + # + # $ K ~ ......T d d N u * # # # # # # # # ",
"= + + + Y ^ ` u.V 0 % % # % # % # # # # # # # # F p.i 0 1 1 1 9 0 u t 4 < < + @ + + # # # c ~ U %.=.&.U U d M 3 % # # # # # # # ",
"= + # + 7 E ` / M 0 = % # + # # # # # # # # # # # ( K r 4 8 i u M N D G 1..Xt 1 + + # # # & S H ..&.-.T N s s 4 % + # # # # # # ",
"= # # % + Y ^ ^ M 0 * # # # # # # # # # # # # # # 2 p.N 9 s F ) P V D H H..Xd A d < < ; = = 7 V B A U U s y y 9 % + # # # # # + ",
"; # # # + n ^ Y M 9 % # # # # # # # # # O # # + # O 2 6 5 F ` c.! F M ! oX1.Y Y U Y R W Q R E H T A Z U s 9 0 3 * # # # # # + # ",
"= + # # # w ! U M 1 # # # # # # # # # # # # + # # # # # 1 2 e N D D s T .X1.R _ T T T ! _ ~ ~ *.Q A A G d y y 9 % # + % # # # # ",
"= + # # # * T U 0 # # # # + # # # # # # # # # # # # # # # # # & r N N =.oX=.^ ` / ' ` _ Q  .&.$.U D V V V s p 4 % # # # # # # # ",
"; + # # % @ 7 b 8 = # # # # # # # # # # # # # # # + # # # # # # # = N N.~.B D W ^ / s.d.p.Q V V H M B d a y 9 1 * # # # # # # # ",
"= + # # % % * @ + + @ # # # # # # # # # # # # # # # # # # # # # # O 5 >...r N A H L ( ) ) L K H y s M r y 0 4 4 4 % # # + # # # ",
"= # # # * * * = 3 3 + + + # # # # # # # # # # # # # # O # # # # # # & 1 * 1 u N A D D D F F H D S B u 4 0 y 0 s 0 % # # # # # # ",
"= # # = % 1 o.+.g g g * # + # # # # # # # # # # # + # # # # # # # # # # # # # 1 r B A N N s s M M s s 8 4 s s B 2 # # # # # # # ",
"= # # * * @.o.f 9.@.9 [ % % # # # # % : & # # % # # # # # # # # # # O # # # # # # & 4 t C M s r i s s 0 0 M M i % + # # # # # + ",
"= # # * 9 4.4 3 O @X. f g + # # % $ j y.J & $ $ $ % $ $ # $ $ $ # $ $ $ $ # # # # # # O % 2 0 i r r 0 a i r 5 * # + # + # # # O ",
"= # # # g <.X O & { o r ] + % + j r.r.t.x z r.q.w.w.q.z z e.w.q.l w.r.e.w., # # # # # # # # + # # * = 1 = * # # # # # # # # # # ",
"= + # + g 5.X + X.X.i f } + + + - k k j > > l z k , j : > j j j : , j k j - # # # # # # # # # # # + # # # # # # # # # # # # # # ",
"= # # # 9 8.1 3 X.s : o.[ # # # # # # # # # # $ + + # # # # # O # # + + # # # # # # # # # # # # % # + O O O # O O # # # # # # # ",
"= + # # @ +.2.1 # 2 | 5.% # # # # # # # # # # # # # # # # # # # # # + # # # # # # # # # # # # % # # p { { { { { { g O # # O # # ",
"= o # # @ 1 o.@X2.4.5.2 + # + # # + # # # # + # # # % # # # # # # # # # # # # # # # # # # # # O # O { 2.#.4.<.@.| } O # # # # # ",
"1 + # # + + # 2 1 9 # # # # # # # # # # # # # # # # # # # # # # # # # # # # # # # # O # # # # # # . ~.=X&X$X@X$X&X,XX # # # # # ",
"= + # # # # # + # O # # # # # # # # # # # # + # # # # # # % # # # # # # # # # + # # # # O # # # # O | 7.$X9.@X@X$X#.X # # # # # ",
"= # # # # # # # # + # # # # # # + # + # # + # # # # O # # # # # # # # # # # # # # # # # # # # # # # { >.#.#.<.>.#.} O # # # # # ",
"= # # o # # # # # # # # # % $ # # # % # # # # # # # # # % # # # # # # # # # # # # # # # # + # # # # + + O O O O O O # # # # # # ",
"1 + # # # # # # # # # # # # # # # # # # # # # # + # # % % # # o # # O # # # # # # # # # # # # # # # # # # # # # # # # # # # O # ",
"= # # # # # # # # # # # # % # # # # + # # # # # # # # % % % # # # # # # # # # # # # O # # + + # # # # # # O # # # # # # # # # o "
};
