/* XPM */
static char *_4478_22aa54fc64dea8b64972fb8408b3d68546b11ed787aa8f74d66b4a0730da0934[] = {
/* columns rows colors chars-per-pixel */
"64 64 256 2 ",
"   c black",
".  c #010101",
"X  c #020202",
"o  c gray1",
"O  c #040404",
"+  c gray2",
"@  c #060606",
"#  c #070707",
"$  c gray3",
"%  c #090909",
"&  c gray4",
"*  c #0B0B0B",
"=  c #0C0C0C",
"-  c gray5",
";  c #0E0E0E",
":  c gray6",
">  c #101010",
",  c #111111",
"<  c gray7",
"1  c #131313",
"2  c gray8",
"3  c #151515",
"4  c #161616",
"5  c gray9",
"6  c #181818",
"7  c #191919",
"8  c gray10",
"9  c #1B1B1B",
"0  c gray11",
"q  c #1D1D1D",
"w  c #1E1E1E",
"e  c gray12",
"r  c #202020",
"t  c gray13",
"y  c #222222",
"u  c #232323",
"i  c gray14",
"p  c #252525",
"a  c gray15",
"s  c #272727",
"d  c #282828",
"f  c gray16",
"g  c #2A2A2A",
"h  c gray17",
"j  c #2C2C2C",
"k  c #2D2D2D",
"l  c gray18",
"z  c #2F2F2F",
"x  c gray19",
"c  c #313131",
"v  c #323232",
"b  c gray20",
"n  c #343434",
"m  c #353535",
"M  c gray21",
"N  c #373737",
"B  c gray22",
"V  c #393939",
"C  c #3A3A3A",
"Z  c gray23",
"A  c #3C3C3C",
"S  c gray24",
"D  c #3E3E3E",
"F  c #3F3F3F",
"G  c gray25",
"H  c #414141",
"J  c gray26",
"K  c #434343",
"L  c #444444",
"P  c gray27",
"I  c #464646",
"U  c gray28",
"Y  c #484848",
"T  c #494949",
"R  c gray29",
"E  c #4B4B4B",
"W  c #4C4C4C",
"Q  c gray30",
"!  c #4E4E4E",
"~  c gray31",
"^  c #505050",
"/  c #515151",
"(  c gray32",
")  c #535353",
"_  c gray33",
"`  c #555555",
"'  c #565656",
"]  c gray34",
"[  c #585858",
"{  c gray35",
"}  c #5A5A5A",
"|  c #5B5B5B",
" . c gray36",
".. c #5D5D5D",
"X. c gray37",
"o. c #5F5F5F",
"O. c #606060",
"+. c gray38",
"@. c #626262",
"#. c gray39",
"$. c #646464",
"%. c #656565",
"&. c gray40",
"*. c #676767",
"=. c #686868",
"-. c DimGray",
";. c #6A6A6A",
":. c gray42",
">. c #6C6C6C",
",. c #6D6D6D",
"<. c gray43",
"1. c #6F6F6F",
"2. c gray44",
"3. c #717171",
"4. c #727272",
"5. c gray45",
"6. c #747474",
"7. c gray46",
"8. c #767676",
"9. c #777777",
"0. c gray47",
"q. c #797979",
"w. c gray48",
"e. c #7B7B7B",
"r. c #7C7C7C",
"t. c gray49",
"y. c #7E7E7E",
"u. c gray50",
"i. c #808080",
"p. c #818181",
"a. c gray51",
"s. c #838383",
"d. c #848484",
"f. c gray52",
"g. c #868686",
"h. c gray53",
"j. c #888888",
"k. c #898989",
"l. c gray54",
"z. c #8B8B8B",
"x. c gray55",
"c. c #8D8D8D",
"v. c #8E8E8E",
"b. c gray56",
"n. c #909090",
"m. c gray57",
"M. c #929292",
"N. c #939393",
"B. c gray58",
"V. c #959595",
"C. c gray59",
"Z. c #979797",
"A. c #989898",
"S. c gray60",
"D. c #9A9A9A",
"F. c #9B9B9B",
"G. c gray61",
"H. c #9D9D9D",
"J. c gray62",
"K. c #9F9F9F",
"L. c #A0A0A0",
"P. c gray63",
"I. c #A2A2A2",
"U. c gray64",
"Y. c #A4A4A4",
"T. c #A5A5A5",
"R. c gray65",
"E. c #A7A7A7",
"W. c gray66",
"Q. c #A9A9A9",
"!. c #AAAAAA",
"~. c gray67",
"^. c #ACACAC",
"/. c gray68",
"(. c #AEAEAE",
"). c #AFAFAF",
"_. c gray69",
"`. c #B1B1B1",
"'. c #B2B2B2",
"]. c gray70",
"[. c #B4B4B4",
"{. c gray71",
"}. c #B6B6B6",
"|. c #B7B7B7",
" X c gray72",
".X c #B9B9B9",
"XX c gray73",
"oX c #BBBBBB",
"OX c #BCBCBC",
"+X c gray74",
"@X c gray",
"#X c gray75",
"$X c #C0C0C0",
"%X c #C1C1C1",
"&X c gray76",
"*X c #C3C3C3",
"=X c gray77",
"-X c #C5C5C5",
";X c #C6C6C6",
":X c gray78",
">X c #C8C8C8",
",X c gray79",
"<X c #CACACA",
"1X c #CBCBCB",
"2X c gray80",
"3X c #CDCDCD",
"4X c #CECECE",
"5X c gray81",
"6X c #D0D0D0",
"7X c gray82",
"8X c #D2D2D2",
"9X c LightGray",
"0X c gray83",
"qX c #D5D5D5",
"wX c gray84",
"eX c #D7D7D7",
"rX c #D8D8D8",
"tX c gray85",
"yX c #DADADA",
"uX c gray86",
"iX c gainsboro",
"pX c #DDDDDD",
"aX c gray87",
"sX c #DFDFDF",
"dX c gray88",
"fX c #E1E1E1",
"gX c #E2E2E2",
"hX c gray89",
"jX c #E4E4E4",
"kX c gray90",
"lX c #E6E6E6",
"zX c #E7E7E7",
"xX c gray91",
"cX c #E9E9E9",
"vX c #EAEAEA",
"bX c gray92",
"nX c #ECECEC",
"mX c gray93",
"MX c #EEEEEE",
"NX c #EFEFEF",
"BX c gray94",
"VX c #F1F1F1",
"CX c gray95",
"ZX c #F3F3F3",
"AX c #F4F4F4",
"SX c gray96",
"DX c #F6F6F6",
"FX c gray97",
"GX c #F8F8F8",
"HX c #F9F9F9",
"JX c gray98",
"KX c #FBFBFB",
"LX c gray99",
"PX c #FDFDFD",
"IX c #FEFEFE",
"UX c white",
/* pixels */
"UXUXUXUXUXUXUXUXUXUXUXUXUXUXUXUXUXUXUXUXUXUXUXNX5X'.z.@.C n f w J r c U ..m._.6XBXUXUXUXUXUXUXUXUXUXUXUXUXUXUXUXUXUXUXUXUXUXUXUX",
"UXUXUXUXUXUXUXUXUXUXUXUXUXUXUXUXUXUXUXUXUX XD 6 O.U.{ a.9 Z a & J > H y Y @X&.$.q H OXUXUXUXUXUXUXUXUXUXUXUXUXUXUXUXUXUXUXUXUXUX",
"UXUXUXUXUXUXUXUXUXUXUXUXUXUXUXUXUXUXwXu.K k M./ < e           l 8             ^ / *.D B g.uXUXUXUXUXUXUXUXUXUXUXUXUXUXUXUXUXUXUX",
"UXUXUXUXUXUXUXUXUXUXUXUXUXUXUXUXNXE a 0.6.  X . j .           C.w.          # a   o O T &X, ' DXUXUXUXUXUXUXUXUXUXUXUXUXUXUXUXUX",
"UXUXUXUXUXUXUXUXUXUXUXUXUXUXPX2.Q I ,.          +Xi     X c =XDXCX Xd X     F R.        $ n K.V q.UXUXUXUXUXUXUXUXUXUXUXUXUXUXUX",
"UXUXUXUXUXUXUXUXUXUXUXUXUX9X5 X.6.@   .   o 9.oXFXwX`.f     9 FXVX2   . m ].aXZX.X:..     .   F w.r fXUXUXUXUXUXUXUXUXUXUXUXUXUX",
"UXUXUXUXUXUXUXUXUXUXUXUX4.C G.>   5.      . X 4.UXjXp       *.&.4.Q       l NXUXo.          1.  x Q H f.UXUXUXUXUXUXUXUXUXUXUXUX",
"UXUXUXUXUXUXUXUXUXUXDXo.:.B   , 9 VXq < O .   j.b.<X<       3     4   .   w :XA.<.    + < z nX2 >   z.l &.PXUXUXUXUXUXUXUXUXUXUX",
"UXUXUXUXUXUXUXUXUXCX0 [ z X o *.ZXIXVXt.o     f   ; 5 : X :.  O.~   1.X > 0 &   f   . O m.CXLXBX' o   5 c.N UXUXUXUXUXUXUXUXUXUX",
"UXUXUXUXUXUXUXUXCXC !.q         b.HX@X    .   . X.+ G z.o `.  t.*.  |.. L.w < `           5XJX5.        c { &.UXUXUXUXUXUXUXUXUX",
"UXUXUXUXUXUXUXSXd O.& X         @X6 L.+   & 2.  1Xe r A.X '.  t.*.  '.. U.* B `.  w.@   * S.0 '.        . < N.B PXUXUXUXUXUXUXUX",
"UXUXUXUXUXUXUX .0.F           $ $ . X 5 Z $ '.  !.D ; I.X ].  t.&.  '.. E.o  .l.  oX# H <     = O           7 | >.UXUXUXUXUXUXUX",
"UXUXUXUXUXUXe.U 1 . X O . . . . . o + 3 V.O #X  s.%.O E.. [.  t.&.X `.  !.  i.+.  %X  J.% # X . .     . . o   / A g.UXUXUXUXUXUX",
"UXUXUXUXUX,XJ >..   O b.b.' +     ] 6.  R.  $X= } g.  ~.. '.  r.&.$ `.  !.  L.C y '.  !.  l.V         l =.|.K   G U hXUXUXUXUXUX",
"UXUXUXUXLX7 T     $     G.b.Q.l < w W.  ^.  U.M c E.  !.  '.. r.&.> (.  E.  .X4 [ h.  /.  [.* s o a _ H.{.v       Y.w UXUXUXUXUX",
"UXUXUXUX-.6.e   # tX{     p.l.L.W.{ a   ~.O 6.3.> oX  E.  `.+ r.&.e E.  E.  %X  v.[ 6 K.X ].  2 Z.C._.p.L   T o . = { u.UXUXUXUX",
"UXUXUXNXK c   X }.UXE.  O 6X!.L.a.N...  k.C P U.  %X  W.  _.= r.%.h K.. P.X #X  @Xf [ 8.@ d.- S.2.W.h.lX;.G UXK..   W.D JXUXUXUX",
"UXUXUXP 5.#   V LXtX% .   y !.;X,Xa.3X5.e ` 7 2X  oXX U.. ~.5 e.%.B B.o G.@ _.  tXX K.Y . F C./.Q.pXF.5.o > hXGXg     J -.UXUXUX",
"UXUX9Xd k     pXUX!     Y   %Xx.BX,Xb.|.|.;   iX  ^.# G.o P.s y.=.P c.- V.& J.o 8X  pX3 / iXv.Q.iX`.oX_   . $.UX>X    <.i hXUXUX",
"UXUX:.1X6   <.UX].  .   lX: A 0X,.} zXl.v.'.$ P.& S.* A.% B.j , 0 d { i g.; l.1 (.  Z Q -X%.=X$XA H.@X@ . .   2XUX{     0.d.UXUX",
"UXUXc r   + 0XFXd       d.Q o h.1Xa.~.kXE.NX Xq O h.< k.5 4 9.9X%X~.} > A i 5.t f.  #.iXNXQ.fXc.g.<XC m .     M KX;XO   u.T UXUX",
"UXL.6.&   k UX2XX   h ;.6 n.. '.<Xg.fX7XU.R.BXN.& 1.g c x IXMXLXz.sXUX[.  S ..B ^ n 2XdXH.$XwXI.+XuXE . e.4   # rXPX0     h $XUX",
"UXc ` X   '.UX(     - ).X Y.2 -X9Xw.>X#X[.p.[.DXF.^ I - ^ c.FXrXDXIXBX*X  #.I U n 0XuXG.W.(.eX6.>X>XJ.. {.O     1.UXN.  o q.R UX",
"cXj { . ; UXCX  . -   ~.# G.7 K..XC.b.-XCXx.b.cXU.Z :.T s # p 9.UXIXAX$X% j.x 8.m dXH.[.#XgX).f.R.>XE 2 K.. = . o UXGXX X 3.2 ZX",
"2Xr.w . ) UXV.    &.s %.<.M 5 MXwX`.0.jXlXR.{.2.w n n.K z.+.5.H HXVXhXJX+ (.0 ^.3 ..9.`.7XlX8Xa.$XcXE.%.( A '     (.UXF X 5 Y wX",
"U.r.  . v.IXQ     v /.= kX& d x.^.W.' ~.:Xj.%XE.V r }.v I.x h iXSXrXdX@X  9X* 5X; b XX:Xs.<Xu.t.!.`.F '.X -Xi     +.UXe.. y ~.[.",
"i.{.    oXGXf   % o aX4 /.B : <X6XOXy.kXuXn.L.A.z.1 yXr #X& nXIXSXxXNXE.  bX- wXu m %X(.x.nX4Xc.-XyXu.h c <XO @   m HX~.    O.z.",
"W r     fXVX;   R >.) d.j a.  v.tX-X&.F.J.C.Y._.I.q $X4 ^ =.8X(.UXwX9X9X8 C.d $X{ D kXU.<.^.y.V.2XfXj 1 C.M f.h   7 SX6X    h.;.",
"H (   @ KXgX    @ ,X  |.X  X  $ Z.&X*.ZXcXh.kX%X^ N v B S o.A ! I I / O.$.N ; 1. .l xX;XV.UX>Xp.@XE $   }.. >X    @ bXmX    r | ",
"i e   5 UX;X      x.i x.v G.C N %X].s.3X}.`._.$XA.l +X( ` ' { _ | ` ] ` ' ..3.w ..!.uXh.&X+X XZ.}.E.  Q w.V q.      pXUX&   a c ",
"p 1   g UXW.  X ] f `.g ;Xv $X  @XmXe.P.lXkX%.+X=X1XL.2.) [ f.N Y.a D.q V.j W. X%XcX5.Z.GX,X5.+XZXV   pX6 <Xq +.    >XUX3   Y n ",
"B u   N UXJ.    ,Xu 0Xd 3Xe 4X2 E V.0Xn NXpXwX} %X|.P.m P M / u K $ |   +.6 K.-XCX+.P.>XBXR.9.2X>.0 M ].Z XXV {.    +XUXq   % 9 ",
"t =   N UXJ.    E ' 9 @.F 4.X.Q # 8X!.I.a ) jX5X8.1.P.      8 B.,XR.i.G   % } ! 0.G.rX7X7 ) .X,X5.; k.p *.1 ;.z     OXUXq   S V ",
"E P   h UXQ.  X @ $ 5.l + OX; R.X , 4X).k.<.] 6.sX8XY.      E.< 8 V.7.#   &  .) SX-Xg v.H `.&X1.p   %XO D =.% o     :XUX2   1 r ",
"w -   6 UX*X  .   0.+.J X X.c 3Xy t -. XK.[.o.:.g.6XI.    . m.*Xw.1.      & J.P.^.J.Y x.!.).l.A ] I ! . R } 3.      pXUX&   S c ",
"l f   @ PXfX    Y s ^ o.l ~ & U y.*Xl /  XOX.X}.,.V K.  . X @ Y FXc..     & { r a 2X_.`.6Xu.t n.x * ` b } +.w P   + bXMX    N P ",
"_ ..    hXBX; . , 3 0 c.C.OX*.R t _ x.` h q._.{.b.G.P.  o 7XP f.eX. .     & t.E.W.L.R.*Xm L t 0 _ >.oXZ.a.2 2 >   6 DX7X    C :.",
"l.)     OXFXd     > .XN 0.t.L.w.{   |.O.<.= ,.R.$Xl.I.  X ).M.BXk   o H 4 & y.0X@XS.@X5 + oX  1.1.C.s.y.C }.&   . b JX^.    7XM.",
"I.].# . n.PXE       ] *.W 7.z.e.V E C.4 S.z.B #.> > J.  N n r 8 7.o.n.).W = J 3 v j j M.w g.] Z i.c.3.P >.~       X.UXt..   ;.{.",
"2X[ $ . ' UXm.  . < Y C.T I Y M.F c.o.$.Q.M O.M =...K.0 T...U.Q._.E.Z.c.1.: 3.=.V 2.p E.d. .e.W v.B E I G.H >     ~.UXH   J [ wX",
"xXh h.. > UXNX      z E W 8.c %.| u ' pXc.N f x.>.d.L.c (.W l.~.P.L 3 $   * 1.3.v.q _ s.vX~ 3 ..@.N e.R E r       UXJXX . { q CX",
"UXv ..    }.UX~   O | % j s.} v.g.<., .X&.G 1.I.S.].;Xv X.W.0.8           e B.P.E.%.) #.P.0 ,.M.d.+.q.h & @..   >.UXZ.  @ | U UX",
"UXJ.V *   z UX<X.   B | 5X& | ' I.<XU.z K k Z.!.=.t.w.(.s u r % . w r r K aX,.>./.B.m U x _.,XL.^ Q , qXX.t   @ eXIXw   @ _ OXUX",
"UXUXW E   @ wXDXa     1.<.%.w _.9XC.$.9XhX7.A.m.d.y.9.n &.A.J.H.3.C.h.&.} *.r.a.M.N.a.aX1X@.x.eXE.q 9.) <.    b JX,XO   V M UXUX",
"UXUX:.w.    5.UX^.  . A Q OXO 2X3X4XH.P.3 ..c.(.u.Z % O.& k.0XpXH.`.*.G >.@ G u..Xd...8 `.D.qX2X;X+ $X-.h     >XUX .  5 6Xs.UXUX",
"UXUX7XG ( .   gXUXT     ;.m.s.7 g.U.UXW.].D 6 2 A 1.Q D Q.r.m..XoX+.L.z.V <.1.n * y K  X~.UXP.1.0 P.p.[     o.UX2X    x 2 yXUXUX",
"UXUXUXJ I X   S PXqX% X o n uXb.h 5 i N.q.rX3Xn 5.j.5 7XD.!.~ <.e.,.~.oXK.t {.) Y 6XuX6.t.w 7 F g.>Xb . X ; fXHXj   + v.( UXUXUX",
"UXUXUXmX( 6.  o OXUXD.  %.* H 8.:X[.K q.S.S.).M H T >X1X5X!.'.XX-XoX'.&XwXz.h.l Z  Xj.T.@. .F. Xh.c 0 #.  #.UXT..   F F DXUXUXUX",
"UXUXUXUX$.$.% . * rXh M LXi.@ <X6.#.`.w A.t.[ k g.( lX,X0X4X+XeXtX*X&XlX>XCXq {.a | g.m.: |.:.6.:X= Y.uX    w.X . j 1.0.UXUXUXUX",
"UXUXUXUXLX3 L.    O I UXP.2 z.3 L.qXH.: I & d 0Xk R T IX{.8XlXsXpX<XjXoXdXl r A.@Xh & K r D.gXH.3 f.K IX7 # s     ! s UXUXUXUXUX",
"UXUXUXUXUX4XS x q %.UX_.` 0 v.N X z.[.A.C T.2XS.(.N o.7.BX;XSXhXwXjX8XJ.G.% +.+Xc.eXb.S }..X<.  g X.: JX( o [.+ a.F rXUXUXUXUXUX",
"UXUXUXUXUXUX9.>.g ^.3.8 c.  , J 1X$ U kXXXv.:XY.W.].M v bXF.AXlX%XAXs.1Xt / 0XF.'.oXj.$X7XF * &.J 6   7Xv.& O.1 m a.UXUXUXUXUXUX",
"UXUXUXUXUXUXUX~ | t , <   . $ sX`.&.F d i.&X!.sX~.yX@Xq.h e./ hXh.b.D n L.3X4X|.sXQ.0X7.6 -.) q.UXI.  :.kX#.F s.+.UXUXUXUXUXUXUX",
"UXUXUXUXUXUXUXSX7 ^.& . .   c.AX. N rX# ; z T.$XpXXXzX*XyXd ! <.f Z ^ MX XcX XjX`.~.u . <.UX7.  R UXH < W.$  .N PXUXUXUXUXUXUXUX",
"UXUXUXUXUXUXUXUXBXV @.m < #.UXq.<XSXJ..  XJ.I 2 +.D.gX0XDXqXhXn._.vX8XnXyXeXF./ > @ @.K   2.UXg X aXo.  r Y.#.UXUXUXUXUXUXUXUXUX",
"UXUXUXUXUXUXUXUXIXBXp y.5 U.^.m NX8   1 UXf Z $X8 r 0 F 2.c.!././.).c.-.m .   >.U.e   ' .   OXtXO {.= J ' M UXUXUXUXUXUXUXUXUXUX",
"UXUXUXUXUXUXUXUXUXUXSX) Y ,.5 S CX-   L.cX/ t E + PXR 8.z.f 9.<.'     . _   # ^ rXUXH.(     < bX}.> V ' <.PXUXUXUXUXUXUXUXUXUXUX",
"UXUXUXUXUXUXUXUXUXUXUXUXe.K P s B.> 3 KX$.,X    j UX$ u <.  UXG j.5X  J BX& . 2 a ' yXUXa   O } + ^.D i.UXUXUXUXUXUXUXUXUXUXUXUX",
"UXUXUXUXUXUXUXUXUXUXUXUXUX6X6 9.x # C.UX; t 5   7.BX8Xb O . KXB V.oX  a.*X$X  . w.  # &..X  o n.{ 6 dXUXUXUXUXUXUXUXUXUXUXUXUXUX",
"UXUXUXUXUXUXUXUXUXUXUXUXUXUXLX<.K q.i G _ t.!   }.[.[ : = $ IX5.[.i.X F.>.UX/   n X.O   * O.L U 4.IXUXUXUXUXUXUXUXUXUXUXUXUXUXUX",
"UXUXUXUXUXUXUXUXUXUXUXUXUXUXUXUXMXP p wXt # o z hXK.+ ( 5 : IXk P UXS c   7.HXr E V @ $.q.v Q BXUXUXUXUXUXUXUXUXUXUXUXUXUXUXUXUX",
"UXUXUXUXUXUXUXUXUXUXUXUXUXUXUXUXUXUX9X9.x ,.[ ' h q V ..  Z oX-.Z. .] I   t C e i.+.c Y e.qXUXUXUXUXUXUXUXUXUXUXUXUXUXUXUXUXUXUX",
"UXUXUXUXUXUXUXUXUXUXUXUXUXUXUXUXUXUXUXUXUXI.N p $.4.$Xu R i = t @ T - y <.} {./ w K }.UXUXUXUXUXUXUXUXUXUXUXUXUXUXUXUXUXUXUXUXUX",
"UXUXUXUXUXUXUXUXUXUXUXUXUXUXUXUXUXUXUXUXUXUXUXvX4XU.b.W H p i N r J y M } t./.4XMXUXUXUXUXUXUXUXUXUXUXUXUXUXUXUXUXUXUXUXUXUXUXUX"
};
