/* XPM */
static char *_9400_322f6feed73b1e809cd400956468fd4ca4a435eaa75aeffb8810ec25b3bf63ba[] = {
/* columns rows colors chars-per-pixel */
"64 64 234 2 ",
"   c #171613",
".  c #2A281C",
"X  c #312C1B",
"o  c #3B321B",
"O  c #2D2C22",
"+  c #302F21",
"@  c #343324",
"#  c #393727",
"$  c #3D3B2C",
"%  c #3D3E31",
"&  c #43391E",
"*  c #45381E",
"=  c #433A22",
"-  c #463B21",
";  c #423D2B",
":  c #423E30",
">  c #474625",
",  c #44422D",
"<  c #4B442B",
"1  c #4B4C2B",
"2  c #564926",
"3  c #5A4B25",
"4  c #574A2A",
"5  c #534A2C",
"6  c #4F502E",
"7  c #59552C",
"8  c #444433",
"9  c #494735",
"0  c #4C4A34",
"q  c #4D4C3B",
"w  c #534D32",
"e  c #534D3A",
"r  c #4E5033",
"t  c #4F513A",
"y  c #545334",
"u  c #5C5333",
"i  c #565936",
"p  c #5D5C35",
"a  c #52533C",
"s  c #5B553C",
"d  c #5B5C3C",
"f  c #63542C",
"g  c #66582C",
"h  c #6C5C2C",
"j  c #735D2A",
"k  c #635433",
"l  c #645B34",
"z  c #6A5D34",
"x  c #635C3A",
"c  c #6A5F3B",
"v  c #735E31",
"b  c #5D6139",
"n  c #6E612E",
"m  c #7B622A",
"M  c #6C6234",
"N  c #66673B",
"B  c #63623C",
"V  c #6C633B",
"C  c #756333",
"Z  c #7A6332",
"A  c #756A34",
"S  c #7D6B35",
"D  c #74663A",
"F  c #736A3A",
"G  c #7B6D3B",
"H  c #7D713C",
"J  c #4F5140",
"K  c #545443",
"L  c #575746",
"P  c #5B5C43",
"I  c #5C5C4B",
"U  c #615D43",
"Y  c #615F4A",
"T  c #5E6143",
"R  c #5B604B",
"E  c #656444",
"W  c #6A6343",
"Q  c #6C6A44",
"!  c #64634A",
"~  c #676848",
"^  c #6C6C4C",
"/  c #726B44",
"(  c #776F47",
")  c #6D7046",
"_  c #737244",
"`  c #77744A",
"'  c #7A754E",
"]  c #76794D",
"[  c #656553",
"{  c #696A53",
"}  c #6C6C53",
"|  c #746E51",
" . c #6E7151",
".. c #737454",
"X. c #757A52",
"o. c #7B7C54",
"O. c #74745B",
"+. c #7B7558",
"@. c #777A5B",
"#. c #7C7D5B",
"$. c #767764",
"%. c #7C7D63",
"&. c #866928",
"*. c #856B2C",
"=. c #87742E",
"-. c #8D752E",
";. c #8F782F",
":. c #97792C",
">. c #947B2D",
",. c #856E34",
"<. c #827237",
"1. c #8C7733",
"2. c #8E7932",
"3. c #83733A",
"4. c #89773A",
"5. c #8D7B3B",
"6. c #937C33",
"7. c #997F31",
"8. c #927E3B",
"9. c #827443",
"0. c #897C47",
"q. c #8D7C44",
"w. c #937F40",
"e. c #837D54",
"r. c #827E5D",
"t. c #807F62",
"y. c #7E834F",
"u. c #7E825B",
"i. c #7E8064",
"p. c #9A802F",
"a. c #978135",
"s. c #9B8335",
"d. c #9F8837",
"f. c #95823C",
"g. c #9D8639",
"h. c #9E893C",
"j. c #A18634",
"k. c #A28936",
"l. c #A98F35",
"z. c #A18739",
"x. c #A38B3C",
"c. c #A88F3D",
"v. c #A7903F",
"b. c #AB923D",
"n. c #B0963D",
"m. c #938243",
"M. c #9A8640",
"N. c #9E8A41",
"B. c #93834B",
"V. c #99894C",
"C. c #8F8A53",
"Z. c #86865A",
"A. c #82845D",
"S. c #968856",
"D. c #A38D41",
"F. c #A88E40",
"G. c #A69042",
"H. c #AA9342",
"J. c #AD9747",
"K. c #B39B44",
"L. c #B99F45",
"P. c #B49C4A",
"I. c #AA9856",
"U. c #B19B52",
"Y. c #BAA147",
"T. c #BCA44C",
"R. c #BEA650",
"E. c #848462",
"W. c #888666",
"Q. c #868963",
"!. c #8C8B65",
"~. c #84846B",
"^. c #86896D",
"/. c #8C8D6B",
"(. c #918E63",
"). c #928F6B",
"_. c #8D9165",
"`. c #8E926B",
"'. c #969468",
"]. c #93946C",
"[. c #95996D",
"{. c #9B9C6D",
"}. c #858774",
"|. c #8A8C73",
" X c #908F76",
".X c #8E9274",
"XX c #949472",
"oX c #999773",
"OX c #969A72",
"+X c #9A9C75",
"@X c #95957C",
"#X c #9C9D7A",
"$X c #A19F78",
"%X c #9DA276",
"&X c #9EA27B",
"*X c #A1A276",
"=X c #A2A47D",
"-X c #A4A97D",
";X c #AAAA7F",
":X c #C2A94B",
">X c #CAB14B",
",X c #C1A951",
"<X c #CBB354",
"1X c #D2BA58",
"2X c #D9C15C",
"3X c #999881",
"4X c #A29D89",
"5X c #A4A582",
"6X c #A6AA82",
"7X c #AAAD85",
"8X c #A7AA89",
"9X c #ACAD89",
"0X c #ACB186",
"qX c #AEB28A",
"wX c #B2B587",
"eX c #B1B48D",
"rX c #B3B98E",
"tX c #ACAD91",
"yX c #B4B692",
"uX c #B5B993",
"iX c #BABC95",
"pX c #B4B699",
"aX c #BBBD9A",
"sX c #C0BFA1",
"dX c #BBC092",
"fX c #BEC19C",
"gX c #BFC2A1",
"hX c #C1C397",
"jX c #C2C49E",
"kX c #C3C5A3",
"lX c #C9CCA8",
"zX c #CFD2AB",
"xX c #D1D3AF",
"cX c #E2E2BD",
/* pixels */
"b p b 6 N p _ A.N 1 5 f.8.4.1.2 @ , T t $ X 3 2 - - . . O @ + . + o o > o o & o o o   @ O . O O O + @ O O O o o X . O # $ $ $ K ",
"XX=X0X[.7X5XqXO.6XQ.Q x.z.x.x.F -X0X-X-XOXu N.D.x.h.B u.&X&X.XR f.G.D.N.v.N.D.G.N.M.I !.5X..=Xt.!.eX$X!.oX| N.h.N.h...A.yX7XXX|.",
"/.eXjX7X0X[.^ ..!.iX' h.h.N.x.G u.i.[.0X6Xp h.N.N.h.Q qX[.&XrX.X4.x.D.D.N.D.N.N.N.g.0 wXXXOXiX6X7XoX#XyX#Xu N.M.h.x.s 7X&X].oXXX",
"/.XX5X0X*X7XoX=XfXQ.x D.x.x.h.A 0X&X0X-X] N D.N.D.x.B _.%XqX%X .f.N.N.D.x.N.D.h.D.h.0 0X#.%XiX=X&X6X9X/.!.w D.h.N.D.w 7XqX%X6X+X",
"r.].Z.A.].7X%X7XZ.&XB h.g.h.h.n iX6X_.rXqXz h.x.h.D.E 0X[.u.u.t 5.D.D.D.G.N.D.x.h.N.e +X5X-X!./.#X6XoX6X#Xu D.x.x.c.u [.-X0X-X%X",
"].9X9X5X'.9X+X*XiXuX9 4 y 4 7 4 ' _ 7 F u.@ = @ # , , P K L L % 5.D.x.D.N.G.N.D.D.D.= uXjX+X{.qXZ.&X7X7X$X9 l c M D d 6 1 l 6 T ",
"].9XOX7X/.E.Q.&X7X=XP D.N.N.D.h.M.h.M.g.( R Q.t.X.Q.^ r.uX .E.! 8.D.D.D.G.D.F.N.D.N.< =X] =X&X=X].Z.Q.`.o.! M.M.M.M.M.M.M.h.f.9.",
"r.].6X6X%X&XiX7X#.0XU D.D.D.N.D.D.N.N.x.G E.-X&X;X9X5X9X[.eX9XO.5.F.D.G.G.G.G.G.G.G.q E.eX8X#XqX*X9X7X].XXU F.D.N.N.N.D.N.N.N.q.",
"OXiX=XOX6X7XeX[.'.0XU G.x.N.D.D.N.D.D.D.G @.&Xo.jX7X6X6X7X+XQ.! 5.G.G.H.G.G.G.G.G.G.{ uX[.^ b Z.eXqXiXeX).U D.D.N.D.N.D.M.D.D.0.",
"W.~.).7XW.@.#XX.#XQ.q F.D.D.D.N.N.D.N.h.<.#.-X9X=Xu.A./.-X=X9X[ 8.v.v.v.c.F.G.D.G.G.P #.6X#.qX&X7XXX=X[.@X[ D.D.D.D.D.N.D.M.D.0.",
"q J t t t $ $ # # ; $ G.D.D.D.x.N.D.N.D.<.~ aX7X{.%X%X=X$XqX5X} l C C C C v M n v C 0 > b ] ) 7 p 7 7 p d ~ G.D.N.D.N.D.F.w.z.0.",
"T Q.X.`.&XA g.f.8.8.0 F.D.D.D.D.F.D.D.D.<.E.7XQ.eX+X7XA.!.).6X{ 9.q.B.B.B.L r t ..r q 4.<.5.5.V i Q W y w } G.D.F.D.D.D.z.D.D.q.",
"X.%XrXOXQ.G h.N.N.h.< H.x.v.G.G.D.F.D.D.5.P @.fXoX#XqX%X0X!.Q.[ M.c.G.N.f.i.dXrXiXwXK G.D.D.D.9.&X-X0XqX$XY F.G.D.D.F.D.D.D.z.q.",
"qX6X%X[.&XS G.h.D.D.< b.G.G.G.G.H.G.G.G.q.#XeXZ.#.o.-X-X9XlX*X} f.N.N.N.N. .-X[.;XiX9 H.c.G.F.3.&X0X%XOX;XY H.F.D.D.F.D.z.D.F.q.",
"^.5X6X&XQ.F D.h.N.N.< H.G.G.G.F.G.G.G.F.q. .0X#...5X6X7X=XwX=XO.4.M.M.N.N.`.dX%Xi i 0 v.D.G.F.G -X;XdX7X6XU F.F.G.D.D.D.D.D.F.0.",
"# % % # O - 3 g h C # *.<.*.,.*.*.,.*.*.S 1 i ] [.) N ` b N d a m.f.h.N.h.u.u.y.Q b 8 h.g.h.h.` u.Z.[._.Z.Y 8.6.8.w.6.6.6.8.w.w.",
"p A G H S % T d T ~ t / D V c U K K R K R s n G g g l h z g n U ! b d u E y g F z z L G ,./ 3.( ) p A N W q 1 9 8 8 q $ 8 $ % K ",
"f.H.G.J.m.L %X7X0XwX@.D.x.x.x.4.^.#XfX&X7XQ v.x.F.G.v.v.v.v.c.Z.=XqXZ...+X( v.D.D.H.U F.F.F.F.G.v.G.v.v.N.} #X#X#X&X8X8XaX|.@X@X",
"f.J.G.G.V.R dX7X%X%XT D.x.x.x.3..X&X6XrX6XM v.G.F.F.F.F.v.G.F.( ].rXuX0X&XF G.c.D.H.s G.G.F.G.D.N.G.v.N.M.XX&XqX8X+XOX5XXX5X#X|.",
"N.J.G.J.C.0 [.-XrXrXQ v.x.D.x.4.W.qX0X6X6XF F.c.D.F.D.F.v.v.G.3.6X0X0X-X7XF D.F.D.H.e J.D.G.G.D.G.G.G.G.M...#.uX5Xu.8X9X&X/.5X.X",
"F.x.s.8.( 9 &X-X'.y.N x.g.z.g.3..X%X-XZ._.M F.G.F.F.D.G.G.F.F.8.%X-X{.-X6XG v.F.x.H.u H.G.D.F.D.G.G.D.D.M.P 6X0X5XaXuX&X7XyXXX|.",
". o @ . X 0 d b 0 0 , g 7 3 7 k _ F F Q _ N H.G.F.F.G.F.F.F.F.f.B ) i F 6 s f g z D e H.G.D.D.D.G.G.D.D.M...uXkX#XOX6X7X6X&XfX X",
"~.9XXXo.#.&XXX.XXX@.U H.c.F.F.F.v.v.D.G.x.z c.F.H.c.v.G.G.G.c.m.@.+XQ.fX!.|./.#.^ E.! H.F.D.x.D.D.D.D.D.N.X.qXE.`.&X=XqX&X&XlX|.",
"t.jXiX9X7X&X&XeXqX0Xe.H.N.F.D.x.x.v.F.F.D.c v.H.v.v.H.F.G.G.c.q.Q.7XqXqX=XeXeXuXiX0XL H.G.D.D.D.D.D.D.D.N.$.=X5X6XyX&X`..X5Xu.i.",
"O.=XjXjXrX*X#X*X9XkX' H.D.x.D.D.D.D.D.D.h.V H.c.v.v.v.c.c.c.c.9. .qXeXaXuX=XyX0XqX6Xa H.G.v.D.F.x.D.D.D.N.i ^ u.5X6X6X%X&X6X5X}.",
"%.*X{.].7X=XZ.9XiXQ.Q K.x.x.h.D.h.x.x.G.D.z v.x.c.x.c.x.x.x.k.9.XXuX-X=X[.=XeX*X&X%X0 J.x.D.D.D.F.D.x.c.N..X6X0Xo.7XqX7X5XXX+X|.",
"/.*X9XeXfXeX8X-XeX6Xe.b.D.h.x.D.x.D.x.D.G.e p i k l u 7 k 4 f u 8XzX7XrX0X^ @.!.OX7Xr n m m C Z Z Z m v A ^ ] %X%X*Xo._.1 > 1 I ",
"%.7X9X+X#XqXiXuX9XeX' K.h.D.h.h.h.x.x.D.G.L  .O.../.P 1.4.1.5.x 5XyXQ.6X7X=X7XeX6XuXK R ! %.a L ^ U / ( ( R i.} R ~ a 5.4.4.4.e.",
"+.6XeXzX6X;X-X7XhX].p K.x.D.x.D.x.h.x.x.x.{ qXdX9XqXd l.k.v.c.G y '.eX0X=X=X_.eXqXu.{ dXrX6X8Xi.c.z.z.x.h.^.yX8XkX9X^ v.H.H.J.S.",
"%.5XeX{.=X5XjX+XiX9Xl P.x.x.x.x.x.D.x.h.h.O.rXfX`..Xp b.k.c.c.G XX_.eXiXlXqXuXiXqXdX[ dXdX8X8X$.h.x.z.g.h.i.qX&X&X&X} c.H.H.K.S.",
"$.9X' jXiX7XeXeX_.Q.u T.x.x.z.z.x.h.x.d.x.O.rX%X&XrXQ n.x.k.c.G #XuX-X%X] u.uXkXi.0X{ rXqXqX%XO.M.z.s.j.H.u.qX7X-X7X+.c.b.b.K.S.",
"9 lXN y Q y > V b N Q S h h h j n n j j Z d X.Q.Z.%X~ a.-.:.:.D i _.%X] i Z.] 6 1 r t b ~ ~ d J m.k.s.s.b._.[.qX`._.E j.x.v.b.S.",
"n =.2.<.3.J ~ E ..P q q.3.3.<.<.<.<.3.3.3.K 0 E P d 0 8 8 9 9 q K i r b a i A A A A H A F A G | ( S h f - E { ! P a K I P P ! [ ",
"h.n.K.Y.G.} 6X-X6X-Xd P.D.x.z.z.z.x.x.c.x.[ &XeX+X=X=XXX#X+X' O..X&X&XOX&XH v.d.x.c.c.v.x.F.c.0.+X#XpX#X`.cXyXXX`./.O.7XuX#XgX@X",
"f.n.n.J.D.[ -X-X%X'.Q K.x.x.x.z.z.z.x.x.x.L 6X&XiXqXwX9XwX$X&X#..XgX8X6X6XH d.v.c.z.x.c.x.z.v.G 7X7X#X#X#X7XA.XX].eXL #X&X.XtX.X",
"h.b.b.Y.D.$.+XqXfX7Xu.P.x.x.x.x.x.z.j.x.x.K eX7X7X+XuX9X5X$X+Xi %XrX%X5X6X3.d.d.z.z.h.x.h.h.c.F 9X7X9X$XsX].].#.! ].P eXzX5X8X^.",
"m.g.h.G.f.t o.~ Z.%X] K.x.x.g.z.s.s.x.x.x.q [.6X9X$X5X7X*XOXe.u.`.-X0X6X&XH d.d.z.g.j.z.z.z.x.G 7XoX6XOX=XZ.'.+X8X+X{ jX&X`.%Xi.",
"> l V M M M M M N N i Y.x.z.z.g.s.7.7.j.x.I 7X'.{.-X[.7X7X+X].#Xa T E ) d 0.d.d.g.z.h.s.g.z.z.G ^ E A.-XaX9XOX;X9X9XP } a a t { ",
"N.K.H.b.v.b.c.c.v.v.x Y.x.z.k.p.7.7.s.j.c.[ 7X).iX6X=X=X9X{.+X~ D.h.f.h.G.0.d.s.g.g.s.z.j.g.x.G wX#X9X=X&XaX&XzX5X#X} F.J.P.U.Z.",
"N.K.J.b.c.c.c.c.c.c.d K.z.z.s.s.7.j.s.7.z.9 W E.yX*X=X9X*X!._.#.M.h.g.N.D.9.j.d.s.s.s.g.g.s.s.S +X+X7X+XaXkX7XXXkX4XI J.P.R.T.C.",
"N.K.K.H.b.b.v.c.c.x.u K.s.s.s.a.s.s.z.s.j.I 6X$X7X7XeX=X*X8X#X^ m.d.d.d.G.G g.z.s.s.s.s.s.s.s.S +XoX-XqX9XoX+X7XW #.K P.R.T.L.S.",
"D.b.K.b.b.v.c.l.c.z.p K.s.7.a.a.7.7.7.7.j.I =X7XeXqX0XwX7XZ.y.E.N.d.d.h.G.G s.s.s.g.s.s.s.j.j.Z eXyX=XyX*X6X6X-X=XA.e P.R.T.,XS.",
"N.b.K.H.b.v.c.c.x.j.l w 5 0 5 w e e e e s 8 p B /.B p ] N < F Q 7 g 7 h v U k l k k k z k u u 0 1 Q E.V _ Z.[.V e.F : z z v z ' ",
"M.b.K.H.n.v.v.c.c.k.W ....#.XX! D.7.8.7.f.O. .o.5XA.a c.6.1.-.( M.a.a.g.8.f.h.g.g.c.Y !.@.T T [ 6.2.2.6.6.7.6.a.7.x.~ ^ 3XU | $.",
"g.b.K.H.b.b.c.l.z.k.l OXkX5XgX^.H.s.d.s.z.i.6X6X&X&XK b.p.a.s.5.D.>.>.a.a.a.s.s.7.x.d yXyX#X&Xi.s.s.k.s.s.h.c.c.c.K.Z.uXyX7XeX|.",
"h.n.n.n.b.v.c.z.k.k.x rX&X-X&X .H.j.p.s.x.~.#X7X7XqXt H.7.g.s.q.D.a.a.a.a.s.s.a.7.c.s +X&XqX5Xi.s.s.s.h.h.x.z.c.c.K.` kXzXkX8X X",
"N.n.b.n.c.c.c.s.d.j.B _.&X-XuX/.U.d.s.s.D.|.gXqX7XqXK n.a.p.s.f.D.a.8.a.a.a.a.s.7.c.P eXqXiX6XO.p.s.s.s.h.z.z.c.x.K.e.7X/.iX#.|.",
"2 3 3 2 2 2 2 2 2 3 0 @.y.Q.] R 8.S *.<.f.R 7XuX_.p 0 &.m m &.S G.a.7.a.p.a.a.s.g.c.L ).'.@.t L d.a.h.z.z.z.z.x.c.K.(.[.[. .A.O.",
"I ! / +.| d ! O.~ } a F.5.1.1.5.2.8.5.5.f.U h g h A ^ K t d t % J.a.a.a.8.7.a.a.s.c.x A h C C Q s.p.s.h.g.x.x.c.c.L.x H S H H o.",
"|.5X9X3XhX#X9XXX).yXw T.z.z.s.g.s.h.s.s.b.` c.k.d.c.W &X-X&X&X^.D.a.a.a.g.g.s.a.a.c.U l.p.a.s.V.s.p.s.j.g.z.x.x.c.L.W n.T.<X<XI.",
"@XkX5X=X=XXX#XxX5X#Xe T.h.z.h.s.s.z.g.g.H.9.k.p.s.k.d 9XiX&X-X^.D.f.a.a.8.a.a.a.7.x.c k.7.p.s.B.a.s.d.s.z.j.x.x.c.L.s K.,X<X<XI.",
"3X8XXXxX#XiX*XXX#X5Xs :Xs.g.g.k.h.g.s.s.H.( j.a.7.k.Q 0X&XfX&X@.D.f.a.a.a.a.g.a.a.k.z k.p.a.s.q.a.p.j.d.z.x.x.D.c.L.s n.Y.,X<XI.",
"tXpX/. XoX$XoX9X/.#Xu :Xk.z.h.j.z.g.g.s.H./ a.>.>.6.( uX=X6X;X^.w.*.&.&.&.&.*.&.&.-.c j.>.:.:.V.>.-.:.:.-.:.:.:.:.c.s b.L.:X:XU.",
"4XpX#XXX5X#X3XlXoX].9 ,Xs.g.g.g.g.s.s.g.J.l h M z z M G H A ` _ 9 8 $ ; $ @ : ; # $ q 0 q t 0 a u 2 5 y w : $ $ ; : : ; # # = L ",
"t.sXlX#X5XsX#X$XXXxXi ,Xz.s.s.g.z.g.s.g.H.B.6.6.6.6.>.>.;.>.;.S.t.XX9X;X=X#XeX9X#X!.L ).qX`.5Xi.c.p.p.p.n...t.r.r.e././.$X!.r.~.",
"4XW.).#XoX5XkXoX].#XU ,Xh.g.s.s.a.z.g.g.G.5.a.2.6.;.;.;.;.;.>.m.+.$X5X/.).#X].oXoX$X$.qX5X7X#X%.x.>.>.>.n.XX$XaX5X).tX$X8X8X$X3X",
" XoX!.5XuX[.'.lXoX#XW ,Xx.g.z.g.a.s.s.g.G.4.6.6.6.2.;.;.>.;.2.m.| 9XoX$X$X7X!.eXoXoXt.=X*XeX-Xi.c.p.:.:.v.!.#X#XaX4XyX5X XpXoXtX",
"e.Z.+Xr.#X).).E./.].Y L.6.6.6.6.6.>.7.6.x.q.6.6.6.2.;.;.1.;.;.q.t.$XyX6XoXiX).oXyX).Y eX7X$XqX~.n.>.:.:.b. XXX).sX$XpXpXoX8XpXpX",
"  : $ ; = @ O @ + @ $ 9 = ; = : $ $ $ $ $ B.7.6.6.6.;.1.;.2.>.q.t.r.5X$X;X| r.iX=X!.e ^ ~  .} K 7 3 2 2 3 | 7XoX5X$X@X$XaX$X$X@X",
"U.1X2X1XM.$.u.].(.6XK L.D.x.x.V.~.Q.#. .^.V.6.6.2.6.6.2.;.;.2.q.|.).5X).yX).'.).^ E.W.s.8.7.a.I.| A.Z.o.3X%.].XX$XlXW.).aX4XoX3X",
"P.1X1X1X8.O.oXoXoX-XK P.D.g.8.V.|.+XqX6XyXB.7.;.6.6.6.6.:.6.1.B.I x (.).yX$X).$XXX5Xe.s.a.a.g.U.qX+X=XfXxX$.aX).).pXlX3X/.4XXX@X",
"P.>X>X<X8.$.yXOX#X$XE K.8.g.g.w.^.=X&XaX8XB.6.6.6.2.;.2.1.-.6.q./.hX/.#X5X$X$Xr.!.uXe.j.6.a.a.N.qX{.6XyX@X#X#X#XsXXX#X).(.oX X3X",
"P.>X<X<X8.~.$X!.#XwXP P.f.g.8.m.^.6XuXgXuXm.6.;.;.;.2.;.:.1.1.0.O.lX#X9X$X4XoXW.#X#X0.p.6.6.a.f.5X6X#X#XoX#.$XtXXX8X/.sXiXS.E.t.",
"f v z f 5 ; Y ..E.W.9 k 4 4 2 k I ~ %.#. .< * # & & - & - - - u Y U 5 e.Z.e.e.$XA.` p j j m m H `.Q.A.Z.^.~ #.r.#.t.| W.eXtX XW."
};
