/* XPM */
static char *d4512d948cfc4d3696a07c19c3f45124[] = {
/* columns rows colors chars-per-pixel */
"64 64 256 2 ",
"   c #010101",
".  c #0A0505",
"X  c #030608",
"o  c #040A0B",
"O  c #0A0B0B",
"+  c #0A070B",
"@  c #110D0D",
"#  c #14100D",
"$  c #18160C",
"%  c #060F10",
"&  c #0B0C12",
"*  c #0B0914",
"=  c #120D1C",
"-  c #110F11",
";  c #061214",
":  c #0B1314",
">  c #0B1619",
",  c #0B1A1C",
"<  c #051A1B",
"1  c #131313",
"2  c #1B1514",
"3  c #1D1A15",
"4  c #131B1C",
"5  c #1C1C1C",
"6  c #131717",
"7  c #0C100E",
"8  c #241D1C",
"9  c #251C1B",
"0  c #221D0F",
"q  c #1A211C",
"w  c #25261B",
"e  c #33311A",
"r  c #0C1E21",
"t  c #131E21",
"y  c #181625",
"u  c #1D1734",
"i  c #160F21",
"p  c #24193A",
"a  c #241937",
"s  c #271D20",
"d  c #0D2224",
"f  c #0E262A",
"g  c #0F2A2D",
"h  c #132224",
"j  c #1C2324",
"k  c #132629",
"l  c #1C252B",
"z  c #132A2D",
"x  c #1B2A2C",
"c  c #1A2926",
"v  c #142E32",
"b  c #1A2D32",
"n  c #153236",
"m  c #1A373B",
"M  c #222323",
"N  c #242A2B",
"B  c #2C2C2C",
"V  c #282727",
"C  c #372B28",
"Z  c #2A352D",
"A  c #272A36",
"S  c #263234",
"D  c #2A3333",
"F  c #2D3B3C",
"G  c #253938",
"H  c #333434",
"J  c #3B3B3B",
"K  c #353A39",
"L  c #313A25",
"P  c #442307",
"I  c #473636",
"U  c #4D3732",
"Y  c #683D29",
"T  c #334000",
"R  c #045A2E",
"E  c #2C423B",
"W  c #385433",
"Q  c #336239",
"!  c #25623A",
"~  c #1F6000",
"^  c #53413E",
"/  c #4B4D35",
"(  c #766C34",
")  c #65440F",
"_  c #281E45",
"`  c #1C3D42",
"'  c #2E2445",
"]  c #31244C",
"[  c #263B42",
"{  c #383D42",
"}  c #382856",
"|  c #373B57",
" . c #3A2F63",
".. c #070E7B",
"X. c #463151",
"o. c #422D66",
"O. c #47326E",
"+. c #493272",
"@. c #473070",
"#. c #553D7D",
"$. c #1F4146",
"%. c #264749",
"&. c #394647",
"*. c #2A4E52",
"=. c #274B51",
"-. c #374D51",
";. c #2D5256",
":. c #375557",
">. c #2C514F",
",. c #375D62",
"<. c #394F6E",
"1. c #3B6367",
"2. c #2F6D68",
"3. c #25644F",
"4. c #434343",
"5. c #4C4C4C",
"6. c #46494A",
"7. c #584947",
"8. c #4A5648",
"9. c #495557",
"0. c #535353",
"q. c #5C5C5C",
"w. c #54595A",
"e. c #574F53",
"r. c #634D49",
"t. c #665A57",
"y. c #6F564E",
"u. c #506953",
"i. c #75695B",
"p. c #707452",
"a. c #594668",
"s. c #4E5969",
"d. c #685476",
"f. c #74586D",
"g. c #49666A",
"h. c #5A6365",
"j. c #476C72",
"k. c #567371",
"l. c #636363",
"z. c #6A6B6B",
"x. c #6A6664",
"c. c #776A6E",
"v. c #786679",
"b. c #6A7574",
"n. c #737373",
"m. c #7B7B7B",
"M. c #79797A",
"N. c #6F7467",
"B. c #E71F00",
"V. c #8B7D35",
"C. c #C0743F",
"Z. c #837257",
"A. c #8F726B",
"S. c #9E6462",
"D. c #D37A7F",
"F. c #17BF00",
"G. c #7D8A29",
"H. c #05D103",
"J. c #6B8377",
"K. c #658B55",
"L. c #97883F",
"P. c #AAA017",
"I. c #B7DF00",
"U. c #9DC916",
"Y. c #E2C93F",
"T. c #968D52",
"R. c #A19649",
"E. c #A69B54",
"W. c #AB9051",
"Q. c #B2AC54",
"!. c #879567",
"~. c #908B73",
"^. c #9AA567",
"/. c #8BA177",
"(. c #ADA666",
"). c #A8B679",
"_. c #B2B56F",
"`. c #A39167",
"'. c #D49542",
"]. c #C7BB58",
"[. c #D7AC48",
"{. c #C8BC64",
"}. c #D99668",
"|. c #BBC275",
" X c #91CF5E",
".X c #D9C958",
"XX c #D4C957",
"oX c #E9D659",
"OX c #F5DE56",
"+X c #E9D04A",
"@X c #F9E358",
"#X c #CCC96F",
"$X c #E8D866",
"%X c #F4D66D",
"&X c #F7E567",
"*X c #F0E46E",
"=X c #507180",
"-X c #797784",
";X c #617E88",
":X c #534883",
">X c #857A86",
",X c #907087",
"<X c #A37A96",
"1X c #D17C82",
"2X c #9D7AD5",
"3X c #CD54E0",
"4X c #00AAAC",
"5X c #678587",
"6X c #75888A",
"7X c #5B9093",
"8X c #8B8B8B",
"9X c #858787",
"0X c #9C9D9C",
"qX c #969594",
"wX c #948D8E",
"eX c #B68D84",
"rX c #A69995",
"tX c #B4999B",
"yX c #AB8D8E",
"uX c #ACAE8E",
"iX c #AF9BA2",
"pX c #A6A6A7",
"aX c #B5A8A3",
"sX c #B7B8B7",
"dX c #B8B3AA",
"fX c #94A495",
"gX c #C5968C",
"hX c #C89B97",
"jX c #E39898",
"kX c #D7A59A",
"lX c #C8A49B",
"zX c #E3B09C",
"xX c #C99BA1",
"cX c #D6A7A5",
"vX c #D7B4A9",
"bX c #CCB4AE",
"nX c #E2ACA2",
"mX c #EDB5AB",
"MX c #E7B5A8",
"NX c #F4B9AD",
"BX c #E9B9B4",
"VX c #FABFB4",
"CX c #F4BCB1",
"ZX c #BFC784",
"AX c #D0CF85",
"SX c #FCD08C",
"DX c #FDC2B5",
"FX c #FDC4BA",
"GX c #FFCAB9",
"HX c #FAC6B6",
"JX c #FCC6A7",
"KX c #D9D9D9",
"LX c #D5CCC8",
"PX c #FFC6C7",
"IX c gray100",
"UX c None",
/* pixels */
"IXKXsXF.) T I.T T P.T I.P H.. B.                          X X X X X X   X X X X X X X h.CXVXPXr.                3X      4X      ",
"    X 2.d.n.x. .Q Q 1.R * u a y +                         X o X X X o   % o o % > l b c.kXNXVXr.                        + i i * ",
"                    X ' @.@.+.+.o.i                             X = & & r t > ; > t V J f.,X<XX.                    . _ o.o.} } ",
"                    p } } } ] } } ] +                                   > & r < ; > * % i t.nXr.                    _ +.@.o.o.o.",
"                . . ] _ a a a a p a i                                 X k i f d , < 7 o X X t.7.                  * +.+.+.@.O.@.",
"              .   * a i i = = = = = *                     X   .     . 7 t ` v d , o o o o + q ^               X   a +.@.@.+.O.+.",
"      B V K 4.1 - y = * + * u ' ] ] p N 5 + l l > j o k D G M [ t D [ -.[ %.z d ; ; ; o o o X M       V 5 H 4.2 8 X.+.+.+.@.+.+.",
"    X 5 0XqX>XZ e.8 * + + i +.+.+.+.' B b.4.V N &.V N K w.D > G t t m =.:.[ a.X.A ; ; o o o   o     X 2 pX8X9XK 0Xa.+.+.O.+.+.@.",
"    + 6.q.H 4.e.M 1 * + . = +.@.+.#.' w.fX:.F V &.-.D &.h.[ N 5 + h.:.:.4 m X.X.A , % o o o   o     7 5.q.J 5.6X6.w.o.+.@.+.@.+.",
"    @ ,.>XqX>Xs.u.W :.R X = +.@. .] E % r r x l ; o b : k t { 5 &.q.k.5X;Xg.-.S l d < % ; o X 1     & 2 q.x.e.J e.4.d.@.@.+.+.@.",
"    + dXM.q.5.z.6 M + X X & o.O.[ = h m g r & 7 t > 7 , z o > z 7   l [ :.g.j.;.m b %.k ; X X 1     @ pXn.l.5.wXA z.4.A :X@.@.#.",
"      n.j V dXJ M 5 1 +   X x c r k 4 4 n [ > ;         X 7 7       o f h > k v -.,.[ r v k o @       l.M 8 sX4.J z.q.M.I V 4.M.",
"    X q.0XM { K 0.1 7 1   X O 4 t t > z h o S                 X           o o o > ; k v n f d >       0.8XM 4.4.-XV 4.qXM 6.j s ",
"    X 0.J 0.H wXK 3 B 7 . X : F 4 > l 4 o   7                 7 7       X         X o ; , , , ,       H B 4.H qX0.H pXz.J e.M.sX",
"    # M M.m.9Xn.8 7 J 2 O X . c x 6 > ; % X o                   x     4               o o , < ;       7 4 9.n.m.M 5 0Xn.l.4.pXq.",
"    X n.0.5.4.q.5.5.J V   O X 1 F : 7 d > .                     B &.6.                  o X d 4       r 4 h 4.0.l.l.M.9X8 M.z.pX",
"    2 2 { 5.K M 5.q.B 7 V + 7 @ 7 t b k 4                       6.HXt.                  t     o         % o o 5 5.c.0.M 0X4.0XKX",
".     | 0X6.qXm.l.B 0.H 3 O 1 +   5 S b   + 1                   b.9.B                   o   X X     X ; % %   &.x.D z.q.4.J qXm.",
"O V.3 8.5.V l.H z.0.n.V B 6 5 1 + X 3 D   X 7     X           K m d 3                     X X X   o X h o X X 5 z.0.m.H q.4.KXsX",
"  $ R.I J l.q.q.>XK l.J q.V 3 6     1 t +       X , X       j :.m , M                   X X X X     > 7 % & X 4.8XH l.4.pXM.8XsX",
"    $ Q./ x.5 5 V 0.6.V 5 3 + +   X o 8       M &.n , 7 & D :.,.n > S                       X X     X 7 7 ; X 8 V e.5.K V J B 0.",
"    . p.].uXA.H 5 4.m.n.B q 5 @ . . O 2       &.0X6Xg.&.&.:.-.j.m , l j               V     o ;       ; ; Z h.V 8 4.n.n.J 5.m.-X",
"    O B ^ R.K.B H M.z.9XH 5 s * X @           A.HXbXk.=.f % 7 G , o   x J           M B     % ;       ; 5 ( p.N H J.n.qX6.e.0Xx.",
"    6 0XH c.Q.`.z.5 5.M l.5 + @ # O 6   X X X tXHX8Xz %       o         # &.[ z x -.N       o ;     X q.N x.].T.z.8 5.V 8X6.K wX",
"    + B 4.4.e..Xp.x.e.z.q.* 2 2 @ @ # O @ O   kXMXE           o       , ;   X 1 +         % % ;     X N J J 0..Xp.x.q.-X0XB ,XFX",
"      5.H n.sX{ R.(.z.7XV 9 s 2 @ # + 8 +     lXwXUX  o , k UXo o     X ; ; o X       X     7 @       :XH n.sX4.R.(.x.M.5.f.GXDX",
"    UXb.a.KXwXs.N.(.(.N.r.I 9 # O 3 X + . X . ~.h.X X ; d n z < ; X       % % X           + 7.I     & J - LXq.J 7.E.E.e.xXFXDXDX",
"    O D q.q.z.q.w.M T.R.y.C 2 # @ 2     @ -   4.&.  o o ; d > , ; o       X o     . 1 + 5 y.eX^     & B q.q.z.l.0.8 (..XDXDXDXDX",
"      q.n.5.n.n.n.7.cXW.( C 3 # @ # X @ . 7   2 n o , g d > , > o         X X O   . @ $ B U kX7.      q.M.5.n.n.c.e.BXSX%XJXDXDX",
"    o n.0.9Xz.5.c.PXnXeXy.e 3 @ @ + . @ . X   X f o > :.m , ; < ; o                 + + B C gXU     + z.0.8Xz.5.c.PXDXVXSX%XJXDX",
"      z.4.m.M.yXFXDXnXeXy.L 0 # @ O O $ +   X   ; o   o ; > < r ; ;                   . C @ 2 e       l.{ m.-XyXVXDXDXDXDXSX&XJX",
"    @ V n.c.tXVXVXVXmXgXS.U e $ @ O @   .                                               M +   O     + M z.z.tXCXDXDXDXDXDXDXJX%X",
"    . z.N cXDXDXDXDXNXhXS.r.C 0 # @ @ . 8         X                               : 7   : X   7       4.s iXVXVXVXFXDXDXDXDXDXVX",
"    . 8XcXDXDXDXDXDXDXnXeXi.U 9 2 @ @ @ 1 O X     X                               o o                 + J kXNXVXDXVXDXDXDXDXDXDX",
"    + cXVXFXDXDXDXDXVXMXhXA.^ C 2 @ @ @ 1 2       < X                             X >         X         X M.kXCXDXVXDXDXDXDXDXDX",
"    + MXFXVXDXDXDXVXNXnXeXS.^ C 2 @ @ @ # q       7 z %                             % X                   ; ~.MXVXFXDXDXDXDXDXDX",
"    O MXDXDXDXDXNXmXkXeXA.y.I 9 2 @ @ @ 5.l.X     X d ; % r o                     X           7           X w.hXNXDXDXDXDXDXDXDX",
"    @ MXDXVXVXmXnXgXeXZ.r.I 9 3 # # M n.6.c.X       ; , % ; X                   o X 6         X             D x.mXDXDXDXDXVXDXDX",
"    @ NXDXJXNXkXgXA.y.I C 8 3 @ V 6 1 5 z.n.X         ; % X X             7   , o   W 3   & 7 o               F lXDXDXDXDXDXDXDX",
"    ; &.>.-.F S N j C s 3 $ @ 7..       MXx.o   o < X X o X           ; 9.&.o , f X 8.p.; %.>.5                 G :.cXDXDXDXDXDX",
"                  7 8 2 # 8 6.o M V h M.HX5.    % r n [ l O     > G k.sXuXk.! k m > E ^.> ,.n >             o o % :.FXDXDXDXDXDX",
"                X 2 @ 5 5.8Xs.8.rXJ -.aXBX4.  X o %.$.5XBXbXdX0X-XwX>X.XOX$X).` %.m E K Z %.d ;             X % r lXDXDXDXDXDXDX",
"                @ # B &.bXz.h.x wXK b.aXcXqX  ; ..f.j.6XGXGXHX-X_ z bX.X$X*X#XK. Xu.W G.T U.P H.. B.      o   ; o rXDXDXGXDXDXDX",
"              o # 2 O   w.0XqX9X-XF 9.rXrXN   . + ` 2X%.6XbXLX-X-.] &.R.*X*XAX5X7Xj.Q W 1.R %             o o X   r.GXyX,XDXDXDX",
"              @ O         V h.Z 6X4.2 6X9XS > + X n n $.=.,.6X-X6.l / P.+X@X^.E v %     4 G , o           o % o o t.DX} v.DXDXDX",
"            o @ .     @ 8 wXrX4.9X4.H J.6XB l X   f g n $.,.5X8X~.{ [.oX*X*X/.E *.7     j %.q o               z o rXVXu mXDXDXDX",
"            @ O 6     ] d.d.9.j M B + b.0.  & 4   r d n ` =.j.7X^.p.XXOX&X&X).Z 4 ;     q h o >             o O x tX<X_ xXxXnXFX",
"          O O K 4.  6 v.a.} v.tXM.> l 8XN       o % f n m ` ,.j.k.N.].OX@X$X{.n k o     X 6   6           7     c aXyX_ _ _ ] BX",
"        o @ 5 n.q.  1 qXBXd.>XrX: 6.A.aX>       H o r g f n ;.1.g.u.Q.OXOX&Xe ; z 4 X     O X X         : q   h   ~.DXGXGX<Xa.mX",
"        . O 5 j b.X X &.tX} >XZ M 9Xm.0.        o h r f g ` ;.,.1.x.|.@X&XR.!.c ;.%.&     O s *     o   d     ; + A.DXDXDXd.v.DX",
"          O 6 9.l.      l u 7 y k.iXD             E , d g ` =.*.g.p.+XOX&XE.!.c ` %.+     O U >     ;   X     X X wXJXDXmXX.v.cX",
"            4 -.6 7           y p tX&.            M < d g m $.=.k.L.Y.@X/ ].ZXJ.;X<.Q Q K.! Y       o o X       i yXDXDXNXO._ _ ",
"            ; c N V           :._ bX0.          e L < r f m %.=.8XE.$X*X{.$XuX< : 4   1 u.0.s O     ; X %     : > eXDXDXVXFXGXGX",
"            X ; , X           > u dX0.        3 ^.e o d g ` =.2.|.L.+XOX@X@X|.< 6 t     N S @       ; X       > 6 nXDXDXFXVXDXxX",
"          X   d h o         . * = ] A         X Q.$ o r g m *.;X#XR.+X@X&X@X|.4 v >     7 7 1 +     X X X     o S VXDXDXDXVXGXa.",
"          o   X d o         0.-X>Xv.X.J     O   w   X f g m *.;X#XE.$X*X&X*X).z :.c X     7           o X   o o 7 vXDXDXDXDXVXtX",
"          % o     ; X       x.bXDXyXf.T.    7 7       < n n %.6X#XR.Y.OXOX@XE.z =.q   X 6.  . +           X o X   >.HXHXDXDXDXDX",
"            X o   X         7.DXvXa.Z.XX      . /     < n n ;.).oX(.oX&X&X*X^.k G @   6 5           %     X ; % % X b.DXDXDXDXDX",
"          ;.< < X           H HXwXl T.XXX     X 0 X X % n m 1.|.OXT._.p.|.*X^.q h 6     :           ; < X % o   < < g vXDXDXDXDX",
"      o q qX*.$.o           1 zX{.L K.{.          X X o n n 1.uX+XV.|.!.Z 9.8.4 4 & > M X           X ;   X     t.MXvXHXDXDXDXDX",
"      O B g.*.%.              ].u.L L 2         w       d f 1.;X/.( Q.AXJ.q x h 6   4 D               h o X   h qXDXFXFXDXDXDXSX",
"      @ K G > o       7       / E o w L w       W       ; d $.1././ E E L w o X 4 o   H               b X     ; eXFXFXGXDXGX%X@X",
"9 # @ @ F r 7 + X             9 @ X Y C.C.8     8 o     ; , < G N.J L 4   o 7 X &   X 1               v       + S.1XD.D.1X}.'.'.",
"C 9 2 2 s.> ; j t             Z +   e T.!.&.    X             7 : O o X   X X   5     -             1 >       : jXjXjXjX}.[.[.[."
};
