/* XPM */
static char *_a7dbf08dd0a4bf4f511e7fe3327216b[] = {
/* columns rows colors chars-per-pixel */
"64 64 208 2 ",
"   c #040605",
".  c #050807",
"X  c #060B0A",
"o  c #090E0D",
"O  c #07100D",
"+  c #0A110F",
"@  c #0D0F10",
"#  c #0D1412",
"$  c #0E1915",
"%  c #0F1B18",
"&  c #111615",
"*  c #111916",
"=  c #131D1A",
"-  c #191F1D",
";  c #15221D",
":  c #19221E",
">  c #172521",
",  c #192622",
"<  c #172822",
"1  c #1B2A25",
"2  c #1E2E29",
"3  c #1E312B",
"4  c #202926",
"5  c #212D2A",
"6  c #22322D",
"7  c #28322D",
"8  c #202F30",
"9  c #253531",
"0  c #2A3633",
"q  c #263933",
"w  c #293B36",
"e  c #2A3738",
"r  c #273C38",
"t  c #2C3D3A",
"y  c #313636",
"u  c #323F3C",
"i  c #573B33",
"p  c #3A5324",
"a  c #3D5528",
"s  c #3F582B",
"d  c #2E423C",
"f  c #32443E",
"g  c #31483F",
"h  c #0E6439",
"j  c #684513",
"k  c #4C472C",
"l  c #41582F",
"z  c #425C31",
"x  c #192951",
"c  c #2F3F40",
"v  c #343D44",
"b  c #0B1074",
"n  c #2F4441",
"m  c #324541",
"M  c #394644",
"N  c #354A44",
"B  c #394B46",
"V  c #324649",
"C  c #354B48",
"Z  c #3A4E4A",
"A  c #375149",
"S  c #3C524C",
"D  c #3E584F",
"F  c #3B4F51",
"G  c #3E5451",
"H  c #3F5951",
"J  c #1F7048",
"K  c #22724B",
"L  c #31675E",
"P  c #384561",
"I  c #346B63",
"U  c #3A6C64",
"Y  c #3A726A",
"T  c #404F4E",
"R  c #5B4C44",
"E  c #40534D",
"W  c #5A5C44",
"Q  c #5E5A4F",
"!  c #444F51",
"~  c #425653",
"^  c #495556",
"/  c #435A55",
"(  c #4D5852",
")  c #425559",
"_  c #455C5A",
"`  c #495F5B",
"'  c #505C5E",
"]  c #477E4E",
"[  c #47615A",
"{  c #4A625D",
"}  c #52625F",
"|  c #746B48",
" . c #617D5D",
".. c #5D4565",
"X. c #5C4C69",
"o. c #4A5D67",
"O. c #405069",
"+. c #415A6F",
"@. c #5D516C",
"#. c #615E72",
"$. c #476060",
"%. c #4C6462",
"&. c #4E6964",
"*. c #4D6669",
"=. c #4F6B68",
"-. c #546564",
";. c #536A66",
":. c #546D6B",
">. c #5B6D6B",
",. c #55716C",
"<. c #5A726D",
"1. c #566F72",
"2. c #5B6B71",
"3. c #567372",
"4. c #5C7574",
"5. c #5D7975",
"6. c #5B7578",
"7. c #5E797A",
"8. c #6B6B63",
"9. c #626B6B",
"0. c #61716E",
"q. c #656477",
"w. c #67687A",
"e. c #657572",
"r. c #637B75",
"t. c #697976",
"y. c #637C7C",
"u. c #6A7C7B",
"i. c #B44026",
"p. c #B2482B",
"a. c #24A61E",
"s. c #1CBC23",
"d. c #2BA628",
"f. c #23BA2C",
"g. c #7D912B",
"h. c #518656",
"j. c #72AA5A",
"k. c #55847F",
"l. c #5F847D",
"z. c #64827D",
"x. c #69827E",
"c. c #69887D",
"v. c #708D78",
"b. c #35CC6F",
"n. c #39CC74",
"m. c #92BC23",
"M. c #90B939",
"N. c #839E47",
"B. c #93BB4B",
"V. c #18278A",
"C. c #5C7786",
"Z. c #5F7D82",
"A. c #637D81",
"S. c #697E82",
"D. c #727D87",
"F. c #727B89",
"G. c #109595",
"H. c #139F9B",
"J. c #2FA29F",
"K. c #5A9A80",
"L. c #658281",
"P. c #6A8484",
"I. c #6A8884",
"U. c #6A8689",
"Y. c #6E8B8A",
"T. c #728683",
"R. c #708A85",
"E. c #738D8D",
"W. c #788D8E",
"Q. c #75928E",
"!. c #7B918C",
"~. c #7B8592",
"^. c #738D91",
"/. c #749294",
"(. c #799392",
"). c #7F9B94",
"_. c #739199",
"`. c #7C959A",
"'. c #7D9A9B",
"]. c #72AB8B",
"[. c #7C9BA2",
"{. c #829A96",
"}. c #889F9B",
"|. c #85A19E",
" X c #8BA29F",
".X c #829DA2",
"XX c #83A3A3",
"oX c #89A4A5",
"OX c #83A8A0",
"+X c #86A1A8",
"@X c #8CA5AD",
"#X c #8CA9AB",
"$X c #9DA9A5",
"%X c #97AEAC",
"&X c #8CABB3",
"*X c #91AFB6",
"=X c #9AADB1",
"-X c #97AFB9",
";X c #96B2B4",
":X c #9BB3BA",
">X c #AFB9B6",
",X c #B5C2BD",
"<X c #95B8C1",
"1X c #9DBBC3",
"2X c #AFCED3",
"3X c #C9D7D1",
"4X c #D7DCDB",
"5X c None",
/* pixels */
"3X,X$Xa.| h.M.l p g.v.B.W f.: p.= 1 q + $ [ 1 : ; ; * : @ g ( < ; 1 : & $ # 4 < : * @ = o - * : 1 ; ; + & 4 + 1 b.= ; : G.o & 7 ",
"= < $ I w.e.0.8.O.X.A l.% 6 6 ; ; $ < 1 & o g < # # + . @ @ # # : < + + & & = O o o # & * + * 2 1 6 < = = # > X g * o = + . f c.",
"; 1 = ; = $ $ d !.1 = < = d < # + O # = o o   7 ; 7 0 : o * - @ # * 1 $ & . & o * & o = & 7 q 1 1 > # d = ; d d 7 - # $ # o T.t ",
"% = . 6 ; g S 6 $ q ; w O $ 1 ; %.d 7 & o .   o ; o + O @ o o @ # & v.; # 0 o 4 &   E 4 B $ = w A 6 A O q $ 1 7 * > > $ # o &X8 ",
"< * = # ; 2 6 X 1 < ; Z d { < , : ; $ . -   @ & o + * * @ # * @ o w c.w ; < . + & = @ . f : *   g = 6 q d d 5 ; + 6 # < X $ ;.= ",
"# = # # # # S ; 2 ; g > E 6 R.w : @ = O - y o X o $ @ o & o o o + z.; 6 6 ; = 2 o & . = 1 + & * $ 7 O 1 6 ; + < ; : < = 1 < > > ",
"2 1 $ 5 = 5 6 ; / ; / &.t <.C ~ M : 8 Z { 1 8 = * o * * : + - & + W.; ; + = = * & + & & = = - & # 6 # = 1 3 = = $ 2 ; O N # = = ",
"E 6 B : $ A # < =.=.2 % ; 1 w > e :.'.G =.t $ o & = = o & & & = S W.; & B d $ $ < + X = * = 4 * # > 7 < + < 6 3 ; + 4 ; # :.> > ",
"; # ; . 0 A A D % q ; # = < ; + + [ I.F $.'.= < 1 * ; & = =   $ , Q.> $ 1 > ;.6 # = $ ; ; X * = o # 0 q 5 = & = * + = * o c., y ",
"* ; > L @.0.t.R P D.N h 6 ; = & 1 < ; = I._ r.Z & z.6 @ &   o   e `.$ = t 2 n d ,.$ ; 6 : * : + : O = $ 4 * * * ; 4 * = X f 6 6 ",
"5 = 1 6 > 3 6 # f 3 < = 6 : + + 1 # ; $ < X # r.; w 4 9 - o & & W.Z = = X $ A ; % , d 2 6 # = = + = 1 B o = = . : & : 7 = 4 O ; ",
"+ 0 = g = 6 % 6 $ S = 3 < + * * # 6 3 # = , = 6 4 & $ @ o &   S./.Z Z 9 q # 6 + N 1 [ q ; # = # $ > & f 6 & ; + + * &     = * * ",
"o . 5 : d 6 6 ; 3 1 3 = 1 ; & ; ; ; d # : & & & 1 5 w 5 = + 1 A.&X= + + # , ; t ; @ 9 $ # = * * : + = $ ; = 7 w : - & o & = & 1 ",
"o + 1 = 2 % < < ; 6 3 = : : = N # # + 1 = & + = + @ 5 @ % , ;..XT , # @ , & $ 2 $ = B 2 d + ; $ 1 # 1 < 6 1 # O 4 . & o y = & $ ",
"* 7 + 1 ; 2 < + q q ; : <.< = O & * ; # # 1 @ & o . . & q 2 '.(.# & e : * = 0 2 O $ ; , $ 9 $   < ; : 5 7 7 & & . - * . , * 6 B ",
"+ O A 1 ; $ = $ < 3 < d g A 6 0 * < = w 0 = + . : 4 ( T / $ 2.7 & # *   - / u.O O $ = > + 2 = 1 O # = 1 = & & X * * *   - < 1 P.",
"; - X < q 1 X 6 d D 9 ; < 6 ; ; < 3 H Y.H 6 =   ; : E o 4 -.G < * - o & 8 (.o 4 1 $ < 3 $ 1 ; 5 X > 7 = o X @ 7 $   5 $ # ; = # ",
"1 X E x ; < 2 * ; / < 3 d # ; ; 1 d 3 % q d $ # & 6 o o + # T <.5 - = # & ^   o 1 1 6 ; ; = 1 < 3 > = q -.t $ @ @ @ 2 + # 2 N C ",
"X #  .w $ 5 = # < / ; 3 < 6 $ 6 r 6 < d # d % = + = O = & o !.< $ X @ < >.6 = > = # = $ # ; + = 3 # ; ; @ & X @ & o %.= = > # e.",
"* * B = w = & ; = n S _ C 3 g 1 ; r q 2 r N z.1 6 : + # ; . Q.+ u = = e >.. @ z.= O 1 ; $ = ; # 1 # # 0 & & * & # & > e Z 8 ^ V ",
"- X < 3 < 6 # + 1 r 3 3 Z C 9 > # d ; < d A 3 5 d 2 = = @ ! u.$ o X ,   F X o F # 0 & $ # = = # = & : o d + = @ X f > ^.Y.o = 5 ",
"X / d = < X ; + ,.D ; + : n 2 @ 3.< $ % 1 d = < = 1 F Z = +X> & o   X @ = o o 7 N g . = 2 + O : . X = X # : . M f : o.^.) = = & ",
": q q ; d X { 7 &.1 1 3 N 1 { = 2 ; # < O O O 6 Z P.g 9 `.1X# = @ & X } o o $ e / + # # = & 8 = * + 7 d * t ;.r o # G - & w * 4 ",
"+ g < d ; 1 1 d :.n > # 2 1 C , d < 6 % % ; ; R.# 1 # / *.9 { x.u   X v & o @ <.).6 g # < = o = * + ,.1 + + 5 m 2 5 $ + > ; $ & ",
"* 6 = = * * # 5 * 2 [ 9 2 $ 2 # 3 # 3 $ 8 P.*X6.n %.9 = ` <.# o & X 5 & 8 @ 1 c >.$ > & = # 9 % & E = : ; = # < t Z f B q ; 4 & ",
"q 2 q $ = < 6 d , m r.J.A > > n N d D [ `.+XV n _ 5X= 6 & oX5X@ & & f H = Z , # + $ $ = 5 S , $ 1 o ; b < < ; $ % + 6 4 & 1 3 & ",
"< ; 5XY X.0.u.Q +.F.Z  .3 n q 1 d n w v `.2.Z e = = # = o & o @ @ o = $.G A @ = $ ; = % $ 3.S 3 = o & + & 6 = $ * & $ + & . + * ",
"; ; ; $ 0 Z f 2 H m = 1 = $ C 1 H t 6.;XQ.= ; = 9 $ < $ o   5 @ : + t ,.< 0 7 : > 1 $ w = M 6 w + o 6 1 ; # = # @ $ * & @ 4 * o ",
"$ g 1 6 < = d e [ $ g N 9 d 9 G '.^.:X^ = @ > > Z w = $ @ y / ;.7.! ' %.= d . 6 < N # A < %.&.,.# * o E # = O = + Z e o o } - 5 ",
"+ 7 # N < u.  0 9 C 5 @ >.N ~ ) F `.-.  o X . & ; X = =   =X|.o 2 , & 7 & & = > 1 A 9 [ 6 $ ; &.$ ; . & + = & & # 8 = @ e.o 5 & ",
"e.S O 2 { @ o = 8 N m _ $ , # T 4 ;X~ 4   @ = o * = = = @X_ 0 o & X & 1 = = 5 $ 4 1 6 # < * X 7 = o . 4 % < = 4 f o M $ & - o X ",
"$ R.[ #X2 o * * e Z > w 9 $ 2 = o.< = @ # & 2 # 9 ` E.;Xe > @ + & & = e > = > = w ,.1 6 = # + $ 2 4 & 1 ; ; # = : %X& & X o u * ",
"1 7.2 9 M q , + _ # d = % 2 q L.# 4 1 + = 1 t 2 e :.{ r.o # 1 1 @ & 4 - , ; 1 4 : {.7 = = < 2 : ; 5 d 1 5 : B #  X= * o @ y & @ ",
"& S (.Z N $ [ m w # w 2 > S *..X2 + / ; B 9 1 < 4./ = 7 = 1 & $ , o $ = # > & 4 4 . @ X ; @ 6 w < < 1 ; * < [ B = o # o o . o 7 ",
"+ w X 4 5 > % % f w = $ # t @X@X6 = : # 7 O / -.:.o d g = * + =   & - - # = , , & & : # * + < 0 : d d 6 = = & + : # 4 * 7 &   ; ",
": 1 + / o < % $ < $ 2 ; 1 t &X8 : * B d w X   = ; = O g 1 # * > , > = X *.# F =   = 1 w 1 o ; > 0 f + C / # + X + & . E X @ u = ",
"7 1 ; 1 B u > E # # : 0 + 2 T.9 = 6 0 ; =   0.5 # $ = X 5 = ; # = % = 2 :.= > # 5 & Z : 2 3 d 3 ~ & 1 g 9 1 ; & . * & M & + y # ",
"= ; m > y.1.y = * * 1 X = 7 r 1 d < = = = >.; + = # ; + O $ & # % % ; & = . = , <.& , B , # *.[ O & < > q ; * 1 o # - & & + 6 * ",
"d 3 g G m :.T o + * + & & 1 = = = $ ; ; 6 { 6 $ 9 - & o # d $ $ # # = & &   5 8 9 6 2 = 3 N 2 g 5 d ; # = 6 6 O ( < @ T & + * : ",
"d N G n M _ !.X @ + : : > :.8 ; % = q q ,.1 q 7 = * @ + + < ; ; ; ; @ X w 5 : C D 2 # * d n $ : = 2 < d d ; q > w < ; g w * * : ",
"q n 9 6 / / D 4 = !.5 & 2.E., > % 3 1 N + > ; d ; ; * : # q 1 > $ * + o T * 1 3 = < w ; < 6 O : # ; d 3 w < / ; 1 < = 1 7 # / $ ",
"; d $ # 2 / 6 ;.;.o @ 8 :XS ; = d 1 < q 9 $.%.Z & = = : < w g = * # @ . , = 6 y.z.=.2 = ; 3 1 2 d < 3 ; ; < d d g $ < = = 9 > : ",
"; m ;.I./ q &.A.y.& & 9 y.C 6 9 j.1 < w XX5X2 $ V.].= [ O < < q . * 4X>X$Xd.j ] M.l z N.p m.k s.7 i.; w ; < 3 2 2 w d O $ 7 1 - ",
"2 R.Z %.V Z %.G ;.# % :X1 3 = q ; O / ;.Z = $ $ 1 f n.O 7 6 H.# 1 ( B 4 * U ..v.9.i P q.c.J 1 6 < $ < # % ; % 3 ; < = 1 # 1 w & ",
"7.= 1 n S.y.N = Z e.^.A.2 q 3 d 6 y.>.4.= ; ; + 6 % # < = > 3 3 1 [ % # 2 = : < 1 O ; $ 6 g A d 3 + $ $ 1 3 f 3 ; 5 = ; X E < d ",
"2 $ # A > Z 9 t m V S.+X1 2 g ; S P.'.< < 1 2 0 ; < = = $ = ; < N 1.; f 5 q = 5 o 2 = ; = ; # ; ; = < 1 1 ; d ; 6 q d q 6 d 2 d ",
"$ $ e q F t 2 G <.[ $.7.t q = $ XXy.; * : ; < * % ; 1 d r d < 1 n 3.1 < A < 5 < 6 6 ; < 3 3 : ; $ > 6 &.N + d d A 3 = ; 1 # <.= ",
"= 5 ;.4._ 4 / / &._ _ ) y.q ; $ *.9 1 < O w & = # $ ; 1 < 6 < ; %.%.< C 1 1 d d 1 r.w ; 2 ; # 3 S _ &.3 2 1 w ; 1 < 6 N : : d + ",
"8 2 e &.2 B   [ L._ m = 4.y.c 4.&.6 g ; % < < % 1 ; ; + = 1 < % U.y.q F . , 2 g t 6 Z E 8 $ % A # 9 g A 3 < q d < 3 < % ; $ < # ",
"m >.Z S 9 e + Z G n { = ,.6.6.E.3 9 $ ; g 1 ; # ; 6 # $ 3 < $ F ^.7.&.2 # 9 - 2 w 1 X 2 1 2 9 q 9 3 q 3 r g 3 3 % < < % % $ ; # ",
"N f e t 9 9 , / _ e = B e U.e .X; 1 6 d 1 ; D 3 ; ; ; % , % 1 ^.U.{ H q > o d 2 C E Z w > r { < D < 9 < 3 g < 3 < 3 < $ ; + % d ",
"1 _ 8 m ~ o 2 m d < > < 0 V ) .X# 6 2 2 % 3 N < w ; q q 3 q 2 [.*.%.9 > A L.~.|.t.R C.#.N K g 3.g 3 2 g D % r 3 q < < 3 = 6 = [ ",
"; w E N = 0 y._ N ; 6 : 5 B E {.$ 6 1 g 6 9 1 q q < < = 1 # U._.7.[ r [ <.d > N / w Z ; ; 3 g < < < q d < 3 r d = 0 ; 2 +  XB Z ",
", < # : 6 [ _ 9 0 # g 6 $ N n N n G / , 3 3 9 1 w : 9 ; 2 / [._.$.%._   q w g A w ; Z > E g D d < ; 9 3 9 d ; 3 < < ; # 1 { r.o ",
"* * & = ; f ~ d ; 2 + N 6 / Y.2./.L.y.1.4.< q N < < < < N _._.7.*.2 3 1 2 < > ; : 6 q < d . $ OXN < d q A q ; 3 6 6 f 2 Z }.> m ",
", & B N ; N N 2 ; ; 2 S 2 e %.q F H L.*.,.L.V $ = + = g z._.Z.1.U.$ < 2 6 ; 2 % = # Z 2 = 6 6 5.< 5.= 3 q q ; $ 6 3 g ; ; # $ /.",
"* = C Z 1 q , 6 = { Z [ P.W.;.5._ H G V A.F t r H $.$ $.^.[.*.6.N = 3 3 % < # ; $ : $ $ ; ; g X 6 B / 8 < > 1 C 6 r d = = N S y.",
"& Z Z / C e 1 T q d 4._ %.;.q m 2 7 D A ^.6.H F 1.$.$.^.Z._.6.Y.> > r < 6 ; = ; w = + q > < ; / 9 = 9 6.P.3 H = ; % ; = $ OX+X; ",
"8 5 d 1 q _ t 9 / 0 ; ,.<.4 9 d ; < &.o.L.G C.*.F V r H L.D e E.1 9 t ; ; A ; : # & ; q $ q 6 = d + 1 $ , I.G e d # ; ; = -X1XO ",
"m 4 2 w 6 9 = 1 # 1 * 1 9 < 2 < # = B A.XX:.$.$.[ :.%._ [ _ &.[ # 3 t ; 2 x * # & + < 6 6 6 < X E : = = $ > , y.[ : % < 2X1X&X,.",
"X _ S / N & d & Z r.< w 2 / ;.9 q > c 6.F 1.H H =.L.) %.O F 1.3 3 ; ; X 6 # 6 + ; # = d [ : 4 g w X 4 = = , > = o >.&.7.*Xo.<X# ",
"> = , S w 8 d S M G S > %.q ) 9 9 = % %.$.U.F A $.=.H { q [ g > 2 < = d 1 # 3 g S ; $ q : < X : + O = o = o = # 9 7._ _ + `.@X; ",
"& = , d Z [ , 4 9 N Z <.B 1 S / 1 > t r r 9 '.,.G _ ,.= < |.6 < $ 3 d 6 6 g = 6 5 q # D ; = $ ; = < * & 2 q / t / > r = # :X[.# ",
"* = M G G 2 ~ ` m n w :.) < 3 q > >.C # O % $.*.G d =.d D Q.< # 2 6 ; 6 1 ; 5 # 5 1 ; = = 7 d 3 7 2 : ; 9 n 2 t > , r , > @XF , "
};
