/* XPM */
static char *_bb5f0c9cdd34fe482f435e7aed0bbd6[] = {
/* columns rows colors chars-per-pixel */
"76 59 256 2 ",
"   c #030203",
".  c #060C0A",
"X  c #0A0B0C",
"o  c #060807",
"O  c #120D0D",
"+  c #0B130C",
"@  c #0A160D",
"#  c #13140D",
"$  c #171A0D",
"%  c #0C0E11",
"&  c #040617",
"*  c #0D1313",
"=  c #0D1B13",
"-  c #0D1919",
";  c #131413",
":  c #141C13",
">  c #1C1C14",
",  c #141A1C",
"<  c #1C1C1A",
"1  c #161518",
"2  c #261B19",
"3  c #37121D",
"4  c #2F1313",
"5  c #172517",
"6  c #1A3617",
"7  c #142511",
"8  c #23231C",
"9  c #282618",
"0  c #35271C",
"q  c #273819",
"w  c #383A1B",
"e  c #2B2C0D",
"r  c #181D23",
"t  c #080A2A",
"y  c #1B2426",
"u  c #1C312A",
"i  c #292826",
"p  c #362B25",
"a  c #2C3426",
"s  c #383529",
"d  c #282D33",
"f  c #2A3636",
"g  c #363836",
"h  c #392E32",
"j  c #381A21",
"k  c #4C3318",
"l  c #4D1A25",
"z  c #472924",
"x  c #473829",
"c  c #573A28",
"v  c #473B35",
"b  c #573A35",
"n  c #56272B",
"m  c #762835",
"M  c #70302D",
"N  c #651B28",
"B  c #2A461A",
"V  c #37471A",
"C  c #37581A",
"Z  c #34490D",
"A  c #284525",
"S  c #394725",
"D  c #374C34",
"F  c #045B2E",
"G  c #48481A",
"H  c #584919",
"J  c #465918",
"K  c #535714",
"L  c #6E5316",
"P  c #506B16",
"I  c #686918",
"U  c #7A7618",
"Y  c #6A7013",
"T  c #474629",
"R  c #564829",
"E  c #585528",
"W  c #484538",
"Q  c #574535",
"!  c #595737",
"~  c #48552D",
"^  c #694729",
"/  c #764827",
"(  c #644935",
")  c #695838",
"_  c #785739",
"`  c #71572A",
"'  c #576725",
"]  c #676627",
"[  c #7A7627",
"{  c #686639",
"}  c #77763A",
"|  c #746B30",
" . c #353D47",
".. c #020240",
"X. c #3A4347",
"o. c #364F55",
"O. c #494847",
"+. c #585848",
"@. c #4C5257",
"#. c #575958",
"$. c #4E4E4C",
"%. c #775B44",
"&. c #67574D",
"*. c #5E644F",
"=. c #656947",
"-. c #777947",
";. c #767958",
":. c #6E6C51",
">. c #4F5666",
",. c #5A646B",
"<. c #666A68",
"1. c #767A67",
"2. c #6C7379",
"3. c #75797A",
"4. c #696D72",
"5. c #625F61",
"6. c #743344",
"7. c #893934",
"8. c #973A38",
"9. c #8B3233",
"0. c #A3282D",
"q. c #8F7016",
"w. c #AD7717",
"e. c #8A472B",
"r. c #96492E",
"t. c #895925",
"y. c #98582A",
"u. c #964834",
"i. c #865839",
"p. c #945034",
"a. c #A45A2C",
"s. c #A65735",
"d. c #A94E33",
"f. c #886528",
"g. c #986725",
"h. c #8F712E",
"j. c #A56A29",
"k. c #A87827",
"l. c #B27B27",
"z. c #A76634",
"x. c #B46B35",
"c. c #B27232",
"v. c #825E18",
"b. c #C87332",
"n. c #C27B0C",
"m. c #973743",
"M. c #896845",
"N. c #907255",
"B. c #A36951",
"V. c #C86E49",
"C. c #748B16",
"Z. c #76872A",
"A. c #7D8559",
"S. c #7A8444",
"D. c #7D826E",
"F. c #7AAF5C",
"G. c #968818",
"H. c #8A8B15",
"J. c #B3861D",
"K. c #AC9619",
"L. c #B3AC17",
"P. c #888529",
"I. c #9A972A",
"U. c #888737",
"Y. c #928D3A",
"T. c #989637",
"R. c #958D27",
"E. c #B68824",
"W. c #A49C28",
"Q. c #A39B36",
"!. c #AF8A30",
"~. c #AAA62A",
"^. c #B6AA29",
"/. c #BCB328",
"(. c #A9A538",
"). c #B6AB37",
"_. c #B9B237",
"`. c #95A61B",
"'. c #CB8D14",
"]. c #C9B91A",
"[. c #D3B513",
"{. c #C79629",
"}. c #C4912E",
"|. c #C7B926",
" X c #C6BA35",
".X c #D2B427",
"XX c #DAC617",
"oX c #D4C611",
"OX c #E2CB0E",
"+X c #E2CB13",
"@X c #E3CD1B",
"#X c #E4C919",
"$X c #E5D21C",
"%X c #EAD41C",
"&X c #EDD91C",
"*X c #E8D515",
"=X c #F2DB1C",
"-X c #E7D70B",
";X c #F6E41B",
":X c #D7C626",
">X c #D8CA38",
",X c #D5CB33",
"<X c #E5D322",
"1X c #EAD522",
"2X c #EDDA23",
"3X c #ECDB2C",
"4X c #E6D62A",
"5X c #F1DD25",
"6X c #EADA35",
"7X c #E3CD24",
"8X c #F5E326",
"9X c #F7E736",
"0X c #EEE032",
"qX c #878847",
"wX c #989645",
"eX c #878958",
"rX c #989757",
"tX c #8E8F4E",
"yX c #A89350",
"uX c #AAA644",
"iX c #B3AE4F",
"pX c #868866",
"aX c #959668",
"sX c #868A77",
"dX c #919271",
"fX c #AE926B",
"gX c #AEAC74",
"hX c #9EA35A",
"jX c #C7BB4B",
"kX c #CC9B5E",
"lX c #D4C849",
"zX c #E7D842",
"xX c #CEC771",
"cX c #9AC94A",
"vX c #747B84",
"bX c #677889",
"nX c #567286",
"mX c #365383",
"MX c #9D7F85",
"NX c #7B8388",
"BX c #7D8592",
"VX c #7097A9",
"CX c #7AB5DE",
"ZX c #848A87",
"AX c #848C94",
"SX c #8C9499",
"DX c #939890",
"FX c #AAAE93",
"GX c #939BA7",
"HX c #ABB2B4",
"JX c #A1A29C",
"KX c #CDD2D1",
"LX c #E8F0F0",
"PX c #DCE7E8",
"IX c #C6BCAB",
"UX c None",
/* pixels */
"jX4X3X$X7X1X%X%X%X%X=X=X%X&X%X=X1X%X%X#X%X%X%X=X%X%X=X=X%X&X2X=X=X%X%X%X*X*X&X*X#X%X-X+XOXOXOX-XOXOX+X*XOXOX+X+X=XOXOXoX@X+X+XXX[.XXXX+X+X#XOXOX[.OX[.[ ",
"h.].@XXX#X7X#X7X1X1X1X4X7X#X*X%X1X%X%X%X%X=X%X%X=X%X=X%X&X5X8X9X9X0X3X9X9X8X=X=X5X3X4X=X#XOXOXOX*X+X#X#X@X+XOX+XOXOX+X#X+X+X+X+XOXXXOX[.[.[.[.[.[.oXL.U ",
"q.].@XXX#X%X<X<X1X7XzX1X1XXX#X#X2X2X%X%X%X%X=X=X2X5X%X=X8X6X XwXM.{ { } Y.uXlX9X8X5X2X&X&XOX-X%X%X%X2X%X#X#X#X#XXX+X+X#X$X1X#X[.#X#X+XXXOXOX[.OX[.[.'.q.",
"G.].@X:X/.).:X:XL.Q.(..X/.!.Q.|.=X1X&X&X%X%X#X=X=X5X=X6X X| x 8 : % X O < 9 R yX6X8X*X*X*X+X#X%X1X%X2X%X%X7X%X#XXX#XXX@X$X#X{.b.#X&X#X+X[.'.'.[.oXoX[.H.",
"G.].@X.XtX*.U.P.| ! ) [ | +.=.Q.%X5X5X5X%X=X*X&X%X=X6XyXs +                   < } zX;X%X*X$X1X2X1X1X%X%X1X1X%X7X7X7X#X1X%X.Xd.8.E.K.J.L.w.r.b.[.oXXX[.G.",
"G.].:X(.N.5.W W ! W ! ~ W o.@.Y.%X3X3X5X=X*X=X&X=X5XyX9                         # { 6X=X&X&X2X1X1X%X$X1X1X1X1X1X%X1X1X1X#Xn.0.m.M k n M l m d.{.[.#X[.K.",
"I./.iXyXqX5.@.O.$.+.$.O.X.>.5.qX|.=X5X5X=X=X=X=X5X).0                             # } <X;X*X2X2X1X$X&X2X4X1X1X%X#X1X1X%X{.d.m.6.l 4 l N N m m.}.[..X.XL.",
"M.hXiX_.wX4.,.5.=.} =.@.,.4.pXN.R.=X5X=X%X%X%X;X:XR X                               9 Q.$X&X2X5X2X5X2X5X3X5X2X1X%X7X1X#Xb.8.u.6.n N M 9.m N 9.z..X7X.XK.",
":.iXlX).Y.pXpXSXdXtX1.2.1.D.aXqXU.:X=X1X1X2X=X<XR.O                                 o T ,X;X2X2X2X1X1X2X3X7X1X1X7X%X%X{.d.u.c.p.u.r.s.s.8.7.e.8.E.7X].G.",
"N.iX>X^.qXpXiXgXZXZX2.4.T.aXaXwXY.T.&X&X4X1X8X^.x O o o                               > wX0X5X5X2X2X5X3X4X1X1X%X7X%X.Xx.r.j.V.B.l.x.d.u.s.s.a.r.d.{.].q.",
"qX(. X^.qXdX|.hX3.vX4.:./.aXaXuXT.S.:X2X2X$X<X[ # o o               O O X             O { zX9X0X5X2X5X3X3X4X<X<X%X#X{.d.y.l.}.s.E.x.m.d.x.B.z.k.u.x.{.G.",
"qX). X^.qXdXjXeX4.4.4.1.hXdXaX).~.S.(.<X*X$X4X'                 O x i.i.^ j O o     o X T lX9X0X2X2X5X6X3X4X%X7X1X.Xx.d.j.E.V._ y.e.8.d.y.m.z.E.j.d.z.J.",
"qX_. X~.qXD.sX,.+.<.3.3.aXZXaX)./.T.Y.:X*X*X6X)               2 %.kXkXfXB.i.c O o X o X p jX9X8X2X5X3X0X3X3X<X2X7X}.p.z.J.}.c.n 2 z m 9.m m j.E.E.a.d.j.",
"qX^..X~.N.bX,.+.S.T.pX3.ZXD.pX(.|.(.T./.@X&XzX{ o           o z p.yXkXIXfX( 2 p z $ o X i iX9X2X5X5X5X0X3X3X<X2X:Xz.s.z.E.}.x.n l c M 9.m 9.j.J.E.w.a.d.",
"Y.).).tX1.4.<.S.I._.uX1.AXBX1.wX].I.T.(.:X-X6X-.O     ..    X z M.kXkXgXN.v p _ i.x X X i iX9X5X5X5X3X0X3X3X2X4X}.p.z.c.!.}.x.m e.z.g.u.9.m.x.J.l.J.w.d.",
"wX).tX:.;.vXAXgXwX/._.;.AXAXZXhX_.W.I.Q.|.+X5XY.2             0 i.M.%.N.N.+.b N.B.^ # X p jX9X8X1X1X2X3X3X3X3X.Xs.p.l.j.!.}.B.6.s.E.x.u.8.0.c.J.l.w.J.j.",
"tXeX;.M.tXsXGXJXsX_.uXD.NXNXZXaXhX~.I.T./.oX;X_.x             0 ^ x 9 Q fXfX_ ) _ ( 2 % ! >X8X3X2X$X2X4X4X3X7Xl.7.j.E.J.k.x.m.6.t.y.s.r.7.9.x.l.w.J.J.'.",
";.-.qXT.rXeXD.DXSXgXaX<.D.D.A.aXeXwXT.`.I.|.*X,X} X           O z x x ) N.fX%.0 p x 0 2 T.0X0X5X2X1X<X4X3X3X{.8.u.E.E.k.a.u.m.l j n M M N m 0.a.l.l.J.J.",
":.uXQ.wXrXA.S.aXJXGXZX<.S.dXD.eXeXA.uXL.T.~.$X&XuXi o           0 ( N.N.%.Q ( i 9 p s !  X9X0X2X4X4X<X6X0X.Xz.u.g.J.E.z.u.u.p.n 0 k M M N m 9.r.a.l.J.J.",
"wX(.Q.wXrXA.} aXSXGXSXD.hXsXD.S.tXtXaX(./.T./.;X,X:.1           > c B.B.Q > x ( &.Q p -.>X8X4X4X<X<X<X3X>Xl.r.j.g.J.!.d.d.s.s.6.t.w.g.e.r.9.r.9.8.a.J.E.",
"wXQ.Y.wXrXA.D.DXNX2.BXJXDXsXD.A.qXrXF.tX XT.`.,X;XjX*.,         O 4 c ) c 2 W MXfXb 2 { :X;X7X$X$X$X1X4X}.r.p.E.j.k.a.8.a.j.i.%.k.E.!.g.p.7.p.y.r.8.d.E.",
"rXI.P.Y.hXZXSXD.A.hXeXbXHXSXD.F.S.wXaXA.(.~.T.~.&X&XlXpXh UX  o   o UXz b p &.) z 1 ; G R.L.7X6X<X4X=X.Xa.7.j.l.j.c.p.u.a.y.b _ k.g.f.y.r.9.V.c.b.x.d.b.",
"iXuXuXuXhX2.4.rXuX_.T.D.DXAXpX} Z.hXA.A.A.uX~.(./.-X8XzXuX} ' s 2 > G R j 9 2 > O % O 2 > > G W.2X8X1Xj.r.p.k.J.g.p.e.%.B.i.c b Q x R e.r.9.r.g.g.y.e.8.",
"S.Y.U.Y.rX4.;.).iX~.(.qXA.BXsX-.S.hXS.S.A.aXuX`.T.oX-X-X&X6X>X_.Y.[ ] p 2 2 ; O ; 2 0 < X X O x P.L.h.M r.j.k.l.y.8.e.%._ ( x p j i p k n m r.g.g.g.t.y.",
"qXY.Z.T.aX2.FXiXhXuXuXA.dXBXdX-.} hXS.S.qXD.hXT.I.~.oX-X*X-X-X;X;Xq.> X # 0 0 z v ( ( j < y , & 8 T 0 z / g.c.z.9.7.e.^ x p p 2 8 0 2 2 3 N p.g.g.g.g.l.",
"qXU.U.wXrX4.JXFXtXtXaXNXSXvXsX-.} rX} S.A.A.A.A.T.S./.$X*X$XoXL.K @   o 2 z ( M.B.M.&.&.d y d * o % 1 , < T p.8.m e.r./ x p x b b z p z z m r.j.g.t.q.w.",
"qXU.Z.wXaX:.aXJXZXAXNX<.:.DX3.+.' M.{ -.S.-.=.A.A.S.wX|.OXK.G # o + o % O.sX<.DXHXIXKX4.1 % 1 % o % , r , ; 2 l M r.y.^ Q b p &.N.( c e.7.u.p.g.g.g.g.k.",
"tXU.U.wXaX;.hXdXBXVXD.=.U.DX5.v Q :.{ } F.=.=.A.A.rXF.wXH.V @ o o , X X  .HXKXKXPXPXHX .% X o o X X 5 5 u , % O k e.y.^ _ &.z Q N.%.` t.u.8.p.g.g.v.g.l.",
"rXU.P.wXdX1.dXD.4.D.D.*.! +.O.b Q +.{ } -.=.S.<.1.pX*.D q 6 @   X r 1 X 1 vXPXLXPXHX@.r r % X X o + V C ~ C A = > c y.H ) N.%.b ) %._ e.e.8.p.j.g.t.g.k.",
"rXU.Z.qXdX2.D.<.S.pXD.#.i p x Q Q Q { } =.S.S.:.A.:.q 7 6 6 7   o * 1 & X i HXLXKX5., , r 1 * * % % q A C C C 6 O 2 / / ( N.fX&.%.( / y.u.8.p.y.g.t.g.w.",
"aXU.[ Y.pX,.5.-.T.(.wX=.v p x Q c v %.{ =.=.=.S.;.D @ = 6 7 o     o o o o % AXKXvX8 % X & X X % % o * = @ = 7 = X # c g./ %.gXMXM._ f.t.u.8.i.g.j.y.a.c.",
"pXS.P.wXaX#.=.T.(._.~.S.:.W v x x Q M.} { ~ =.S.*.7 . . @ +         o o o X @.GX .X X X X X X X X X % - - * @ + o O 0 g./ ( fXfX%.h.g.r.u.m.u.p.e.e.M 7.",
"#.*.-.qXA.+.S.Q.(.(.(.T.eX5.Q z R _ M.{ =.~ =.;.O.= o o % % @ . % % % % o o d X., o X % % % - * * * - r - r - X X @ 9 f.c v aX%.b _ y.9.m m 6.N l l 3 3 ",
"@.,.@.O.O.$.:.qXwX(.Q.Y.rXNX&.x b N.N.} ' ~ =.*.a %   X - r y y y r r - . o , % X X % ; , r r , r r r r r r - & X 5 8 c c c N.z j j n l 2 j 3 3 3 3 4 3 ",
"vXAXAXSXNX@.<.<.+.+.=.=.=.sX&.v %.fXM.{ ! =.=.! a 7 o o & - = = - = 5 7 +   & * . + 6 A A A 6 u u 5 5 - - - - . * 8 < 1 j ( N.x 2 3 4 4 l 3 3 l l N N N ",
"4.vXNXGXHXSXBXvXD.<.,.<.*.NX#.x ` fX%.T ~ S.=.D q B . o . = 6 C A C P J 7 o 1 y , = V Z.cXZ.Z.C.P cX' mXD VX= = * < , O 9 i.IXFXMX] 9.^ h.M p.z.z.E.r.R.",
"1.fX4.vXBXBXNXBXGXHXGXBXvXvX2.$.Q %.) x g +.+.g a V O + 6 Z P C.L.L.oX`.G o : f d > iXL.oX$X$XoXoXL.L.`.C.F.S.S.#.*.o.~ :.pXfXc l M _ c n n M.e.k.J.t.v.",
"|.D.4.:.*.$.$.,.BXVXSXBXSXNXSXBX#.x ( b h O.#.g , , + 7 Y ].-X-X-X-X-XoXY o O d y ; B H.].oXoXoXoX$X$X$X-X-XoXY * - r 2 b N.fXz l c c ^ | ( h.^ k.h./ L ",
" XgXkX>XgX#.*.-.{ ! $.@.,.AXGXAX3.#.Q %.v 2.2. .< , * > J H.`.G.H.L.L.H.G < o o X % 5 I `.C.[ ] C.R.L.|.].oX].I ; - 1 p %.N.%.p 2 2 p [ | M f.k./.g.M / ",
"rXFXgXlXgX,.<.rXW.P.[ { @.4.2.*.+.O.O.M.Q v g s R Q R T x a p a a S T T T s X % , ; + 5 a D ~ ! ! ! ~ ] H.`.C.w < 8 r x ! +.g O.g i r p x b _ R./.^.!.Q.",
"vXGXgXjXgXeXN.D.! T T T $.@.$.~ s i s b b x E t.U v.t.0 $ T H V S E ) ` ` a X r d y 1 < < y B Y ] ` q.` s 0 a 8 a E R s g ! ` { +.h i T x x c ~ R.:X|. X",
"pXsXhXjXxXrXT.*.g < y X.D W ~ T G s x H ` q.'.'.w.w.-.2 . G L q C J w H H ,   1 r y i 0 + = C P C S n.[ p r < : R k.H : 5 E E.{ O., 9 h.y.Q g g P.].oX|.",
").(./.lXgXY.I.T s 8 - u D C D ~ J Y C.H.K.K.K.w.q.w.X.8 # e G @ 6 e e e 7 * o . X X 2 0 . @ A J 7 5 k.I s d < @ S K L < + q k.( v * 0 '.t.Q d E `.[.].].",
":X:XXXzXgXR.~.{ $.i - u o.A u 6 A ' H.L.U Z B G I f.y y > e e o 7 :.5.:.:.! o.D #.F O s * @ 6 C G J I R h y : # 5 q ! Q : # ~ T 2 2 H g.W i y E K.].].].",
":X:XXXzXgXwXiXdX5.a ; - f , + + 5 A C.q.w : * = V [ s 9 e Z k o 7 V D ( ( i $ $ > # > p + . 6 P C.H.R s i < - = 7 q g >.h = 5 a 9 G ] $.g t r D G.].].].",
":X:XXXlXgXdXJXZX*.8 * * @ > : + o u ' K e G 9 . 7 Y f.V Z H.L > = q I ` c < 6 J P J w s + . A C.H.L ! y i 8 = 5 7 a a d W 0 + B C.q.)  .d r y h U /.:X].",
":X:X@X>XFXSXSXS.{ 8 = 9 a X.$.9 . = ! H x #.W > @ Z.J e B I ` e * B G.'.L * @ 6 B 7 7 x + . B P q.l.w.| R 8 = u 8 a d y O.x + 6 U h.h 1 3 d X.X.~ G.|.].",
":X:X$XzXgXZXHXdXW s p f @.X. .0 @ = ~ L a , d i = B e @ . q ` w = B C.Y w y @ e q 7 > w . . C C.H.J ~ j.H 7 = q Z S f  . .p > : L Q W ^ h o.bXo.s H.:X|.",
",X:X+X>XgXeXgXFX:.x a f @.o.d r = @ ~ L 9 y g 8 + S D i # $ H 0 * Z J e 9 9 X # # . > 0 . @ C C.P e + E G $ 7 P Y ' s f d f 0 $ E W ) q.f nXVXd W ~.:X X",
",XXXXX>XgXY.).FXsX*.X.s g @.X.< . = E v.s g x 8 @ I o.v $ # G 2 = Z Z e 1 1 # > X   < 9 . 7 P Y K e o w w 7 q P P Y s 2 f g e 9 ! Q ' ] f VXnXr ] :X|.|.",
".XXXXX XgXT.L.uXDXHXHX*.d >.b < . 7 K v.W r 0 9 @ I W p $ $ H $ = J K w , ; x R > X y $ . 6 P P f.R o V S w B 5 5 E T a $.v $ V =.Q w g ,.VXo.a H.:X|.|.",
",X:XXX XrXtXhXFXdXDXFXsX .f p : . q q.w.` y 8 9 = P h.e O Z H $ 7 P I w p ^ L x ; ; a @ @ B P Y H.Y $ S J V G H > E ` X.O.s : I f.x , y VXnXt ! ^.:X|.|.",
":X].XX|.pXsXDXdX{ W #.2.@.g 8 * - D h.n.t.v 9 > 7 C K $ $ K H 5 7 6 C I q.w.n.H 5 y 0 . = 6 B J C.C.K Z V B T x 8 ` f.&.h 5 A w.g.T r y ,.>.i | /.].|.|.",
":XXXXX/.pX3.N.] e w &.4.O.h ; - u A D D T _ 9 + = @ 7 7 = $ : = @ . o 6 J P q.H g f > + . o @ @ 6 Z P C 6 5 = > r T S 9 5 5 A R G Q g r y h R K.]./.|.].",
"|.].[.).pX3.{ e k s.B.5.x k : - u . o . * 8 + . q 0 + = 9 0 > + $ 2 $ o . 5 q 9 x k # e k x x 2 + @ B 6 = o . . 5 9 # . . O + + = 9 g v d j [ L.L.|././.",
"|.].oX^.pXO.8 z x.b._ p h 0 , - @ @ # @ + o   # g d > 9 g d 8 a X.i 9 > # X . 2 H c 9 p d 2 < i $ + + 9 8 8 < 8 i d 8 < 8 i a 8 ; o * p h h g.{.|.|.|.|.",
"|.|.[. X;.2 z x.b./ k w 8 8 @ % 1 8 d a < X + 8 i - 0 2 r r   r f X X r 2 O X 0 0 2 2 1 *     X < 1 ; i d 8 1 < < d i i h v b  .8 % O 2 h 6.k.].|./.W.W.",
" XlX:XjX#.> / x./ k I U 8 8 * UXp p g g UX0 w T s - G # o *   o hXt CXt % X X y ,   o 0.d t &   X ).1 |. X X:X7X|.iXd ).).).!.iXuX).!.yX!.V.c.:X4XW.q./.",
"lXzX6XxXgX1.N.!.{.|.$XoX^.).).^.y iXiXhX:.Y.|./.tXUX(.UXUXUXUXUX>. X5X#X%X5X7X_.|.;X7X.XgX/.7X%Xt iX:X:X X{.d.d.Q.uX).|.(.yXB.3.~ pXD.eX}.V.kX:X4X,X|.|."
};
