/* XPM */
static char *fec68f267a6246928cd97646ac4b40a7[] = {
/* columns rows colors chars-per-pixel */
"64 50 256 2 ",
"   c #030303",
".  c #040A06",
"X  c #060608",
"o  c #060C0A",
"O  c #0A0B0B",
"+  c #090A07",
"@  c #0B120C",
"#  c #09150C",
"$  c #16160C",
"%  c #0C0E11",
"&  c #070C10",
"*  c #0C1313",
"=  c #0D1B14",
"-  c #0D1A1C",
";  c #111315",
":  c #141B13",
">  c #1B1C14",
",  c #12161A",
"<  c #141B1D",
"1  c #1B1918",
"2  c #110E0E",
"3  c #261A19",
"4  c #3A141C",
"5  c #2F0E16",
"6  c #162618",
"7  c #1A3617",
"8  c #142810",
"9  c #23221C",
"0  c #2A2618",
"q  c #36261C",
"w  c #283A19",
"e  c #363419",
"r  c #2C2B0D",
"t  c #181D22",
"y  c #091327",
"u  c #351B24",
"i  c #1C2225",
"p  c #192626",
"a  c #1A2E2C",
"s  c #282826",
"d  c #372B25",
"f  c #283828",
"g  c #383529",
"h  c #272D34",
"j  c #2B3437",
"k  c #363637",
"l  c #322E32",
"z  c #473419",
"x  c #4E321A",
"c  c #511B28",
"v  c #701C2D",
"b  c #472B23",
"n  c #483628",
"m  c #583A2A",
"M  c #463A34",
"N  c #523A33",
"B  c #56262D",
"V  c #722F30",
"C  c #612F1C",
"Z  c #254416",
"A  c #3A5619",
"S  c #364714",
"D  c #294724",
"F  c #354B2C",
"G  c #3F6217",
"H  c #585518",
"J  c #4C4D16",
"K  c #6B5319",
"L  c #466917",
"P  c #5B791A",
"I  c #556E12",
"U  c #787719",
"Y  c #6C6B13",
"T  c #4A4826",
"R  c #574729",
"E  c #494537",
"W  c #574837",
"Q  c #565638",
"!  c #535629",
"~  c #664B38",
"^  c #745A39",
"/  c #6F502C",
"(  c #566730",
")  c #786725",
"_  c #666A39",
"`  c #75673A",
"'  c #6B753D",
"]  c #797836",
"[  c #6F7126",
"{  c #313B45",
"}  c #3C4649",
"|  c #354C57",
" . c #2D6A61",
".. c #474948",
"X. c #55584A",
"o. c #484B54",
"O. c #4C5358",
"+. c #555757",
"@. c #524E47",
"#. c #765A44",
"$. c #66534C",
"%. c #5D644F",
"&. c #676945",
"*. c #776447",
"=. c #767A47",
"-. c #686A56",
";. c #747557",
":. c #545B64",
">. c #5D6368",
",. c #546474",
"<. c #676968",
"1. c #767969",
"2. c #676D75",
"3. c #6C737A",
"4. c #757876",
"5. c #743444",
"6. c #8A3735",
"7. c #973A39",
"8. c #8A3034",
"9. c #A63537",
"0. c #8D5C14",
"q. c #906D14",
"w. c #B27A16",
"e. c #8A472B",
"r. c #875826",
"t. c #97572A",
"y. c #994436",
"u. c #885638",
"i. c #935131",
"p. c #A65737",
"a. c #A84D33",
"s. c #896828",
"d. c #996726",
"f. c #916E32",
"g. c #A86928",
"h. c #AA7727",
"j. c #B47928",
"k. c #B47034",
"l. c #C77712",
"z. c #CC7936",
"x. c #903543",
"c. c #A23045",
"v. c #A95044",
"b. c #896848",
"n. c #967859",
"m. c #8E724F",
"M. c #957A61",
"N. c #9A5E55",
"B. c #1EA41A",
"V. c #6E8516",
"C. c #759326",
"Z. c #7B8350",
"A. c #7D8379",
"S. c #7A8664",
"D. c #958519",
"F. c #8E9515",
"G. c #AA8F17",
"H. c #99A215",
"J. c #B6AA19",
"K. c #ACAC18",
"L. c #888428",
"P. c #968B28",
"I. c #868536",
"U. c #989738",
"Y. c #919434",
"T. c #B68823",
"R. c #AE952C",
"E. c #A7A62A",
"W. c #B7AD26",
"Q. c #BCB225",
"!. c #A8A536",
"~. c #B9B43A",
"^. c #B4AB32",
"/. c #D4BA0C",
"(. c #C8B919",
"). c #D7BD17",
"_. c #CFAA12",
"`. c #C6932F",
"'. c #C7B926",
"]. c #C5B836",
"[. c #D1AE24",
"{. c #D2890D",
"}. c #DAC717",
"|. c #D3C712",
" X c #E2CC0E",
".X c #E2CA13",
"XX c #E4CD1C",
"oX c #E5CC1B",
"OX c #E9D315",
"+X c #E4D21C",
"@X c #EAD51C",
"#X c #EED91C",
"$X c #E7D716",
"%X c #EDD816",
"&X c #D7C525",
"*X c #D2C734",
"=X c #E1CC23",
"-X c #E5D323",
";X c #EAD522",
":X c #EDDB24",
">X c #ECDA2C",
",X c #E6D52A",
"<X c #F1DD27",
"1X c #E9D937",
"2X c #F5E532",
"3X c #F2E019",
"4X c #878947",
"5X c #999746",
"6X c #868957",
"7X c #999757",
"8X c #8F914D",
"9X c #AA9256",
"0X c #A7A546",
"qX c #A7A557",
"wX c #B6B04C",
"eX c #868A69",
"rX c #979969",
"tX c #848977",
"yX c #96916F",
"uX c #AA956F",
"iX c #ADAB6C",
"pX c #9AA669",
"aX c #CF8E52",
"sX c #C7BB4C",
"dX c #C7AE71",
"fX c #D1C749",
"gX c #E6D842",
"hX c #F2E64E",
"jX c #D1CA78",
"kX c #F9F063",
"lX c #91C521",
"zX c #757B83",
"xX c #6D7580",
"cX c #557588",
"vX c #1333C8",
"bX c #847F97",
"nX c #2B8A87",
"mX c #7B8389",
"MX c #778694",
"NX c #8C939A",
"BX c #8D928E",
"VX c #9DA293",
"CX c #959DA3",
"ZX c #829AA7",
"AX c #99A2AA",
"SX c #A4A9AB",
"DX c #ADB4B6",
"FX c #A7AE8B",
"GX c #D0B484",
"HX c #D6CF84",
"JX c #A9BBC4",
"KX c #CCD4D4",
"LX c #E9F1F0",
"PX c #DBE1E2",
"IX c #BEC3C4",
"UX c None",
/* pixels */
"sX;X,XXX;XXX#X;X@X#X@X#X@X:X@X#X@X@X@XOX@X#X#X%X3X<X#X:X@X+X@X@XOXOXOXOXOX X X X X X.XOX X X.X.X X/..X.X.X)..X/.=X/././.&X_._.Y ",
"P.&X}.;X;X;X;X<X<X>X:X$X@X@X:X@X@X@X@X@X;X:X@X@X#X<X2XgX1X1X2X2X:X<X<X>X>X@X X XOX@X+X+X.X.X.X.X X.XoXoX.XoX)..X.X/./././././.q.",
"h.}.}.oXXX=X=X}.fX;X-X(.[.@X@X@X@X@X@X#X#X<X#X3X1X0X$.g s 0 E _ wX2X<X@XOXOX XOX@X@X;X@XoXoXoX}.}..XXXoX&X[.}.oX.X)./././././.q.",
"D.).=XQ.-.'.R.[ ^ P.f.' ] =X:X<X:X#XOX%X#X#X<XdX0 2             O @.hX3X%X@XXXOX>X;X@X;X;X-X-X=XoXXX,X.Xl.a.oX).oX).a.l.}././.F.",
"D.+X'.6X<.M @.Q E ! E o.%.).>X<X#X#X%X@X#X#XiX2                     E gX@X#X#X<X;X@X+X#X;X;X;X-XoX=XoX_.9.c./ c V b v k.).&X).G.",
"P.].7XU.<.X...%.X.O.} :.<.E.;X<X<X#X#X%X#X].$                         ! -X%X:X;X;X@X;X;X;XoX@X;XoX;XoXg.c.5.4 4 v v 5.c.[.).&XJ.",
"f.pXsXE.4.>.<.` f.o.2.2.7X_ @X<X:X$X:X#X=Xn                           . I.}.#X:X;X;X;X>X>X;XXX@XoXoX[.c.i.V V m e.v V 8.j.&X[.G.",
";.fX].U.1.qXSXyXS.mXS.eX7Xm.^.#X-X:X:X@XP.O X                           > gX#X:X#X:X;X,X;X;X-X+X;X=Xk.8.aXp.p.p.j.y.y.i.9.`.=XD.",
"4X].].P.tX'.yXzXmX:.Q.pXpXK.' #X-X:X+X&Xs . +                           X 8X2X2X:X:X:X>X,X,X;X-XoX`.7.g.aXp.T.a.9.g.v.g.t.v.}.q.",
"4X~.].wXSX1XiXZXMXtXiXpX7XW.=.^.:X-X}.!.+   +         + d / m 3       + X W hX2X:X:X:X>X>X;X-XXX&Xk.t.h.z.i.T.7.9.h.7.k.T.y.k.G.",
"I.].^.P.M.tX:.X.A.3.6XtX7X'.!.4X@X+XXXwX            1 b.aXM.N.b.b +   X & s hX:X:X:X<X1X>X;X;X-X`.y.h.R.T.c u c 8.V v j.T.w.a.g.",
"4X'.Q.8XzX:.&.I.5XA.BXmX6X'.!.U.Q.+X+XwX+           b m.aXGXdX~ 9 m 3 2 O 9 kX>X:X<X<X2X>X;X;X}.p.p.k.`.k.B b ~ 6.8.5.j.T.T.g.9.",
"U.].7X-.3.3.!.U.*X=.BXMX1.'.E.U.!.$X$XsX2           b u.aXdXyXk n b.b.$ O 9 kX<X<X<X:X>X>X>X,X`.y.T.k.R.`.v p.z.t.7.x.j.h.h.G.t.",
"5X0X&.m.4.AXFXI.*XZ.BXMXBXwXE.E.U.'..X*Xl           q f.~ n M.m./ n.u.0 O M 2X>X:X@X>X,X>X:X-X6.p.R.h.R.v.V f.k.t.y.8.z.w.j.T.T.",
"4X%.5X5XeXtXAXtX~.3.A.4.6XeXU.P.Y.W.}.-X` .         3 m 3 g #.GX#.d / b O I.2X2X:X-X-X>X,X;Xg.8.T.h.h.p.c.B C e.8.8.v a.w.T.T.{.",
"-.wXU.5XS.=.pXAXCX<.4XBXeX8XeXU.W.Y.|.+X~.9           b $.m.b.^ ~ 1 3 n l 1X1X>X:X,X-X>X1XW.7.t.T.T.g.7.a.c $ x v c v 8.a.j.h.G.",
"5X^.8X5XeX_ pXCXAXA.5XA.;.8XZ.pXE.^.U.3X*X;.#         3 / 9Xu.1 N $.-.q &.,X,X>X,X-X-X>X&Xy.g.d.T.T.9.t.p.V h.T.i.t.8.i.8.a.w.T.",
"5X!.I.qXM.A.NX3.3.CXVXBXZ.Z.Y.rXZ.*XI.Q.3XfX%.o       $ 3 V W q @.uX#.3 ! -X-X-X+X+X;X,Xg.7.T.d.R.y.y.h.u.#.j.T.d.t.7.t.t.6.y.T.",
"8XP.I.0XzXCX;.qX~.,.DXBX4X' 0X8XZ.5XE.Y..XOXhXyXt X +     0 m d ~ b 3 + d U L.&X-X-X#X`.8.t.T.g.k.6.i.g.m ~ d./ r.i.6.i.t.g.V a.",
"4XP.I.0X2.&.~.0XW.6X1.MX6X' qXZ.8XS.~.E.U.$X$X-XgXwX4XT R ] 3 3 2 2 O 1 1 . X q W.-X[.8.t.d.T.t.i.V M.b.N M n d m e.V i.d.g.0.6.",
"I.I.I.qX>.iX~.qX^.Z.8XMXrX_ iX=.8XS.eX!.Y.Q.$X$X.X|.$X2XU $ 2 s q q n ~ q ; i ; 6 ( x V d.f.j.7.6.r.~ n d 3 u 3 3 5 v t.d.d.0.w.",
"4XI.I.wX>.JXpX8X7XBXCXmXeX( qX' 4X8XS.Z.Y.I.|.$X$X$X$XI X   2 l m b.b.~ $.s h i O * ; 1 q s.v.v i.e.N d d N n d d u 5.t.d.d.0.h.",
"4XI.I.iX>.qXAXmXCX>.&.BX-.R =.*.' 8X&.S.Z.Z.5X|.(.H 2 X ;   k M.M.VXDXPXCX% * , O % < t : 2 4 V e.t.R W d #.M.N r.e.7.t.d.d.d.h.",
"8XI.I.qX<.!.tXMXxX&.5XBX@.M *.^ ' Z.( Z.S.7XS.Y.J %   O i X t JXLXLXLXIXh O X   O + 8 p a > + q e.t.x M.n N *.#.r.e.7.t.d.s.0.h.",
"7XL.I.7X2.BX3.-.BX+.g M M ~ M ` ' Z.' Z.;.A.F 8 7 8 . o < , X ..KXPXKX{ i h , O & O G P [ ( w @ x t.x M.M.N #.~ r.e.7.i.d.d.0.h.",
"7X] I.7X2.2.' 5X5X-.d nXn ~ M ^ ' ' ' %.Z.E = Z Z UX    , % UX& DXPX>., ; % % ; , O * - 8 7 7 @ 1 t./ +.uXn.~ / t.y.7.e.d.f.r.h.",
"rXI.~.iXNXtXsX~.~.0XtX*.n W g b._ ( X.' ;.6 . # #             + :.DX, & % X X O O X % - # * # X % R g.n dXuXb.f.t.e.7.u.t.p.y.a.",
"O.' 4XpXo.Y.!.!.~.U.6X+.N n ~ b.' &.! Z.X.= . % * & O % % % O + { } X & % % ; ; * % , < - - % & 2 e d.u yXN.N d.6.8.V x.B c 4 5 ",
":.2.o.....-.4X5X!.4X8XmXW b M.b.' Q ( ;.F &   % < i p p < - @ . , O + O ; < p t p p p - < , % + 6 0 ~ d n.u u c c 5 u 3 4 4 5 4 ",
"zXNXCXSX>.2.>.o.X.%.%.A.@.R dXb.Q ( ' @.f <   + - - 8 8 = 7 # . % : + 7 D F D Z D 7 a 6 < ; % % d ; 1 n 9Xb 3 4 ; c 4 c c v c 8.",
">.,.zXSXSXNXNXNXmXzX>.mXO.b 9X#.s Q Z...w A + . # 7 L V.F.H.A . t h < w H.(.(.K.H.H.C.P A w 7 o i % $ ~ yXb c 8.V c B p.i.T.0.d.",
"^.3.<.+.o.O.xXCXSXNXCXmXBX+.d #.n l } E t t O S H.|.|. X$X|.F.# ; } = 7 F.(.$X$X$X|.-X|.|.(.F.O t 1 q #.uXm b / b ) N P.B W.e.K ",
"(.VX'.HXO.-.] X...O.>.NXNXNX<.N b.d CXO.t ; & r U |.G.K.|.(.Y =   O % 1 Y K.H.U U H.).&X}.|.F.# , 1 n M.9X9 3 u / D.B f.h.].C m ",
"7XSXfXjX>.<.0XJ.s.] o.3.1.X.X.n M.N k q R Q E R w a 9 f w l g T O , ; O : s j Q Q W E H H.H.H 1 p 9 R @.l @.l i i g N s.E.'.R.`.",
"zXCX0XjX6X6X2.g f g o.o.E g f s N n H h.q.q.r.@ e q.S ! f.f.0.d X h h t s 6 6 L V.U l.Q 9 3 t s s.W s Q s.] +.9 W E d M k (.&X*X",
"7X6XQ.HXI.W...s = } D T T T J H ) h.{.{.q.w.O.@ 8 0.# A r 8 T :   , ; 9 z . < L S 6 w.U s l % ! w.r & w l.$.g + f.l./ k T (.(.'.",
"&X'.XXHX] Q.w N = 6 F F F A P C.K.H.I s.q.s.< 9 $ J   w r z : %     .   m . = A J : q.! j 9 # w w ) 9 & ( W d ; l.~ k i D.J.(.(.",
"&X&X}.HX] *XtX@.: - | a o = D V.D.r # # F [ p r 7 H . 6 T k u.d O O O . k 2 & Z Y H.J k i ; = = w ..$.% 7 e : H / } , h ( (.(.(.",
"&X&X=XHX;.SXA.E # = # = $ . 8 ( J 9 z @ = U s.w P q.$ : S / K t S P P w E o # L V.Y X.: d ; 7 # F i { x + D D.U o.h t i g J.'.(.",
"&X&X}.jXBXCX` Q % 0 f } @.= o &.x @.O.e o V.S 7 J ) q # L _.d.= o 7 7 # W o # ( Y w.w.) M @ f > F s h $.% 7 q.^ t 5 s O.{ Y ).(.",
"&X=X}.jX1.IXeXk n j +.{ k r . ! K > - k @ Z r + @ Q z @ G P w 0 $ r r # R   : I H.J f h.e @ w A F j o.h r : ) k s.n | ZXh H *X'.",
"*X&X|.jX4X0XIXQ l s } | h $ . ! 0.: ..q @ H | x . E q # L r $ 9 . ;   # S . 8 P P r . A r - P V.U s i j q 8 ^ g W.i ZXcXy ^.&X].",
"&X).}.dX8X(.5XCXDXQ h o.M O & ( g.g 9 b # E.j b y N.$ - I x 9 o g n PXDXBXB.V.V.K.b.S F.H lXH B.s.a.k +.> e *.n T | JX{ e '.'.'.",
"*X|.}.pX5X0XpXVXDXFX{ j q X p P 0.W ; z # I b.$ $ Y vX7 I J nXT K g o k #  .S.Y.U.Y.F ' -.B.K % _ R j ~ @ I ` s , cXZXy U '.'.'.",
"&X}.).7X1.VXyX! E 2.+.E 6 = D w.l./ h r 8 L G   H q.6 7 S I w.l.l.g % n + a Z G V.F.I e A D r.O j.) $.1 D l.0.h * cX,.t W.Q.(.'.",
"'.).).7XzXb.J > 5.4.M s # a a a f z i.. = . 8 6 . o :     . w A Y J } r # .     # Z L A 6 # @ 6 g f ; p w F z Q t < u ) Q.Q.Q.'.",
"(.).(.7X<._ $ g.aX$.n x # a o .   o & . d R o > ~ d + q z $   = > : / + r / #.~ $ . 6 8 X o . > 0 + X o + . % 6 M } i h.J.(.'.Q.",
"'.'.(.9X} 3 p.z.K 0 l i # o : 0 9 $ . $ l - d s a O k | & s 0 + + x C x h ,     e # @ d k s s l { e d @.$.M ; . % b B T.(.'.'.Q.",
"*X'.'.rX2 t.z.K q q.> 9 . d 0 j k s 9 s d ; e   j     {     , % 2 h + X O t       s 9 < t X X O h s s h u j h $ n k x.R.'.'.q.U ",
"fX*XgXeXs d C z H.J.e s e 1 s M l 9 D.H.( s D.      & $.  X       9     & :.X     j X X <   X @ k H D.H V F H k l D.v.T.J.^.P.L."
};
