/* XPM */
static char *_5774_e87ef7da8e793f34d773530878cd83671f3a864a8548b2874ceb0ac0f615f824[] = {
/* columns rows colors chars-per-pixel */
"64 64 255 2 ",
"   c #010101",
".  c #080707",
"X  c #030209",
"o  c #0A0B0A",
"O  c #0A1306",
"+  c #14190E",
"@  c #0F2F0C",
"#  c #18290B",
"$  c #1B350C",
"%  c #22300D",
"&  c #1D5417",
"*  c #2B4D10",
"=  c #344A14",
"-  c #375914",
";  c #326615",
":  c #4B681A",
">  c #507318",
",  c #2C920C",
"<  c #268A17",
"1  c #2E8D14",
"2  c #2D8D1A",
"3  c #368C17",
"4  c #338E1C",
"5  c #2D9314",
"6  c #279916",
"7  c #2E931B",
"8  c #329415",
"9  c #349916",
"0  c #3A9815",
"q  c #35941C",
"w  c #39951C",
"e  c #369A1B",
"r  c #3A9B1C",
"t  c #2EA719",
"y  c #36A21B",
"u  c #3CA41C",
"i  c #39A918",
"p  c #3CAB1B",
"a  c #3DB616",
"s  c #3CB41C",
"d  c #3BBB1C",
"f  c #2B8E21",
"g  c #348D22",
"h  c #359421",
"j  c #399422",
"k  c #359A21",
"l  c #3A9B22",
"z  c #3E972C",
"x  c #3CA523",
"c  c #3CAC21",
"v  c #3FB722",
"b  c #598E19",
"n  c #449D1B",
"m  c #68851B",
"M  c #66981C",
"N  c #43A31C",
"B  c #43AC1D",
"V  c #4AAB1C",
"C  c #58AC1D",
"Z  c #44B31C",
"A  c #48B41B",
"S  c #45BB1D",
"D  c #4CBC1C",
"F  c #56BB1C",
"G  c #67BC1E",
"H  c #449B26",
"J  c #53912C",
"K  c #749C27",
"L  c #44A423",
"P  c #48A824",
"I  c #54AD22",
"U  c #46B724",
"Y  c #57B723",
"T  c #53A639",
"R  c #51B139",
"E  c #6AAA29",
"W  c #67BB26",
"Q  c #77BA27",
"!  c #3CC818",
"~  c #3CD718",
"^  c #3FE715",
"/  c #3CC821",
"(  c #3DE921",
")  c #43D90E",
"_  c #43C31C",
"`  c #48C91B",
"'  c #54C91E",
"]  c #44D31C",
"[  c #4BD21D",
"{  c #44DC1A",
"}  c #4BDC1B",
"|  c #55D71D",
" . c #65C91E",
".. c #69D01F",
"X. c #4AEF0B",
"o. c #4AE415",
"O. c #46E817",
"+. c #45E51B",
"@. c #4BE51C",
"#. c #4BEA1C",
"$. c #53E41D",
"%. c #57E919",
"&. c #55EB1D",
"*. c #5CEC1D",
"=. c #56F118",
"-. c #5BF21C",
";. c #62EC1D",
":. c #6AEB1D",
">. c #77ED1D",
",. c #67F519",
"<. c #63F21E",
"1. c #44C321",
"2. c #4CC323",
"3. c #49CB23",
"4. c #57C625",
"5. c #4AD523",
"6. c #4BDB22",
"7. c #53D223",
"8. c #59D626",
"9. c #54DB23",
"0. c #5BDD22",
"q. c #68C925",
"w. c #78CA26",
"e. c #69D927",
"r. c #77D629",
"t. c #6ED638",
"y. c #44E422",
"u. c #4BE421",
"i. c #4BEA22",
"p. c #49EA26",
"a. c #54E523",
"s. c #5BE524",
"d. c #55EA23",
"f. c #5CEC24",
"g. c #59E62B",
"h. c #47F022",
"j. c #5DF122",
"k. c #5DF22A",
"l. c #5BE634",
"z. c #63E423",
"x. c #63ED23",
"c. c #6BED24",
"v. c #63ED2B",
"b. c #6AE929",
"n. c #73EC26",
"m. c #7CED24",
"M. c #79E328",
"N. c #73ED2B",
"B. c #7CED2B",
"V. c #63F223",
"C. c #6CF223",
"Z. c #68FA25",
"A. c #65F129",
"S. c #6DF32A",
"D. c #74F325",
"F. c #7BF225",
"G. c #74F22B",
"H. c #7CF32A",
"J. c #79FB2A",
"K. c #6BEE35",
"L. c #77E934",
"P. c #7AF437",
"I. c #5CA845",
"U. c #6AB053",
"Y. c #75B465",
"T. c #76CD56",
"R. c #6FEB4C",
"E. c #7CEC47",
"W. c #77F244",
"Q. c #7DD36E",
"!. c #7FEF62",
"~. c #89F51D",
"^. c #86C928",
"/. c #87D72A",
"(. c #97DD2A",
"). c #90D530",
"_. c #87E929",
"`. c #97E82B",
"'. c #84F424",
"]. c #8CF426",
"[. c #85F32C",
"{. c #8BF42C",
"}. c #85FA28",
"|. c #8AF92C",
" X c #97F625",
".X c #93F42C",
"XX c #9BF52C",
"oX c #93FA2C",
"OX c #9BFA2C",
"+X c #87EB33",
"@X c #94ED33",
"#X c #8CF432",
"$X c #88F734",
"%X c #92F432",
"&X c #9BF433",
"*X c #94F933",
"=X c #9AFA33",
"-X c #93F43B",
";X c #9AF93D",
":X c #ADEB2E",
">X c #A5F729",
",X c #A3FB2D",
"<X c #ACFC2C",
"1X c #B7FC29",
"2X c #B4FD2D",
"3X c #A7F737",
"4X c #A3FA33",
"5X c #ACFC32",
"6X c #B5FD32",
"7X c #B8FB36",
"8X c #C7FC35",
"9X c #8AD755",
"0X c #85F247",
"qX c #99F645",
"wX c #88F357",
"eX c #9BF658",
"rX c #A9F94A",
"tX c #B6F845",
"yX c #ACF755",
"uX c #8DCF71",
"iX c #89ED63",
"pX c #99F36C",
"aX c #90EE74",
"sX c #9CF376",
"dX c #A8F76C",
"fX c #B4F667",
"gX c #B7F675",
"hX c #C1FB48",
"jX c #D0FC50",
"kX c #E2FB43",
"lX c #C6F865",
"zX c #D6FD6C",
"xX c #C8FB76",
"cX c #EAFC68",
"vX c #A1DB8C",
"bX c #A8F582",
"nX c #BAF788",
"mX c #A8F091",
"MX c #B4F597",
"NX c #B4D8A8",
"BX c #BCF3AA",
"VX c #CDFA8A",
"CX c #C8F896",
"ZX c #D6FB98",
"AX c #E4FD9D",
"SX c #D7F9A6",
"DX c #CDF6B3",
"FX c #E6FBB2",
"GX c #CFECC5",
"HX c #D9F6C3",
"JX c #ECFBC9",
"KX c #E8F8D7",
"LX c #F2FBD6",
"PX c #F4F8EB",
"IX c #FBF9F9",
/* pixels */
"                                    . X ; v.CX;X#XyX0XZXIXPXeXv.;.sXP.*.+.E.L.|.{.oXE o   .         .                           ",
"                                  X X @ s.].'.#X.X{.-X;XDXMXVXF.=.L.;.f.-.iXR.ZX#X[.>X> X X X   X   .                       .   ",
"                                    X V S.C.+.@.F.[.c.:.;.G.;.0XaXn.A.V.v.<.z.wX.X$X&X5XE #                                     ",
"                                  X # x.i.iXo.@.d.x.F.'.|.=XZXrXfX;XH.f.&.A.f.*.yX5X#X{.J.m.> o                                 ",
"            . .           X       . N g.o.p.iXf.@.n.n.s.f.j.pXa.n.XX&XG.$.u.N.N.eXtX+X.X{.S.Z.b . .                             ",
"            . o           X .   o 3 V.O.+.a.sX@.@.#X[.H.C.a.+.+.u.k.;.a.u.$.&.N.'.XX3X$X#X{.S.n.= X X                           ",
"                            . o y ,.wXBXMXg.o.+.#.G.*.V.`..XM. .e.' 1.y r y [ f.H.[.qXSX'.f.@XxX^.  .                           ",
"                            . u P.K.sXIXBX@.u.y.c.s.%.+Xc < 4 g k /.2.e q z s +.+.bXFXzX#X@.&.%X4X# X                           ",
"                        X   4 Z.sXS.0XDXu.@.+.j.&.@.V._ 8 k w 3 q.q.P n q q w e ! K.nX8X4X].%.z.oXE .   .     .       o         ",
". .               X     . $ v.x.v.;.g.u.+.+.f.` U #.{ w w 9 7 1 w D _.V q 0 q k w ! C.=X;X%XZX0X'.`.=                           ",
"  o .                 X   3 <.k.-.V.u.@.+.*.z.F >.~ r w q l q.w.I ^.3X`.n k j w q w ] .X#X#XVXjX#X{.m X                         ",
"  .                   . o | A.v.v.s.o.u.g.e.i q.f.+.S 8 P :X8X:X/._..X,Xn.~ a k w q h (.6X[.c.<X>X$X^.O   X       .             ",
"                      . - Z.-.j.V.u.+.@.BXT 5.+.a.#._ h `.`.r.x.a.f.f.0.4.x.h.a q p 7 L tX4XG.].6X.X*X% X   .                   ",
"                . .   X 4.P.BXP.#.@.@.+.l.z.d.#.u._ h F I 1 j 4.8.7.f.<.| b.m.#._ #.i 7 `.7XH.A.OX&XoXQ   X                     ",
"                X     @ c.{.CXwX+.x.+.@.n.S.d.@.U n L /.w u 7.'.{.z.f.v.C.V.c.:.{ ! 6.q P 4X].G.'.3X*X_.+ .                     ",
"                    X ; }.{.{.B.s.$.c.o.f.@.+.@.5 n w N q n.Z.-.;.<.A.V.V.A.k.<.d.3.! u n [.n.B.:Xc.{.=X= X                     ",
"                  . # /.$XqX%XH.@.n.[.*.b.+.@.+.F W 4 2.r.e.Z L L B _ x.f.k.7._.{.D.[ C 7 r.[.+.$X*..XrX:   .                   ",
"                    = 5XcXCX X$.&.#Xz.].s.@.+./ W /.D M.V 3 e r 7 n I 8.b.<.c n tX}.s.w.f F x.+..X X|.ZXM .                     ",
"                  X ; F.].#XH.y.C.n.z.H.+.#.+.` ).W q.8 h q d Z q w.8XOX$Xf.7.2 (.N.;._.h L b.+.%X|.OX$X^.o X                   ",
"                  X I rX7X$Xs.O.f.b.b.;.+.+.u.,.w.2 9 7 r q q j q h P /.|.C.f.y I N.V.5X0 q } d.B.H.&X{.`.%                     ",
"  .                 w.VXrXF.y.+.+.n.C.s.+.u.i.@Xx e j q r c l q e w q 2 P `.C.Z l x.G.6XY 4.U +.G.].{.{._.% X                   ",
"  o         .       q.|.#XH.^ bXMX[ %.+.@.i.d q.1.e q c s.<.x w w e j e 7 r x.0.w z.].XX/.q.r 5.S.B.[.#X(.% .                   ",
"              .     w.|.+X#X@.iXIXT { o.o.+.u `.D g u A.C.U q q w r e j e q B k.e ' 3XY `._ x d x._.[.{.(.# .                   ",
"                X % +X|.#X.Xf.5.LXuX{ +.i.] r.r.w.7 5.V.4.7 w q e w 8 w q j V J.U B 3XV Q ` s d d.|.{.{.*X-   X                 ",
"          o .     . r.}.%X%XL.~ NXKXz.+.+.8.q.c 1 u ( ].P q k r w w w w 9 l Y oX8.g [.0.g { v / @.|.m.qXoX-                     ",
"          o .   . X ' S.#X|.].~ +X-Xc.o.6.M.U U a 3.#.e.9 0 w q e e e B P 6 P *Xg.q e.-.r 6.S _ #.$X>.nXFXM X .                 ",
"              .     4.[.#XdXqXo.@.m.;.@.7.q.[ c +.u.p.V w j 8 r h q 2.,.V.| u [.-.l F j.n s ] ] ~ >.-X$X*Xw.            .       ",
"                  + +X|.#XPXxXO.o.@.@.u.I N 8.9.O.@.] r.r e w e j q S x.V.&.d 8.D.s I v.B p i.s J lXrX}.&X&X# . X               ",
"                  = 4X[.{.bXtX>.f.| +.] 4 e v } @.#.7.r.q l C l w r / c } [ ] N S.` P 8.P u #.a H ZX].gX,XoX*   X               ",
"                  * >XD.%X#.3XeXe.s.a.u 8 u U { o.+.P.D < w.Y q 7.3.w 7 1.r 6.p +X| q.| Z d O.1.x 3X|.gX XrX-                   ",
"                X - &XF.#X].7XdXq.w.| h w w y +.@.&.m.q 4 (.q P #.S q w d u ! c B.c.#Xe.Y y +.+.d.OXH.{.-XzX-                   ",
"                  m J.H.,X6X7X>XXX_.U 4 r l u $.@.V./.f H `.< 7.&.@Xr e r ! q h {.&X[.s.V g +.3.b.&Xm.].{.<X*   X               ",
"                  M Z.oX1X2X6X X,X/.1 w q q I n.+.k.r.1 I w.q d.x.,X{.7.U 0.W 7 6X=X].f.V u u.d G.].K.CX].<X-   .               ",
"                  E D.<X7X7XAX$XlXn q k w p A n.+.d.q.2 G :X8.j.x.w.e.p } $Xq.r gX;XgXA.4.z.#._ $Xb.H.qX,X=X>                   ",
"              . X b Z.5X1X2XhXyXvX5 k 0 9 3.Y z.h.#.Y 7 G #X.Xx.d.Y _ x M.#XD D SXxXmX=.c.[.@.' B.S.5X6X8X4XQ X                 ",
"                  - Z.OX1X6X6X4XW 8 w q r U 7.$.+.a.Z 4 ' x.G.V.d.5.y _ Z y.p _.xXJXl.s.f.'.i.e.D.H.OX8XkX&XG .   .           . ",
"                X = D.nXhX1X6XXXx 5 7 k q p a.+.i.a.s 4 U k.<.4.d.#.y i S r 4.-.CXsX} p.:.G.6.q.x.{.eXcX8X}.Q . X o             ",
"                  = $X0X3X<X2X,XP I.8 h j e O.#.p.+.B w U =.j._ P j.6.j 8 p &.wXCXo.&.y.}.q.s 1.;.7X-XkXcX;XQ .                 ",
"                  * D.D.<X1XlXDXR T w e q l #.+.@.#.B h C *X+.x.U ` V.x.$.z.bXSXY { #.` %Xr u { ;.lXqX6XxXqXY                   ",
"  .       X       @ B.].=XjXPXAXHXy 5 e r l o.#.+.$.B q u :X$.c.V.3.V.x.*.CXSX Xy #.} 4.+Xq u h._.L.l.XX].}.Y .                 ",
"                  X /.|.XXtXFXJXIXR R q w 8 u.p.o.i.S g 2 /. X$.H.D.x.V.x.v.:.{.} ! _ q.q.f Z x.4Xo.;.VXrX>X^.O .               ",
"    .               W H.5X1X<XfXQ.e U.9 w q { s 5.#.s.r 8 H 7X].N.{.].|.F.V.V.| i z e r.r h a.].].z.tXJX].7X>                   ",
"    o o           X b #X6X7X7X].=.d 1 8 j q [ u s &.Z.8.q 7 /.6Xm.d.d.G.XXw.r 4 w 5 Y 4.h N f.#X:.XXAXrX|.&X% X X               ",
"                    - }.%XtXtX$X&.y 8 , q r s.q p #.k.z.r h N 3X1X X~.,XM.S 4.c 4 N M.r g _ D.].m.FXZX|. XQ   X                 ",
"                  . % S..X1X<X@XuX1 Y.NX, e v.u e u.n.<.B w w S *XJXKXLX!.<.| l l L.' x 8 s.v.|.tXKX&X#X.XK X   X               ",
"                    % c.XX6X3X{.pXc I.uX5 f 7._ 4 _ {.A.a.9 q w g.sXKXPXpX=.7.S e.e.U 9 V | V.b.CXzX].{.&X-                     ",
"                    # _.{.<X4X{.;.+.e w w q D ;.z A *X$X,.u.U q w ` S.K.S.j.V.V.f.A.[ U r x.v.q.'.>.yX-X/.+ X                   ",
"                    O ^.#X<X,X$XF.+.r q q w B S.U ` H.`.[.[.&.' U j u s.V.A.A.j.V.c.2.4 x V.&.b.f.J.yX].Q o                     ",
"                  X o w.:.2X>X{.#X} L r q w H e.S.V.;.[.%X%XH.` 0.C.s.s.v.V.A.z.2.l w j 0 J.A 1.x.&X{.*X; X . X                 ",
"                  . . b V.rXxX5XOXz.z 1.j 9 q 4.3.<.j.G.{.#X*XL.H c u 1 1 5 u B P w k w ] e.4 ! D.OX*X/.O   X                   ",
"                  . X - Z.nXJXLX3X'.t _ / j w  .R pXj.V.n.#Xr.4._.M.r.9Xt.M.*X|.r.e q 3.[ D T pXG.=XoXw.                        ",
"                  X   % N.S.6XjX6X4Xa.k ] u w 4...P ,.g.V.s.B.e e Y M.B.9.q.Y w g r 9.9.9 i T.BXD.&XqX> X .                     ",
"                      X C V.D.~.<X<X.X@.g.x 7 r [.N 8.j.A.V.D.q.h 4 g 8 5 4 e 2.9.j.7.e 3 5 I.MX*.G.q.O X   X                   ",
"                        * D.v.j.F.XXdXMXbXI.y q 4.q.N C.9.s.3.8.$.2.u l B 5.<.9.Y 9 w / k 2 A A.K.V.* X                         ",
"                X X X X . Y V.V.qXF.-X-XqX4.^ v w r g ` 7.H P 8 U 0.Z.-.P.W.2.< q c 1.L 9 4.[.{.$Xk   o   .                     ",
"      . .               X O P P.KX{..X[.'.qXGXnXF 1 R Y.` s.c p q 4 L _ T.T.e.U [ } u U.' =X-X}.e.O X +                         ",
"                            O ' W.m.$X{.{.eXFXgX;.t 1 1 q ! =.( } p w ~ _ a _ o.{ w f < I .X|.n.&   X         o o               ",
"                          .   $ $.#.H..X#X].{.].o.aXmXa 4 1 uXGXU ~ U.5.h.#.6.` T.T L e.+X#XoXu .   .           . o .           ",
"                            . X r d.d.#X4X*X_.H.%.g.W.) Q.Y.q H , H PXR U i k 7 I.k 2 e.7X*XJ.& X .               o . .         ",
"                . .           X # A.#.H.&XB.d.j.f.o.iXHXDXT.e j n L T 1 e q e w 2 uX/.{.#X$X8.                                  ",
"                          .       4.-.$.A.f.x.@.O.+.K.mXA.x.j.[ w 7 B ] ] ` q.T.` @XN.P.|.q.$   X                               ",
"                                  -  Xo.#.*.c.+.g.+.d.=.x.A.DXA.%.L x.P.[.~.].fX{.#X[.].1X* X                                   ",
"                                  o K XXa.p.$.y.MXa.u.A.*.E.iX*.sXg.*.DXnXPXKXJXnXdXfX=X:X# X                                   ",
"                                    o M 2X'.G.m.( $.+.d.=.E.wXX.DXl.N.MXCXIXIXIXIXIXKX6X>   X                                   "
};
