/* XPM */
static char *_644c94c86ef451da685d2c89f936bb3[] = {
/* columns rows colors chars-per-pixel */
"64 60 255 2 ",
"   c #090C0B",
".  c #0D1016",
"X  c #12141C",
"o  c #0E0E26",
"O  c #0F1122",
"+  c #121326",
"@  c #14162B",
"#  c #16182D",
"$  c #19182B",
"%  c #191A2E",
"&  c #161631",
"*  c #191732",
"=  c #171831",
"-  c #1A1A34",
";  c #161939",
":  c #1B1C3B",
">  c #201E3C",
",  c #1E2228",
"<  c #1D2134",
"1  c #1E213C",
"2  c #22262E",
"3  c #22233B",
"4  c #262A38",
"5  c #2D333C",
"6  c #35363E",
"7  c #403829",
"8  c #763431",
"9  c #67552B",
"0  c #736A25",
"q  c #151340",
"w  c #1C1E41",
"e  c #201F44",
"r  c #1D2044",
"t  c #1F214A",
"y  c #222243",
"u  c #282B47",
"i  c #21224B",
"p  c #2E3642",
"a  c #353947",
"s  c #353E49",
"d  c #232551",
"f  c #252954",
"g  c #292B56",
"h  c #292D5A",
"j  c #2D355C",
"k  c #393B56",
"l  c #2E3761",
"z  c #2E3B63",
"x  c #303B63",
"c  c #303F68",
"v  c #384049",
"b  c #38414C",
"n  c #3D4653",
"m  c #2E4A6F",
"M  c #36476D",
"N  c #354C72",
"B  c #37587E",
"V  c #3B5A7E",
"C  c #3E6F68",
"Z  c #45474C",
"A  c #53554C",
"S  c #444B53",
"D  c #474B59",
"F  c #4C535C",
"G  c #565557",
"H  c #5C5A5D",
"J  c #635C50",
"K  c #566650",
"L  c #686557",
"P  c #707453",
"I  c #4C5363",
"U  c #545B65",
"Y  c #5A616A",
"T  c #5B6572",
"R  c #517376",
"E  c #686868",
"W  c #75736B",
"Q  c #626974",
"!  c #656A77",
"~  c #6B7176",
"^  c #757273",
"/  c #7A7575",
"(  c #78797B",
")  c #8E2820",
"_  c #962729",
"`  c #902E2E",
"'  c #A5322F",
"]  c #A8342C",
"[  c #C63B32",
"{  c #B64832",
"}  c #A55C35",
"|  c #956B31",
" . c #EB7719",
".. c #CE512F",
"X. c #D66E2E",
"o. c #EA7228",
"O. c #903345",
"+. c #9B404C",
"@. c #A94A45",
"#. c #8F674E",
"$. c #AE6C4A",
"%. c #837D6E",
"&. c #CE6C4C",
"*. c #DA694F",
"=. c #6B8E2F",
"-. c #0A9C4F",
";. c #04A55B",
":. c #10AF5E",
">. c #04A865",
",. c #15AA68",
"<. c #15B165",
"1. c #11B273",
"2. c #29B372",
"3. c #738353",
"4. c #6A9274",
"5. c #79B07D",
"6. c #9F8A18",
"7. c #918E32",
"8. c #BA9929",
"9. c #AC8F33",
"0. c #B99838",
"q. c #B8A42D",
"w. c #BAA739",
"e. c #BCB33D",
"r. c #C59516",
"t. c #F0B504",
"y. c #C49326",
"u. c #C59031",
"i. c #C3923A",
"p. c #F58324",
"a. c #C4A429",
"s. c #D5AC2C",
"d. c #C3A53A",
"f. c #978A49",
"g. c #908C4C",
"h. c #A59A4A",
"j. c #BB9846",
"k. c #A99350",
"l. c #97A755",
"z. c #A8A849",
"x. c #BAA747",
"c. c #B9B649",
"v. c #A7A755",
"b. c #B9A758",
"n. c #ADB658",
"m. c #B5B758",
"M. c #8E906D",
"N. c #A7966C",
"B. c #99A866",
"V. c #9AB76B",
"C. c #8AAA78",
"Z. c #86B57E",
"A. c #99B874",
"S. c #94BD7B",
"D. c #B4AE6F",
"F. c #A8BA67",
"G. c #C6A648",
"H. c #CAAB54",
"J. c #C8B457",
"K. c #EBBB55",
"L. c #DBA665",
"P. c #D7A77B",
"I. c #CEB372",
"U. c #94C17D",
"Y. c #EFC54A",
"T. c #EDCF5C",
"R. c #365C81",
"E. c #3B5C81",
"W. c #3D6689",
"Q. c #3B698B",
"!. c #3B6A8C",
"~. c #366F90",
"^. c #3B7294",
"/. c #37789A",
"(. c #347FA0",
"). c #4C6D8C",
"_. c #6E6D87",
"`. c #6D7B88",
"'. c #9B769C",
"]. c #AE799A",
"[. c #9776B1",
"{. c #AB76AE",
"}. c #D27CA2",
"|. c #1A9CB6",
" X c #3788A7",
".X c #3A95AD",
"XX c #259CB4",
"oX c #3899B1",
"OX c #3BA3AE",
"+X c #2BA4B3",
"@X c #39A5B1",
"#X c #558C91",
"$X c #6E808B",
"%X c #71828E",
"&X c #7C828D",
"*X c #6B988F",
"=X c #758792",
"-X c #79B98B",
";X c #65A696",
":X c #68B898",
">X c #69BC9C",
",X c #75BD94",
"<X c #74BC95",
"1X c #4598A9",
"2X c #7495A9",
"3X c #48A4AC",
"4X c #44ACAD",
"5X c #4BABAA",
"6X c #4CADAF",
"7X c #55ABA6",
"8X c #54B3A7",
"9X c #5BB4A3",
"0X c #66B8A2",
"qX c #64BCA1",
"wX c #74B7B2",
"eX c #6CC09D",
"rX c #74C197",
"tX c #72C19A",
"yX c #5EC0A8",
"uX c #878788",
"iX c #8E938E",
"pX c #959594",
"aX c #9C9C9B",
"sX c #AB9591",
"dX c #8CAD8C",
"fX c #87BD85",
"gX c #ACAB8E",
"hX c #A2A29D",
"jX c #9492AA",
"kX c #B18AAB",
"lX c #95A7AE",
"zX c #A6A6A4",
"xX c #A8A8A6",
"cX c #A8A9A9",
"vX c #ADB2B6",
"bX c #CE9491",
"nX c #C79C98",
"mX c #CBAB90",
"MX c #E8A987",
"NX c #CD8BA5",
"BX c #8AC386",
"VX c #9FC594",
"CX c #A294C3",
"ZX c #ABB9C3",
"AX c #BBC6CC",
"SX c #BEC8D2",
"DX c #CAD1D3",
"FX c #C9D4D9",
"GX c #D1DFE3",
"HX c #DBE5E9",
"JX c #DFEDF1",
"KX c #E3E8EB",
"LX c #E1EDF2",
"PX c #E7F4F8",
"IX c #F6FBFD",
/* pixels */
"+ + + + + + + + + + + + + + % $ + @ @ # @ @ + $ + , % + < + + + @ + $ + + $ + < + # + + + + @ @ + @ + @ + + + + + + @ + + + - X ",
"+ + + + + O @ + @ + + + + $ + + @ < + + @ + @ @ @ + + + % @ # @ @ @ $ + @ + $ % + 4 + # # # @ + $ + @ 2 # # # 5 O # + + @ + + O ",
"@ + 4 @ @ # @ + + + + + + + + + + O @ + + < + + $ + $ + @ 1 @ = @ + @ @ $ $ 3 + @ O + @ + 2 @ + + % @ @ @ # @ O @ + 5 + $ @ $ X ",
"+ @ + + < O + O + + + + + + @ $ + @ @ + + @ + @ + # + - @ @ @ # @ $ $ + + + % + + @ @ + + @ O u % + + + + @ + @ @ + + @ + + + X ",
"+ + + @ O < + + + $ + @ + @ @ @ @ # @ @ # # # < # # @ = # @ # + @ @ @ @ + @ @ @ + # # @ % < % @ + $ + # % @ @ @ + # @ @ + 3 - X ",
"@ @ + + + + # O + + + + @ @ + @ ; # # @ # + @ # + # O u @ @ @ + @ @ @ @ @ @ + @ ; @ @ @ # @ = @ < @ + @ < # @ @ @ @ @ @ + @ - O ",
"@ @ + @ + O + O O + O + + % $ @ O @ @ @ # + # # # @ @ % # # # # @ < # = @ @ + < @ # # + # @ @ < @ @ # # , @ # @ # @ # # @ @ # X ",
"o + + O @ O O @ O @ + O O + o + @ O @ @ # # @ @ @ @ @ # @ # # # # @ # # @ # @ @ # @ # @ # @ = @ # # # # @ @ 1 # # # & @ & & @ , ",
"+ + % + $ O O O O O O + + + @ @ @ = @ @ @ 1 & & & % & # ; & & # # & # & # @ = = & & - # * = @ @ & @ = % @ @ @ # # # # = < = @ + ",
"+ + + + + O O X O O O O + + @ @ @ @ - - % & = @ & = @ = # # & # # & # & # - = @ @ & 1 # @ & : < @ & & - = # : - 1 # = & ; # # + ",
"@ - + + + - + o O O + + + + + @ - @ = @ @ 1 @ & & & = = # = + # = = ; @ & 1 & & = & @ # & @ & * & = # @ & # @ & ; < = # 3 u @ + ",
"% @ @ @ + + o + O $ O + + # @ & = = = & 1 & = = @ o 1 T T `.jXlXuXS 3 # @ - & @ @ = @ & & $ & $ @ & 1 - @ = @ # < # & = @ < # + ",
"@ @ # @ @ + + + + o o @ @ @ & & & & & * & & = 1 a lXLXvXFXLXPXPXPXPXvXF < # @ & = = & & & $ $ * 1 # = = & : * 1 = * = * % - - + ",
"= = & @ @ @ + @ + + & + @ @ & & & > & & y - o jXJXAXAXJXJXlXPXJXIXIXPXDXiXU ; & & - - * ; - * * 1 1 - - - 3 - - - - - : - - - + ",
"= & - & $ & & $ + + + @ @ & & & & - : - ; < AXPXPXFXPXJX$X%X%XAXHXIXIXLXZXcX_.; - : ; u ; * q : : : ; : : : ; : : : : : : - : + ",
"- - - - - * & * $ * @ & & & & & - - * y o ZXPXIXHXPXPXFX$X%X%X%X%XJXIXIXHXvXAX_.: : * 3 5 6 4 3 - - * ; : : : : : : : : : : : $ ",
"; ; * * * * ; * - - & & & & : - - ; - - _.PXPXFXHXJXGXJX=X%X%X%X`.SXIXIXPXAXAXSXk u a H H H H E E J Z > ; : ; 1 ; : ; 1 ; 1 r + ",
": : : : ; * : * - - - ; ; ; - : : : ; 1 FXPXPXlXlX%X=XLXlX%X%X=XvXKXIXIXIXFXaXLXcXL H H H H G H E E G p : : r ; 1 ; r ; ; 1 ; < ",
"* : : * ; : * ; - - - ; > : : ; ; : ; j PXLXlX=X%X%X`.GXLXlX%X%X=X=XGXGXAXvX^ vXvX%.H H H H H H L E E k : w : e t r ; ; ; 1 r # ",
": : ; u * : * : ; ; 1 ; - ; : : y : ; ! PXHX=X=X%X`.SXLXLX=X%X! Q E Z / / %.( / E f.J H H H G H E E H a : w w w r 1 r 1 r r 1 # ",
"; p r 1 : : ; u ; r 1 r w : ; : w w q lXPXFX$X%X=X=X%XiXuX( ^ / / W G / uXiXaXM.f.f.^ H H H G G Z Z g e w : w w 1 f r r r 1 r < ",
"r ; ; ; : u ; ; ; ; ; w ; ; w w : q ; ZXPXLXjX`.! H ^ / ( ( 3.W uXiXcXxXxXxXxXxXcXsXd.#.E E W uXpXpX^ D u e w w r r r r w h r @ ",
"; 1 ; r w ; w u ; r r ; r r w w w w q vXPXAX4.^ ^ G ^ ^ uXaXsXt.sXxXxXxXxXxXxXxXxXxXcXgXd.b.hXcXxXzXcXzXhX&XD w r r r r r t r = ",
"1 w ; w w w w w w w 1 r r : : y y 3 i &X%.W ^ ^ %.uXaXcXcXxXxXN.s.hXxXxXxXxXxXxXxXxXxXxXcXj.s.D.sXzXaXiXuXiX&XI t r t r t r r = ",
"; ; w f > > w w w : w w : w a H G H G / ^ ~ ^ H uXxXxXxXxXxXxXxXa.G.zXxXxXxXxXxXxXxXxXxXhXiX/ E Y F S U Q Q ! I u w w g : w r @ ",
"u r r 1 e q e w : w w w > > G H H A G W M.W z.E W xXzXxXxXxXxXxXN.t.sXcXxXxXxXzXpX4.^ ! G D n b p 5 5 6 a I U u w ; y : 1 w r $ ",
": : 1 ; > > y > : > : e : 3 H H H W sXv.hXg.T.P iXW xXxXxXxXxXxXvXr.d.cXaXuXE U Y T S p p p p p p p 5 a I D y > ; 1 : : > : 3 % ",
"- : - : > > * * * : > * ; : G E aXpXd.hXcXM.P E aXzXzXxXxXcXcXhXiXE P H Y T ~ F F Y D s k s Z D Y Q U k u > : * ; 1 : : : : : + ",
"- 3 * * * > > > * * * * * > E xXhXs.b.xXxXxXxXcXcXxXxXzXpXuXE F n 5 ,   2 pXH n U Y Y Q U 6 6 E v % - - : : * > : > : : - e : $ ",
"& & * $ * * % % * * u a E uXxXzXb.t.sXcXxXxXxXcXhX( E T Q T Q 4 , , 2 X   hX( X s s n n 5 2 , X X # : : : : > e > : > > > : > $ ",
"$ & * * * * * * * 6 b.L sXuXzXhXs.a.xXcXaXiX/ H D D U H U I D 5 2 , 2 ,   Z Z , s s 5 3 : - < - - > : : > * e * : : * : > : : $ ",
"* - * * * * * * * > P J / aXzXsXt.N.uXH F S S n D Z s s s s v s 2 2 2 2 .     2 s u : : : : : : y y y : e : > > > : : : : * > @ ",
"* * * * : * > * > 3 uXpXxXhXuXE J Z Z Z D F Z n s s b b b b b b 5 2 2 2 2 , 5 s u : : : > * > > : * : : * : > : * > : : * : > + ",
"> > > q : q : * ; Q zXaX^ U I D S Z D Y ! U s s b b b b b b b b b v 5 p v v s p : > : : : f * : : w : : : > : : w q > : > : > * ",
"> q > * * > * w w `.Q T n Y U S 4 X 6 aXaX, b F s s s b b b b b b b b b b s 3 ; e : > : > e : w > > > > e : : e w > > : : w w $ ",
": : : : > > w : > 6 F U F D Z 5 , ,   W 4.. - : : r a s s s s s b v v p y ; 1 r : e : w > : : e w e q : : w w q e w q P e : w & ",
"e e e e w e e w e w e e y - < w 2 4 X     . : : r w e > w > e y > e w w 1 r > y : : y w w w e w w e e e w e e i w w w e w w t * ",
"i e e i i i i i i i t e i i y y : < 2 , % r t r i w i y i e e w e t w t t i y t w t i y d e i d i i i i i i i e i i i i i i a 7 ",
"i h i d i d i i i i i i t r r r t t t t t t t t t t t t t h d f i d h f d d d t d d d d d i d d i d d d d d d d d h t f j 9 J 7 ",
"g d d d g d g g f f d d d f f d f f f d f f f f g g g g h h h h h g h h h h h h h h h h h h j h h h h h h h h g g h k k G | 9.0 ",
"h l l j l l l l h l l z j l z z z j c x l c c z x l x x x M l l z M c c x x x x x c x x x x z x x x z x x j z S K M K L 7.7.8.0 ",
"M M N N M N N N N N m m m m m N N N N N N N N N N N N N N M N N N N N N N N N N N N M M N M M M M M M M M M M M I L f.g.8.8.r.0 ",
"V V E.E.E.E.E.)._.'.}.NXNXNXNXkX).E.E.E.E.E.E.R.V E.V E.R.R.E.B E.E.E.B E.E.E.E.E.E.E.R.B B V V V B R.B V B V T 3.g.h.8.a.q.a.0 ",
"R.W.W.E.E.[.{.bXL.Y.Y.K.K.K.Y.Y.bX_.Q.W.W.W.W.W.W.W.W.W.W.W.).W.W.W.Q.W.W.W.W.!.W.~.!.!.W.W.Q.~.~.~.!.~.!.R R 4.h.0.8.a.a.a.e.0 ",
").).).'.bXL.Y.K.bXNX{.[.[.[.CXmXK.].~.^.^.^.).^.^.^.^.^.^.^.^.~./.^././.^.^./.^./././.(.(.(./.(.(.(.4.#X#X#Xg.k.x.a.a.e.a.z.l.K ",
"*XkXNXY.Y.MXkX{.{.].P.L.P.bX[.{.mX]. X X X.X X X X X X X X X X X X X X X1X X X X X X X.X.X.X.X.X.X.X1X X*XM.v.x.a.q.a.c.l.Z.;XC ",
"nXT.T.nXkX{.bXbXnXnXNXNXkXmXP.[.MX2X|.|.|.|.|.XX XoXoX X.X X1X1X1X1X.X.X.XoXoX.XoX.XoXoX.XoX1X1X1X1X1X;XC.l.x.a.9.q.z.B.-X;X5XC ",
"T.kX{.{.MXnXkX}.NXkXjX}.NXCXI.CXMXoXXX|.XXXXoX.X.X.X.X1X1X1X1X1X1X.XoXoXoX1X3X@X3XOX3X3X3X3X3X7X7X3X;XC.v.w.h.r.X.{ @.N.hXcXcXE ",
"{.bXnXNXNXjX2X+XXX|.+X+X}.nXnXmXzXoX+X+X+X+X+X@X@X@X@X@X3X1X1X1X3X3X3X5X3X7X5X5X5X5X5X4X5X5X5X7X7X;X-Xv.w.q.0.p.&.....@.&.xXmX%.",
"nXkXsXiX2.2.6X4X@X@XOXOX}.mXkXmX2X@X4X3X4X4X4X4X4X4X4X4X5X7X7X7X5X8X7X7X7X7X7X8X7X8X8X8X8X9X9X8X0X-XB.h.0.q.$.p.*.....{ [ L yXC ",
"NX*X2.,.:.:.2.wX6X6X6X2X{.jXnXaX8X8X8X8X8X8X8X8X8X8XqX8X9X9X9X9X9X9X9X9X:X9X9X9X9X9X9XqXqX9XqXqX<XZ.b.w.q.9.&.p.p.{ ....@.@.C.P ",
",.,.:.<.,.2.2.0XwX8X8XkXnXnXkX;X0X:X:X0XqXqXeXqXqXeXeXeX>X>X>XqXqXqXqX0X0X0XqXeXqXeXqXqXqXeXqX:X-XA.z.9.9.o.$.p.p.@.{ { [ @.g.P ",
";.<.1.2.2.2.<.2.wX0X].sXjXNXdX0X<X<X<XrXrXrXtXtXrXtXtXtXtXtXtX>XtXeXeXeXeXqXeXqXeXqX>X>X:X0X:X5.5.V.v.h.#. .&. .o.] ] ] ` ' } 3.",
">.>.1.,.1.1.1.1.BXsXsXsXbXdXtXtX<XrXrX,XrXrXrXrXrXrXrXrXrXtXtX<XtXeXeXeX:X:XqX>XqX>X>X:X:X<X-XC.B.h.h.k.X.$. . .' ] ] ' ' ` ` S ",
">.;.;.>.;.;.>.1.*XkX'.bXsXBXfXfX-XfXfXfXfXrX-X-X-X-X,X-XrXfXB.C.<X:X<X-X<X-X-X:X:X:X:X:X<X:X:XC.B.l.5.X. .$. .{ ' _ ` ] ' O.#.3.",
";.;.>.1.1.:.>.,.,.].sXgXU.BXU.BXZ.S.U.U.A.U.U.A.U.U.U.S.A.F.V.F.V.U.S.S.S.S.Z.S.S.S.S.U.fXS.fXBXA.U.V.$.o...[ ) ` ` ) ` ` 3.U.P ",
"=.;.;.;.-.-.-.-.;.sXsXS.A.A.A.S.;XF.F.F.F.F.F.F.F.F.F.F.m.m.w.8.r.y.q.m.m.m.F.m.d.y.r.y.0.x.D.F.F.b.j.j...` _ _ | VX8 ) | F.b.P ",
"7.7.7.6.7.7.6.=.0 9.n.D.F.F.V.lX*Xn.m.n.n.n.m.m.m.c.c.m.c.c.c.c.e.x.c.c.c.c.e.e.x.x.x.x.b.b.b.b.b.b.b.b.[ _ ) ) &.{ _ H.J.D.G.8 ",
"9.g.g.9.6.0.h.z.B.D.I.b.J.A.ZXjXiXm.J.m.m.c.b.b.x.x.x.x.0.8.0.i.w.j.0.G.d.G.G.d.d.H.H.L.J.G.G.J.H.H.H.G.9.9.i.9.&.@.O.k.H.J.J.8 ",
"*X6X`.| | | | M.~ M.N.f.B.wXlX2XB.J.J.k.k.j.9.9.i.i.i.i.0.i.i.i.i.i.i.i.u.u.G.G.j.j.j.j.G.H.H.H.G.H.H.H.j.$.u.u.+.+.O.8 9.$.#.8 "
};
