/* XPM */
static char *dc5e9cbc48cc4516b2f589766f54e4ce[] = {
/* columns rows colors chars-per-pixel */
"64 64 9 1 ",
"  c #010103",
". c #050305",
"X c #0E0C0C",
"o c #17120F",
"O c #241F1C",
"+ c #312C29",
"@ c #433D3B",
"# c #4D4847",
"$ c #645950",
/* pixels */
"++OoOO++OO++OooOOO++O+oOOOo+++O+++OoOO++OO++OooOOO++O+oOOOo+++O+",
"OO+O+OoOoo..XooOoXXoX. +.O++OO+oOO+O+OoOoo..XooOoXXoX. +.O++OO+o",
"O+O+oOooXXooo XXX   +OoX oO+oOOOO+O+oOooXXooo XXX   +OoX oO+oOOO",
"oo+.+o.X. XoOOoOO+ooX..Xo..O+oO+oo+.+o.X. XoOOoOO+ooX..Xo..O+oO+",
"XO.ooX.Xo++$@+++@+OO++XoXoX.OoOoXO.ooX.Xo++$@+++@+OO++XoXoX.OoOo",
"O+ooX.oO+ooO@$#@OO+@@++Oo.Xo.+XoO+ooX.oO+ooO@$#@OO+@@++Oo.Xo.+Xo",
"++o..o++OO++#@OOoO#@+O+oOo.X.O+@++o..o++OO++#@OOoO#@+O+oOo.X.O+@",
"##o...XXXoOOXOOooooooooooXX..oO+##o...XXXoOOXOOooooooooooXX..oO+",
"OXo.oo+@@##@$##@@+#@##@+@++..ooOOXo.oo+@@##@$##@@+#@##@+@++..ooO",
"+OoXooOo+O++OoooooO+$+$@o$@X.oOO+OoXooOo+O++OoooooO+$+$@o$@X.oOO",
"@+oXOO+OOO+oX   XXoO+@@$O@@OXoO+@+oXOO+OOO+oX   XXoO+@@$O@@OXoO+",
"#OoX+OO+o+oo     XXoO+O+++OOXoO@#OoX+OO+o+oo     XXoO+O+++OOXoO@",
"#+oXooOO+OX  XXXX  oOO+++OOoXoO@#+oXooOO+OX  XXXX  oOO+++OOoXoO@",
"@+o.XooOOoX XX  XX XOO+#OOoX.oO+@+o.XooOOoX XX  XX XOO+#OOoX.oO+",
"#Oo.XXooOoX X    X  oO$#OoXX.oO+#Oo.XXooOoX X    X  oO$#OoXX.oO+",
"OOX..ooOOo  X    X  oO++XX ..ooOOOX..ooOOo  X    X  oO++XX ..ooO",
"+Xo.+++#+o  X    X  oO@#++X..oOO+Xo.+++#+o  X    X  oO@#++X..oOO",
"+Oo.XO#++o          oO+OOoOX.oO++Oo.XO#++o          oO+OOoOX.oO+",
"@+o.O##++o          o+Oo+Oo+.oO@@+o.O##++o          o+Oo+Oo+.oO@",
"#+o.+#+OOo          oOOo+O+OXoO@#+o.+#+OOo          oOOo+O+OXoO@",
"#+o.OOOoOo          oOoOOoOoXoO@#+o.OOOoOo          oOoOOoOoXoO@",
"@Oo.XoOo+o          oOXo+OXXXoO+@Oo.XoOo+o          oOXo+OXXXoO+",
"#Oo.XXoO+o          oOXX$+OX.oO@#Oo.XXoO+o          oOXX$+OX.oO@",
"@OX...X+Oo          oO+o@OOo.oO@@OX...X+Oo          oO+o@OOo.oO@",
"ooo.+O+#Oo          oO@+OOo+.ooOooo.+O+#Oo          oO@+OOo+.ooO",
"+Oo.oOoo+o          oO$@$+OX oO++Oo.oOoo+o          oO$@$+OX oO+",
"@Oo.OOOO+o          oO@$$@Oo.oO@@Oo.OOOO+o          oO@$$@Oo.oO@",
"#+o.Oo+oOo.         oOO+@OOo.oO@#+o.Oo+oOo.         oOO+@OOo.oO@",
"@+o.oXoXOoX       XXoO++OOoX.oo+@+o.oXoXOoX       XXoO++OOoX.oo+",
"#Oo. ..XOOXXXXoXXXXXoO+#OoXX oO+#Oo. ..XOOXXXXoXXXXXoO+#OoXX oO+",
"@OO. O+++OoooooooooooO$#oO++ oO@@OO. O+++OoooooooooooO$#oO++ oO@",
"@OO  oo+@ooooooooooooO+++oo  oo@@OO  oo+@ooooooooooooO+++oo  oo@",
"+Xo.+++####@$##@@+#@##@+++X..oOO+Xo.+++####@$##@@+#@##@+++X..oOO",
"+Oo.XO#++O++O++@++O+$+$@OoOX.oO++Oo.XO#++O++O++@++O+$+$@OoOX.oO+",
"@+o.O##+OO@+++@@+@@++@@$+Oo+.oO@@+o.O##+OO@+++@@+@@++@@$+Oo+.oO@",
"#+o.+#+OoO+@#@+++@@+@+O++O+OXoO@#+o.+#+OoO+@#@+++@@+@+O++O+OXoO@",
"#+o.OOOoXOO+@+#++O#++O++OoOoXoO@#+o.OOOoXOO+@+#++O#++O++OoOoXoO@",
"@Oo.XoOoO+OOO+++Oo+oOO+#+OXXXoO+@Oo.XoOoO+OOO+++Oo+oOO+#+OXXXoO+",
"#Oo.XXoO+++oOXoOoooo++$#$+OX.oO@#Oo.XXoO+++oOXoOoooo++$#$+OX.oO@",
"@OX...X+++OOoOoooO@@#$++@OOo.oO@@OX...X+++OOoOoooO@@#$++@OOo.oO@",
"ooo.+O+#$@+++@@@#@+##$+OOOo+.ooOooo.+O+#$@+++@@@#@+##$+OOOo+.ooO",
"+Oo.oOoo+++OO+O@o$++O+@$$+OX oO++Oo.oOoo+++OO+O@o$++O+@$$+OX oO+",
"@Oo.OOOOO@+O+o+OoOOOO+++$@Oo.oO@@Oo.OOOOO@+O+o+OoOOOO+++$@Oo.oO@",
"#+o.Oo+o+OO++OoO+O+o+@+O@OOo.oO@#+o.Oo+o+OO++OoO+O+o+@+O@OOo.oO@",
"@+o.oXoXoOO+OoXO+OOOoooOOOoX.oo+@+o.oXoXoOO+OoXO+OOOoooOOOoX.oo+",
"#Oo. ..XooOooXXooo+@OoO+OoXX oO+#Oo. ..XooOooXXooo+@OoO+OoXX oO+",
"@OO. O++@@+OoXXoO+@$$#@+oO++ oO@@OO. O++@@+OoXXoO+@$$#@+oO++ oO@",
"@OO  oo+$$@+@++@++OOOOOO+oo  oo@@OO  oo+$$@+@++@++OOOOOO+oo  oo@",
"Oo. oOO@$@O++OoOoXoO++OoOXOo .OoOo. oOO@$@O++OoOoXoO++OoOXOo .Oo",
"X.o.Oo++$oO+@+OOoXOOOO+OooOX o.XX.o.Oo++$oO+@+OOoXOOOO+OooOX o.X",
"OOo. oo+@ooO@@+OooOO@+OoO+XX.oO+OOo. oo+@ooO@@+OooOO@+OoO+XX.oO+",
"@Oo. XOO+oX++++OXoO++OOoo+Xo.oO@@Oo. XOO+oX++++OXoO++OOoo+Xo.oO@",
"@+OX. XO+oXo+oOOoXoOOOoXOooXXO+#@+OX. XO+oXo+oOOoXoOOOoXOooXXO+#",
"#OOX. XoooXooXooX ooOooOoX..XO+##OOX. XoooXooXooX ooOooOoX..XO+#",
"#O@OX. oXXoXX  X  XooX .XX.XO@@@#O@OX. oXXoXX  X  XooX .XX.XO@@@",
"##O .OoOOO++@@@@++O@OO+++OXOoO####O .OoOOO++@@@@++O@OO+++OXOoO##",
"oooOO+oO++@++++@+OO+OOOOOOXO+OoooooOO+oO++@++++@+OO+OOOOOOXO+Ooo",
"+@+++#O++@###@@###@##+#@##X+++@++@+++#O++@###@@###@##+#@##X+++@+",
"O###$$OXXXXXXXXXXXXXXXXXXXX@@##+O###$$OXXXXXXXXXXXXXXXXXXXX@@##+",
"XXXXXOX  ... . .  .. .    X+XXXXXXXXXOX  ... . .  .. .    X+XXXX",
"XXXoXOX .XoXX..X.X....X.. XooXXXXXXoXOX .XoXX..X.X....X.. XooXXX",
"XXXXo+X.XOooOOoooOoOOoOoX.X+ooXXXXXXo+X.XOooOOoooOoOOoOoX.X+ooXX",
"ooooO+X                   X+OXXXooooO+X                   X+OXXX",
".XXXXXX                   XXXXXX.XXXXXX                   XXXXXX"
};
