/* XPM */
static char *dde8983feaf14518d4ca73670cede7d2[] = {
/* columns rows colors chars-per-pixel */
"64 64 12 1 ",
"  c #11100F",
". c #181716",
"X c #23211F",
"o c #292623",
"O c #2C2926",
"+ c #2F2C29",
"@ c #363330",
"# c #383532",
"$ c #3B3733",
"% c #403C38",
"& c #484440",
"* c #4B4641",
/* pixels */
"X ....          Xo++++OoooooooooX ....          Xo++++OOoooooooo",
"@ .XOXXOX...XX. @O+#$##%#+++##+o# .XOXXOX...XX. @o+#%##$#+++##+o",
"O.XO@OOX..XOX@O O+$%&%%$++#$#&%oO.XO#OOX..XOX@O ++#$&%%#++#%#&%o",
"X.@$@OOOXO@X..X X+&*&%%%#%&#++#oX.@#@OOOXO@X..X X+&*&%%%#%&#++#o",
"@X$@OOX@$@OXOX..##&*%%#&*&%#%#++@X#@OOX@$@OXOX..##*&$&#&*&%#%#++",
"@X@OOXXO@OO@@XO ##&$%##%&%%&&#%o@X#OOXXO@OO@@XO @#*$$##%&%%&&#%o",
"OXOXXOOXXO$@OX@ O#%##%%##%*&%#&oOXOXXOOXXO$@OX@ O#$#$%%$#%&&%#&o",
"X.X.XO@X@@OOXOO X+#+#%&#&&%%#%%OX.X.XO@X@@OOXOO X+$+$$*$&&%%#%%o",
"X..XO@O@$@$OO@O X++$%&%&*&*%&*$oX..XO@O@#@$OO@O X++#%&%&*&*%%&%O",
"O.XOO@OO@O@@OO@ O+#$%&%%&%&&$$*oO.XOO#OO#O@@OO@ O+#%%&%%&%&&%%&o",
"@.O@$XO$O@$@X@$ #+$&*#%*%&*&$&&o@.O@#XO#O@$@X@$ #+%&*#%*%&*&#&&O",
"@XO@O.@XX@XO@$@ #$%&%+&#$&$$&*&o@XO@O.#XX@XO@$@ ##%&%+&##&#%&&&o",
"@XXX.OOX@OOXXOX.@###+%$#&%%#$&#+@XXX.OOX@OOXXOX.@###+%%#&%$##%$+",
"@.X..OX@OOXXOOX.#+#O+%$&%%##$$#+@.X..OX@OOXXOOX.@+#++$#&%%$#$%$+",
"$...XX.XXX......#+++$#+###++++++#...XX.XXX......$+++##+#$#O+++++",
"@$@$@@OOOO@$@@OO######OOOO#$@@OO#####@OOOO@$@@OO######OOOO####OO",
"Xo++++ooOoooooooX ....          Xo++++oOooooooooX ....          ",
"@o+$$$$$#+++##+o@ .XOXXOX...XX. #O+#$##%#+++##+o@ .XOXXOX...XX. ",
"O+$%*%%$++#%#&$oO.XO#OOX..XOX@O OO$%&%%#++#%#&%oO.XO@OOX..XOX@O ",
"X+&&*%%$#%&#++$OX.@#@OOOXO@X..X X+&*&%%%#%&#++#oX.##@OOOXO@X..X ",
"##*&$$$**&%#%#++@X#@OOX@$@OXOX..##&&%%#&&&%#%#++@X##OOX@#@OXOX..",
"##&%%$$%&%%&&$$O@X#OOXXO@OO@@XO @#*$%##%&%%&&#%o@X@OOXXO#OO@@XO ",
"O#%#$%%$#%*&%#&OOXOXXOOXXO$@OX@ O#%$#%%##%*&%#&oOXOXXOOXXO##OX@ ",
"X+#+$$&#&&%%#%$oX.X.XO@X@@OOXOO X+#+#%&#&&%%#%%oX.X.XO@X@@OOXOO ",
"X++#%&%&*&*%%&%oX..XO@O@#@$OO@O X++#%&%&*&*%%&$OX..XO@O@##$OO@O ",
"O+$$%&%%&%&&%%&OO.XOO#OO#O@@OO@ O+#%%&%%*%&&%%&oO.XOO@OO@O@@OO@ ",
"#+%&*#%&%&*&#&&o@.O@#XO#O@$@X@$ #+%&*#%&$***$&*o@.O@$XO$O@$@X@$ ",
"@#%&%+&##&#%&&&o@XO@O.#XX@XO@$@ @#%&%+&##&$$&*&O@XO@O.@XX@XO@$@ ",
"@###+%%#&%$$#%#+@XXX.OOX@OOXXOX.####+%%#*&$#$$#+@XXX.OOX@OOXXOX.",
"@+#++%#&%%##%%#+@.X..OX@OOXXOOX.@+#++%#&$$$#&$#+@.X..OX@OOXXOOX.",
"$+++##+###++++++#...XX.XXX......#+O+##+###++++++$...XX.XXX......",
"@$@$@@OOOO#$##OO#####@OOOO@$@@OO#$####OOOO##@@OO@$@$@@OOOO@$@@OO",
"X ....          Xo++++oOooooooooX ....          Xo++++OOoooooooo",
"@ .XOXXOX...XX. #O+#$##%#+++##+o@ .XOXXOX...XX. @o+#%##$#+++##+o",
"O.XO@OOX..XOX@O OO$%&%%#++#%#&%oO.XO#OOX..XOX@O ++#$&%%#++#%#&%o",
"X.@$@OOOXO@X..X X+&*&%%%#%&#++#oX.@#@OOOXO@X..X X+&*&%%%#%&#++#o",
"@X$@OOX@$@OXOX..##&&%%#&&&%#%#++@X#@OOX@$@OXOX..##*&$&#&*&%#%#++",
"@X@OOXXO@OO@@XO @#*$%##%&%%&&#%o@X#OOXXO@OO@@XO @#*$$##%&%%&&#%o",
"OXOXXOOXXO$@OX@ O#%$#%%##%*&%#&oOXOXXOOXXO$@OX@ O#$#$%%$#%&&%#&o",
"X.X.XO@X@@OOXOO X+#+#%&#&&%%#%%oX.X.XO@X@@OOXOO X+$+$$*$&&%%#%%o",
"X..XO@O@###OO@O X++#%&%&*&*%%&$OX..XO@O@$@$OO@O X++#%&%&*&*%%&%O",
"O.XOO@OO@O#@OO@ O+#%%&%%*%&&%%&oO.XOO@OO@O@@OO@ O+#%%&%%&%&&%%&o",
"@.O@$XO$O@#@X@$ #+%&*#%&$***$&*o@.O@$XO$O@$@X@$ #+%&*#%*%&*&#&&O",
"@XO@O.@XX#XO@$@ @#%&%+&##&$$&*&O@XO@O.@XX@XO@$@ ##%&%+&##&#%&&&o",
"@XXX.OOX@OOXXOX.@###+%%#*&$#$$#+@XXX.OOX@OOXXOX.@###+%%#&%$##%$+",
"@.X..OX@OOXXOOX.@+#++%#&$$$#&$#+@.X..OX@OOXXOOX.@+#++$#&%%$#$%$+",
"$...XX.XXX......#+++##+###++++++#...XX.XXX......$+++##+#$#O+++++",
"@$@$@@OOOO##@@OO#$##@#OOOO##@@OO#####@OOOO@$@@OO######OOOO####OO",
"Xo++++OOOoOoooooX ....          Xo++++oOooooooooX ....          ",
"@o+#%##$#+++##+o@ .XOXXOX...XX. #O+#$##%#+++##+o@ .XOXXOX...XX. ",
"++#$&%%#++$%#&$OO.XO@OOX..XOX@O OO$%&%%#++#%#&%oO.XO@OOX..XOX@O ",
"X+&*&%%%#$&#++#oX.@$@OOOXO@X..X X+&*&%%%#%&#++#oX.##@OOOXO@X..X ",
"##**%%#&*&%#%#++@X$@OOX@$@OXOX..##&&%%#&&&%#%#++@X##OOX@#@OXOX..",
"@#*$$$#%&%%&&#%o@X@OOXXO@OO@@XO @#*$%##%&%%&&#%o@X@OOXXO#OO@@XO ",
"O#$#$%%##%&&%#&oOXOXXOOXXO$@OX@ O#%$#%%##%*&%#&oOXOXXOOXXO##OX@ ",
"X+$+$%&#&&%%#%%oX.X.XO@X@@OOXOO X+#+#%&#&&%%#%%oX.X.XO@X@@OOXOO ",
"X++#%&%&*&*%%&%OX..XO@O@#@#OO@O X++#%&%&*&*%%&$OX..XO@O@##$OO@O ",
"O+#%%&%%&%&&%%&oO.XOO@OO#O#@OO# O+#%%&%%*%&&%%&oO.XOO@OO@O@@OO@ ",
"#+%&*#%&%&*&#&&O@.O@$XO$O@##X@# #+%&*#%&$***$&*o@.O@$XO$O@$@X@$ ",
"@#%&%+&##&#%&&&o@XO@O.@XX@XO##@ @#%&%+&##&$$&*&O@XO@O.@XX@XO@$@ ",
"@###+%%#&%$##%$+@XXX.OOX@OOXXOX.####+%%#*&$#$$#+@XXX.OOX@OOXXOX.",
"@+#++%#&%%$#$%$+@.X..OX@OOXXOOX.@+#++%#&$$$#&$#+@.X..OX@OOXXOOX.",
"$+++##+#$#O+++++$...XX.XXX......#+O+##+###++++++$...XX.XXX......",
"####@#OOOO####OO@$@$@@OOOO@$@@OO#$####OOOO##@@OO@$@$@@OOOO@$@@OO"
};
