/* XPM */
static char *_67fbdac212a4473b64091f10d638674[] = {
/* columns rows colors chars-per-pixel */
"64 64 9 1 ",
"  c #020205",
". c #050205",
"X c #110A07",
"o c #151212",
"O c #211E17",
"+ c #312E27",
"@ c #413E37",
"# c #59564F",
"$ c #79726F",
/* pixels */
"X+.O.X..o++#@@++++OO++X.XOX.+oOXX+.O.X..o++#@@++++OO++X.XOX.+oOX",
"O+.O...oOOO#@@++@OO+OO+X.XO.O.OXO+.O...oOOO#@@++@OO+OO+X.XO.O.OX",
"Oo+.o.oO+ooO@$@$OOO++++OX.XO.+XOOo+.o.oO+ooO@$@$OOO++++OX.XO.+XO",
"$@XOo.O++O+@#+++O@@+#@@++X.OOX+$$@XOo.O++O+@#+++O@@+#@@++X.OOX+$",
"$++..o++OO++#@OOoO#@+@@oOo.X.O+@$++..o++OO++#@OOoO#@+@@oOo.X.O+@",
"#+O..XOoXoOO#$+OooO+OO++O+o..O++#+O..XOoXoOO#$+OooO+OO++O+o..O++",
"#+X...XXXoO+#@O+ooOoOoOooXX..oO+#+X...XXXoO+#@O+ooOoOoOooXX..oO+",
"@OX.X++$$#@###@@+@@@+OoXX..X.oO@@OX.X++$$#@###@@+@@@+OoXX..X.oO@",
"OXo.oo+@OooooXoO@@+@@+@#@++..ooOOXo.oo+@OooooXoO@@+@@+@#@++..ooO",
"+OoXooOoOooOOOoO+O++oO+Oo$@X.oOO+OoXooOoOooOOOoO+O++oO+Oo$@X.oOO",
"@+oXOO+O+oO+OoO++O++O+OoO@@OXoO+@+oXOO+O+oO+OoO++O++O+OoO@@OXoO+",
"#OoX+OO++O+OOOOO+@OXXOOo++OOXoO@#OoX+OO++O+OOOOO+@OXXOOo++OOXoO@",
"#+oXooOOooOooO+OO++ooXoO+OOoXoO@#+oXooOOooOooO+OO++ooXoO+OOoXoO@",
"@+o.XooOOOoooOOOOOO+OoXoOOoX.oO+@+o.XooOOOoooOOOOOO+OoXoOOoX.oO+",
"#Oo.XXooXXXXoooOO+OOooXXOoXX.oO+#Oo.XXooXXXXoooOO+OOooXXOoXX.oO+",
"OOX..ooO+oXXXXoo+Oo++@@+XX ..ooOOOX..ooO+oXXXXoo+Oo++@@+XX ..ooO",
"+Xo.+++####@$##@@+#@##@+++X..oOO+Xo.+++####@$##@@+#@##@+++X..oOO",
"+Oo.XO#++O++O++@++O+$+$@OoOX.oO++Oo.XO#++O++O++@++O+$+$@OoOX.oO+",
"@+o.O##+OO@+++@@+@@++@@$+Oo+.oO@@+o.O##+OO@+++@@+@@++@@$+Oo+.oO@",
"#+o.+#+OoO+@#@+++@@+@+O++O+OXoO@#+o.+#+OoO+@#@+++@@+@+O++O+OXoO@",
"#+o.OOOoXOO+@+#++O#++O++OoOoXoO@#+o.OOOoXOO+@+#++O#++O++OoOoXoO@",
"@Oo.XoOoO+OOO+++Oo+oOO+#+OXXXoO+@Oo.XoOoO+OOO+++Oo+oOO+#+OXXXoO+",
"#Oo.XXoO+++oOXoOoooo++$#$+OX.oO@#Oo.XXoO+++oOXoOoooo++$#$+OX.oO@",
"@OX...X+++OOoOoooO@@#$++@OOo.oO@@OX...X+++OOoOoooO@@#$++@OOo.oO@",
"ooo.+O+#$@+++@@@#@+##$+OOOo+.ooOooo.+O+#$@+++@@@#@+##$+OOOo+.ooO",
"+Oo.oOoo+++OO+O@o$++O+@$$+OX oO++Oo.oOoo+++OO+O@o$++O+@$$+OX oO+",
"@Oo.OOOOO@+O+o+OoOOOO+++$@Oo.oO@@Oo.OOOOO@+O+o+OoOOOO+++$@Oo.oO@",
"#+o.Oo+o+OO++OoO+O+o+@+O@OOo.oO@#+o.Oo+o+OO++OoO+O+o+@+O@OOo.oO@",
"@+o.oXoXoOO+OoXO+OOOoooOOOoX.oo+@+o.oXoXoOO+OoXO+OOOoooOOOoX.oo+",
"#Oo. ..XooOooXXooo+@OoO+OoXX oO+#Oo. ..XooOooXXooo+@OoO+OoXX oO+",
"@OO. O++@@+OoXXoO+@$$#@+oO++ oO@@OO. O++@@+OoXXoO+@$$#@+oO++ oO@",
"@OO  oo+$$@+@++@++OOOOOO+oo  oo@@OO  oo+$$@+@++@++OOOOOO+oo  oo@",
"+Xo.+++####@$##@@+#@##@+++X..oOO+Xo.+++####@$##@@+#@##@+++X..oOO",
"+Oo.XO#++O++O++@++O+$+$@OoOX.oO++Oo.XO#++O++O++@++O+$+$@OoOX.oO+",
"@+o.O##+OO@+++@@+@@++@@$+Oo+.oO@@+o.O##+OO@+++@@+@@++@@$+Oo+.oO@",
"#+o.+#+OoO+@#@+++@@+@+O++O+OXoO@#+o.+#+OoO+@#@+++@@+@+O++O+OXoO@",
"#+o.OOOoXOO+@+#++O#++O++OoOoXoO@#+o.OOOoXOO+@+#++O#++O++OoOoXoO@",
"@Oo.XoOoO+OOO+++Oo+oOO+#+OXXXoO+@Oo.XoOoO+OOO+++Oo+oOO+#+OXXXoO+",
"#Oo.XXoO+++oOXoOoooo++$#$+OX.oO@#Oo.XXoO+++oOXoOoooo++$#$+OX.oO@",
"@OX...X+++OOoOoooO@@#$++@OOo.oO@@OX...X+++OOoOoooO@@#$++@OOo.oO@",
"ooo.+O+#$@+++@@@#@+##$+OOOo+.ooOooo.+O+#$@+++@@@#@+##$+OOOo+.ooO",
"+Oo.oOoo+++OO+O@o$++O+@$$+OX oO++Oo.oOoo+++OO+O@o$++O+@$$+OX oO+",
"@Oo.OOOOO@+O+o+OoOOOO+++$@Oo.oO@@Oo.OOOOO@+O+o+OoOOOO+++$@Oo.oO@",
"#+o.Oo+o+OO++OoO+O+o+@+O@OOo.oO@#+o.Oo+o+OO++OoO+O+o+@+O@OOo.oO@",
"@+o.oXoXoOO+OoXO+OOOoooOOOoX.oo+@+o.oXoXoOO+OoXO+OOOoooOOOoX.oo+",
"#Oo. ..XooOooXXooo+@OoO+OoXX oO+#Oo. ..XooOooXXooo+@OoO+OoXX oO+",
"@OO. O++@@+OoXXoO+@$$#@+oO++ oO@@OO. O++@@+OoXXoO+@$$#@+oO++ oO@",
"@OO  oo+$$@+@++@++OOOOOO+oo  oo@@OO  oo+$$@+@++@++OOOOOO+oo  oo@",
"Oo. oOO@$@O++OoOoXoO++OoOXOo .OoOo. oOO@$@O++OoOoXoO++OoOXOo .Oo",
"X.o.Oo++$oO+@+OOoXOOOO+OooOX o.XX.o.Oo++$oO+@+OOoXOOOO+OooOX o.X",
"OOo. oo+@ooO@@+OooOO@+OoO+XX.oO+OOo. oo+@ooO@@+OooOO@+OoO+XX.oO+",
"@Oo. XOO+oX++++OXoO++OOoo+Xo.oO@@Oo. XOO+oX++++OXoO++OOoo+Xo.oO@",
"@+OX. XO+oXo+oOOoXoOOOoXOooXXO+#@+OX. XO+oXo+oOOoXoOOOoXOooXXO+#",
"#OOX. XoooXooXooX ooOooOoX..XO+##OOX. XoooXooXooX ooOooOoX..XO+#",
"#O@OX. oXXoXX  X  XooX .XX.XO@@@#O@OX. oXXoXX  X  XooX .XX.XO@@@",
"##O .OoOOO++@@@@++O@OO+++OXOoO####O .OoOOO++@@@@++O@OO+++OXOoO##",
"oooOO+oO++@++++@+OO+OOOOOOXO+OoooooOO+oO++@++++@+OO+OOOOOOXO+Ooo",
"+@+++#O++@###@@###@##+#@##X+++@++@+++#O++@###@@###@##+#@##X+++@+",
"O###$$OXXXXXXXXXXXXXXXXXXXX@@##+O###$$OXXXXXXXXXXXXXXXXXXXX@@##+",
"XXXXXOX  ... . .  .. .    X+XXXXXXXXXOX  ... . .  .. .    X+XXXX",
"XXXoXOX .XoXX..X.X....X.. XooXXXXXXoXOX .XoXX..X.X....X.. XooXXX",
"XXXXo+X.XOooOOoooOoOOoOoX.X+ooXXXXXXo+X.XOooOOoooOoOOoOoX.X+ooXX",
"ooooO+X                   X+OXXXooooO+X                   X+OXXX",
".XXXXXX                   XXXXXX.XXXXXX                   XXXXXX"
};
