/* XPM */
static char *_3251_e1ca942e39bd731f5aa7a06d5c712197ad64344b30e948e567b87beb75a1cb7f[] = {
/* columns rows colors chars-per-pixel */
"64 64 254 2 ",
"   c #0D0C0D",
".  c #17181B",
"X  c #211D1C",
"o  c #1D1C24",
"O  c #1A2122",
"+  c #28282A",
"@  c #332F2D",
"#  c #282A34",
"$  c #332F39",
"%  c #2C353A",
"&  c #373737",
"*  c #423130",
"=  c #423C39",
"-  c #3F413E",
";  c #42413C",
":  c #4B473D",
">  c #56483C",
",  c #2C3441",
"<  c #393A46",
"1  c #393B53",
"2  c #453E49",
"3  c #463E52",
"4  c #3A4448",
"5  c #3A4755",
"6  c #3C5254",
"7  c #3B4D61",
"8  c #474746",
"9  c #4C4C4B",
"0  c #524B48",
"q  c #4C554B",
"w  c #57544B",
"e  c #464857",
"r  c #4D4B54",
"t  c #554C54",
"y  c #485557",
"u  c #545453",
"i  c #585857",
"p  c #5C5C5A",
"a  c #64574A",
"s  c #635B59",
"d  c #4D615E",
"f  c #5B635B",
"g  c #64635C",
"h  c #696658",
"j  c #766C5B",
"k  c #7A745E",
"l  c #4B4C63",
"z  c #544E66",
"x  c #495866",
"c  c #565966",
"v  c #4B5974",
"b  c #565B75",
"n  c #645C67",
"m  c #655D72",
"M  c #4C6568",
"N  c #586768",
"B  c #56716B",
"V  c #596678",
"C  c #5A7276",
"Z  c #656666",
"A  c #6D6B65",
"S  c #6C6C6B",
"D  c #776A68",
"F  c #68746B",
"G  c #787767",
"H  c #73726C",
"J  c #686678",
"K  c #766D76",
"L  c #697677",
"P  c #777676",
"I  c #7C7C74",
"U  c #7D7D7C",
"Y  c #89745A",
"T  c #877868",
"R  c #877070",
"E  c #877A78",
"W  c #5F836D",
"Q  c #6C887B",
"!  c #77847A",
"~  c #86846B",
"^  c #94876C",
"/  c #878579",
"(  c #988979",
")  c #98957B",
"_  c #A68C75",
"`  c #A69579",
"'  c #545C86",
"]  c #625F84",
"[  c #596888",
"{  c #5B7688",
"}  c #5B7394",
"|  c #676B86",
" . c #756B86",
".. c #667688",
"X. c #797887",
"o. c #706D95",
"O. c #677896",
"+. c #767897",
"@. c #707AA4",
"#. c #847887",
"$. c #91768B",
"%. c #837892",
"&. c #857DA8",
"*. c #A97DA8",
"=. c #688589",
"-. c #788687",
";. c #6A968A",
":. c #668695",
">. c #768599",
",. c #6A9696",
"<. c #779791",
"1. c #6B88A6",
"2. c #7789A8",
"3. c #738DAF",
"4. c #779AA4",
"5. c #7A96B9",
"6. c #7AA7AD",
"7. c #7896C6",
"8. c #7DA8C4",
"9. c #888886",
"0. c #958987",
"q. c #8B9389",
"w. c #9A9887",
"e. c #94938D",
"r. c #898796",
"t. c #978A99",
"y. c #869696",
"u. c #989997",
"i. c #A69886",
"p. c #AD938D",
"a. c #A79999",
"s. c #86A599",
"d. c #99AD96",
"f. c #98A39A",
"g. c #AAA388",
"h. c #A7A69A",
"j. c #B7AA99",
"k. c #B0B092",
"l. c #B9B797",
"z. c #888AA6",
"x. c #9589AA",
"c. c #9694A8",
"v. c #978DB4",
"b. c #8795B0",
"n. c #9898B5",
"m. c #A89AA6",
"M. c #AC96B0",
"N. c #8AA8A6",
"B. c #98A9A5",
"V. c #8AA9B7",
"C. c #93B3B3",
"Z. c #93B6B5",
"A. c #A9A9A6",
"S. c #B6A6A8",
"D. c #A7B3A8",
"F. c #B6B7A8",
"G. c #A7A7B5",
"H. c #B6AABA",
"J. c #A9B8B4",
"K. c #B8B9B5",
"L. c #C6B298",
"P. c #C7BBA7",
"I. c #C8AEB1",
"U. c #C5B8B8",
"Y. c #D5BAB7",
"T. c #96C7B0",
"R. c #BAC2A9",
"E. c #B0C9B8",
"W. c #CAC698",
"Q. c #C8C7AA",
"!. c #D6CAA8",
"~. c #D7D6AD",
"^. c #C8C7B8",
"/. c #D6C8B9",
"(. c #C9D4BE",
"). c #D7D5B8",
"_. c #E6CCB1",
"`. c #E8D6B8",
"'. c #E9E8BA",
"]. c #F6EBBC",
"[. c #F6F7B9",
"{. c #8897CC",
"}. c #9599C6",
"|. c #AA9BCB",
" X c #88A9C8",
".X c #8FABCF",
"XX c #96B6D8",
"oX c #A8A8C8",
"OX c #B5A9C6",
"+X c #A9B2CE",
"@X c #B8B7C8",
"#X c #A4B6DA",
"$X c #B6B9DA",
"%X c #99B5E9",
"&X c #AEB4E9",
"*X c #B8BAE7",
"=X c #A7B7F4",
"-X c #CCB3CF",
";X c #C5BAC9",
":X c #E8A9DD",
">X c #D0B5E7",
",X c #97CBD1",
"<X c #A6C7CA",
"1X c #B4D1CF",
"2X c #BAC6D8",
"3X c #B9F2D0",
"4X c #9AD4EB",
"5X c #9BCAF9",
"6X c #9AD6F6",
"7X c #A7C6E9",
"8X c #B7C8E6",
"9X c #A5C7F5",
"0X c #A7D9F5",
"qX c #B5D4F1",
"wX c #97E2EC",
"eX c #9AE5F7",
"rX c #ABE7EC",
"tX c #A8EBF5",
"yX c #AAF6FB",
"uX c #B7F9FA",
"iX c #C9C8C7",
"pX c #D3C8C8",
"aX c #CDD3C8",
"sX c #D7D7C8",
"dX c #CAC9D6",
"fX c #D3C9D6",
"gX c #CAD7D7",
"hX c #D3D3D3",
"jX c #DAD9D7",
"kX c #E7DAC6",
"lX c #E9D2D5",
"zX c #D4EED4",
"xX c #E9E6C7",
"cX c #F6EAC9",
"vX c #FBF9CA",
"bX c #E6E6D6",
"nX c #F0EFD6",
"mX c #F8F9D7",
"MX c #CECEE8",
"NX c #EED4EB",
"BX c #CAEBEB",
"VX c #D7F8E7",
"CX c #C4FBF7",
"ZX c #D8FCF6",
"AX c #E4E4E3",
"SX c #EBEBE9",
"DX c #F7EBEC",
"FX c #E7F7E7",
"GX c #F9FAE7",
"HX c #E7FDF9",
"JX c #F4F4F3",
"KX c #F8F7F6",
"LX c #FCFCF4",
"PX c #FFFFFF",
/* pixels */
"PXPXPXPXPXPXPXPXPXPXPXPXPXPXPXPXPXPXPXPXPXPXPXPXPXKXKXJXJXDXAXjXhXjXAXJXJXKXKXLXPXPXPXPXPXPXPXPXPXPXPXPXPXPXPXPXPXPXPXPXPXPXPXPX",
"PXPXPXPXPXPXPXPXPXPXPXPXPXPXPXPXPXPXPXPXPXPXJXjXiXA.X.S s Z A H G G j a w A 9.J.aXjXKXPXPXPXPXPXPXPXPXPXPXPXPXPXPXPXPXPXPXPXPXPX",
"PXPXPXPXPXPXPXPXPXPXPXPXPXPXPXPXPXPXPXPXjXA.r.+.] | +.S.cXw.F.F.F.) cXl.i.i.E D N X.y.G.AXPXPXPXPXPXPXPXPXPXPXPXPXPXPXPXPXPXPXPX",
"PXPXPXPXPXPXPXPXPXPXPXPXPXPXPXPXPXPXhXI ( r.&.o.o.&.v.l $X& !.R.K.9 '.8 L.S.t.J n.+X2.y.U 9.AXPXPXPXPXPXPXPXPXPXPXPXPXPXPXPXPXPX",
"PXPXPXPXPXPXPXPXPXPXPXPXPXPXPXPXJXF S S._ E -X< |.{. .# %Xl iXA w.~ cXw `.n +.& +Xb M F E.R.f ! PXPXPXPXPXPXPXPXPXPXPXPXPXPXPXPX",
"PXPXPXPXPXPXPXPXPXPXPXPXPXPXPXA.: !.^.y $.2 _.0 OXb {.>X9Xb .Xb H.jX; h P.I j.R dX< FX'.G h ~.d.9 hXPXPXPXPXPXPXPXPXPXPXPXPXPXPX",
"PXPXPXPXPXPXPXPXPXPXPXPXPXSX/ ~ [.h G '.~.9 a.p.0.p.3 e 3 7 ,X,.L t & 8 E 2 0.;XN.! Q.h '.! ) '.E.8 A.JXPXPXPXPXPXPXPXPXPXPXPXPX",
"PXPXPXPXPXPXPXPXPXPXPXPXhX! w.W.[.: [.` s ~.S.I R _.$.M.{.o.x 6 4 0 `._.D h b 5 % ).~ ) ~ a zX- L B.N 9.AXPXPXPXPXPXPXPXPXPXPXPX",
"PXPXPXPXPXPXPXPXPXPXPXK.! h.w.h k.W.k ~.h h ^ w.i.$.s @ n b.qX4XC 2XjXnXSXa.i u.f.) / 0.j.xXN .XrX/ s.) S fXPXPXPXPXPXPXPXPXPXPX",
"PXPXPXPXPXPXPXPXPXPXh.-.E.E Q.~ ~ [.w ` h & D p.S.E D m.lXMX=X9X:.x b i.`.E A.mXxXp.D a.a.p -.qXg F.w.E R.Z iXPXPXPXPXPXPXPXPXPX",
"PXPXPXPXPXPXPXPXPXm.<.<Xf gXq.w.'.h ) l.) !.: @ @ @ w iX:X-X=X9X6XC y.u.$ J gXAXAXMXH.t E !.FXZ a.E & j.vXj.A aXPXPXPXPXPXPXPXPX",
"PXPXPXPXPXPXPXPXK.=.tXx N.rXF d.q E.W.= k.[.[.Q.: 2 M.* m.-XfX=X6X6.-.mX/ | BXgXNXBXBXA.+ ; u H p <X+XhX8 w P.H AXPXPXPXPXPXPXPX",
"PXPXPXPXPXPXPXjX{ 8.XXtXM Z.,XN zX-.. 8 R.[.[.vX`.R :X:X3 >X|.>X5X1.>.GXR.| oXZ i M q F 1XBXgXN Z B 2Xr G.m.D R 9.JXPXPXPXPXPXPX",
"PXPXPXPXPXPXKX-.4.{ 5 4.tXd <.T.f 4 4 1Xq.! g.[.vXj.2 *.$.+ z OXMX7 ,XuXh.f =.BXZXZX3Xs.F F ! F f N 8 @XJ.t.r.%.x A.PXPXPXPXPXPX",
"PXPXPXPXPXPXB.{ 1.8.{ :.6.y V { :.4.<.y B.aX! G mXvX/.n $.m  .m +.e 0XeXN h f.y.N.Z.Q 4 ! D.d.h.q.8 N <.N F N.Q 4.r hXPXPXPXPXPX",
"PXPXPXPXPXAXl {.{ 3.{ C V 4 M ;.,.=.N r J.HXGXI k.vXmXlX|.&X>Xv.2 o.*X:.O -.R.R.J.s.J.h.f e.f.D.J.T.e./ F W q B G.Y.9 PXPXPXPXPX",
"PXPXPXPXPXi oXb %X[ . # M ,X4XrXwXrX1Xy.T.HXFXD.: GXvXcXNXMXqXMX+.o l ' .XeXCXGXnXFXVX^.A./ I ! 9.f.F.(.sXaX! ! K.j.X.e.PXPXPXPX",
"PXPXPXPXK.I dXe >.1 # XXeX0XtXtXrXyX,Xq p & 9 U f q ~.vX_.$.C ,X>.n.9 y b x M =.U.n Z a.a.K i i i 4 t / H ! E.E.$ @ <Xr DXPXPXPX",
"PXPXPXPXi lX/.gXb o | @.:.V. X8.4.x % 4 N.ZXLXmXl.: = / ; ) ( d C ,XyXBXBX0X9XXX% & t.DXDXDXZXGXGXmXQ.q g d.Q %.H.t 4 d.9.PXPXPX",
"PXPXPXJ.g.e.= s V 2.5.3.@.O.C x 6 W 4.B N -.h.9.G '.[.^ '.k.h - P =.zXVXzXFXZXqX0XC F $.MXBXzXzXnXxXzX3XP D #.m.E B.p f.K SXPXPX",
"PXPXPXU iX& A r.8X5.[ { { ..O.C ,.8.yXuXuX<Xq @ F.vXmXmX) h ~.) f k ^ W.W.k.) q.Z.<X-.N.! ;.T.T.s.6.Z.dX/.t r.r.-X$.#.P -.D.PXPX",
"PXPXhX0.9.@ D.+Xl b [ 8. X5.x 3.eXeXeXyXrXC.Q <.f.h k w W [.'.! l.h q - D.l.W.S.M.t q HXaXF.f.q.j.R.w.= P i iXe.A.lXa.i A u.KXPX",
"PXPXA.x.e +X>.1 +.1 } =XqX XO.9X5X6X6X,.6 ,.C.L 8 A.sXsXvXvXk ~ vXzX1XQ u l.[.mX:X:X .A.DXcXvX[.[.[.[.g.o : A iXJ fXjXt.f 9.AXPX",
"PXKXc.3 z.z e o.o @.*X*X&X2.3.=X5X4XJ M tXuXuXuX1X4 q w./ X + nXFXuXyXZXkX~ 0 t t.NXOX,.HXNXnX[.[.[.lXm -XNXm.<.E.Q 1X1Xe.u fXPX",
"PXAX..c b b &.o 3 @.=X&X] z b 3.1.5 1.eXwXQ % 4 x L q.q./ a w.f B =.,.D.).'.lXNXv.y C.d d.u.8 g.`.kXSXc NXfXd.B <X! s.BXG.8 J.PX",
"PXjXe e z &.. $ z e o.|.# b 1 o e b.8.:.6 M <.s.=.J.E.9.! cXHXuXyXwX4XT.y./ $.M.-X+X$ N 4.f.X.s t u.JXp 1XQ W B y.dXJ u.c.F X.KX",
"PXfX< $ z < n ] o.< z z l 2.1.3.1.:.;.M - ;.<XM y f.S q mXVXyXeXeX6XyXuXZXGXkXM.J 4.B d ;.! d.f i r.F & L <.T.3X4 3.9X| b N r KX",
"PXK.3 2 m . J l &.3 OXm @.v 5X9X6XwXwX,.6 rXd y BXf.q.jXBX6X5X9X6X4XuXyXuXFXcXNX2XN q Q E.E.VXE.N N.6.T.3XT.f q L 4 ..5.>.e & JX",
"KXc.b %.K b $ o $ z.=X] 5.O.7.6XeXeXyX,.C M q C.T.U ZXCX4X8X*X=X5X0XtX0XqXrXVXlXMX#X# Q zXzXzXFXnXgX;.zXVXy.J.r.N.M s.y + M 4 DX",
"LXr.' z.{.3 l @.o.=X#X# %X3.1.eXtXeX6.< % =.6 4X4 ,X4XrX%X}.|.&X=XqX7X>.c V F j.NXjX-.W 3XzXzXzXaX(.h.S Z y HXD.r.=.<XN.M C.f AX",
"KX>.' | {.{.%X%X1 , , 7.%X1.6.0X6X8Xy yX:.6.M 4 6 C B V V +.-X*X*X>X+.S m.u.<XJ.w.K B.q W h S.A.p P S u.y ,XZXQ.u.4.6.yXuXVX! aX",
"KX9.@.' ] o.l {.1 ' 5X5X%Xv XX9X8XiXr { % M M B ,.4 y J }.fXt.|.>X>Xr.0 g N 4 B F.E M.+ T.(./ + DXPXhX# XXuXZX+X,.6.B Z.N.E.L iX",
"KXr.{.%X%X%X7 7.[ ..v @.v +.qX8XdX;Xv.< . 6.6.x o ,. X..9 R p.v.MXM.P & ^.7X-.. ` '.S.+ C.zX(.9 DXDXPX8 MXZXCX+X:.,XC.6.U U c aX",
"KX%.7..X7.%Xv 7.O.7Xb.} 4 oX&Xc r.+XoX< # ,XeX,Xv | b.J n p.0.M.MXt.e.j Z N =.R.mX[.j.. U F D.. 9.NXKX8 1XHXMXoX<.3XC.<XS.#.r jX",
"KXr.' v , 7.' 3.O.%X&X#Xb.z oXZ + oXb.% # V.tX4X7X$XOX|.I._.0.I.lXlXj.kX).;X7XBXVXzXD.X - i % F P A.A.Z @XqXhXb.Z.L J r p.( = SX",
"PXG.' 3.O.7.@.@.+.+X;XH.$XJ %.+.o , , C 4 ,.XX9X9X$XoX;XU._.i.L.cXcXcX`.kX/.iXrXuXCXd.& . u A.D.q.P i m.4XgXMX{ ,X5 2Xs p.i.w JX",
"PX1Xv O.{.v O.| >.n.dX+XdX.X| r.+.5 ..V O.M 8X8X&X$X@X-XY.`.i.!.vXvXmXsXxX).iX7X0XrX-.-.# 4 Z h.U u Z G.8X;X7X{  X4 ).> T _ s JX",
"PXdXb [ 7.' } .X>.z.7X=XXX%X2.l 5 c c [ V 1 }.oX-XpXY./.U./.G vXmXmXGXnXxXkXU.dX9XXXx <X-.p S u P @ 9 +XaX>XXX| 2.n cX^ T _ P LX",
"PXjX| v  X5X7.@.2.>.7X#X%X7X4.c e L 9 +.oXm x.oX-XY.Y._.I._.E cXLXLXF.mXnXcXsX/.$X#X. 2.dXE u g u g i fX^.H.b...z.t G L.].` h.KX",
"PXDX>.} , 7 :.O.<.L  X7XXX$XXX% r.# H.G.oXJ t H.U./.Y.pXi a w s e.e.E GXmXnXkX/.;X..V | u.F.~ @ H f.A.U.Y.pX@.X.I.P.H.T T / iXPX",
"PXPXu.O.%X5X7XV.O.J V.8X7XMX*XoX% m pXfX%.o . H.U.H.oXH.U.!.vXaXaXGXGXmXmXnXxXkXU.. +.e A j.u.& h.f.U.S.bX/.| K t _ U.S.~ ^ jXPX",
"PXPXK.>..Xv , oX+.2.L %X9XMX*X$Xn.Z oXo.e 3 Z t @XdXoX;X`.!.g.A 9 a.GXnXmXmXkXsXq D $ w.s ! A.@ A.i.P.lX/.Y.m o.a.& l.) ) f.JXPX",
"PXPXSXL +.b n.....2.l }.&X8XfXU.MX< z.3 m & J 9 M.;X;Xw.g.~ w.aXiXu.F.e.).mXnX/ 9 Y.s L.0 @ g 8 D.P.Q./.I.E %.| {.u cXh k.A.PXPX",
"PXPXPXX.n.r $Xy v b.}.e 8XgXsX/.jX8 + e # t.; M.t m.pXK s h / s 9.S i h.).GXw.0 sXA w.P.w . H & K.~.`.!.p.g p.%.z.s I h.e.jXPXPX",
"PXPXPXjXb z.J  X}.r.v.P ..>XsXkXkX$ 2 . + 0.E m }.r h._.P.w.j.F.A.R.).GXGX) g sX~ ! (./ + G F.0 ).Q.xX].0 ~.G K ;Xl./ aX9.PXPXPX",
"PXPXPXPXZ v.z z.l  .< H.r n.sXnXkXE n c 8 w M.< v.x.r ( `.'.nXnXSXKXLXLX/ p SXk.H aXh.%   Q.= h.F.Q.xXj k.nXkXE t ^.xXG jXPXPXPX",
"PXPXPXPXSX$ G.< v.$Xc.3 @X2 iXsXsXS.E + 8 K {.}.$ ;XU.0 ( ].vXLXLXGXGXP 9 GXR.Z bXbXu & S w.f aXF.sXw.~ /.+ A K.u.#.^.K PXPXPXPX",
"PXPXPXKXPX9.J MXv.e v.J | z.S jXAXhX^.< < 3 OX-X0.a ).`.w ( ).bXbX^.i 8 LX^.H hXnXjXP P A.f F.aXsXQ.h Q.= kXs z.z bXu JXPXPXPXPX",
"PXPXPXPXPXPX9 c.n  .n n., OXE 9.AXjXA.J &.z K fXpX0.T ~.vX~ y f u S F.GXJ.E E.9.iXH F.A.A.Z F.bXE.G l.g ).( R #.t.P J.PXPXPXPXPX",
"PXPXPXPXPXPXhXi t.%.x.t x.x.u.E / pX9.+.o.}. .K E j.j.i ( h.A.h.A.A.e.q.; Z 0.h.S D.LXe.F.f R.h.E sXh F.DX= D  .K X.PXPXPXPXPXPX",
"PXPXPXPXPXPXKXA.J o. .@Xc.c S a.F.p H v.%.|.-X .2 w p H h./ F Z u.8 ; i A.A.g @ iXLXLXe.F.q H G j.Q.Q.Z bXp.R t.K SXPXPXPXPXPXPX",
"PXPXPXPXPXPXPXKXU +.J b e +XaXP e.sX0 x.%.v.NX-Xt = P.9.s w u p K.(.@ i S 0.SXF.8 H e.H aX+ w.R.w h ^.aX0 Y.P.A hXPXPXPXPXPXPXPX",
"PXPXPXPXPXPXPXPXSXt }.[ #XO.u jXp e.F.J  . .#.2 t.S.0 ~ I @ h.jXw ^.SXi 8 S S bXbXj./ (.f./ g.8 `.k i.bX8 S.E K.PXPXPXPXPXPXPXPX",
"PXPXPXPXPXPXPXPXPXbXu 7.#Xe c.A 9 bXH e v.&.x.t.n h / G Q.mXw Z p 8 ; h R.S 9.& i q.e.h.h q h '.k ^ ).f $.D u.PXPXPXPXPXPXPXPXPX",
"PXPXPXPXPXPXPXPXPXPXAXi :.+.X.G.iXF.c e.r o.x. .t.s s P.).xXSXsXGXLXjXSXsX/ & E S w & @ ) ) ~ W.> ` G U.D A.PXPXPXPXPXPXPXPXPXPX",
"PXPXPXPXPXPXPXPXPXPXPXSXX.{ 2.X.e.t sXe.H.2 J K w i.i.i.) ) e.9.e.q.9.e.u.h.F.R.8 & G g.> L.a ^ T a w.U U.PXKXPXPXPXPXPXPXPXPXPX",
"PXPXPXPXPXPXPXPXPXPXPXPXJXA.x b.U S.e.e.P , -Xe t.E j E !.k.k.K.K.aXR.9.I Z g xX8 !.^ j ^ W.a : L.> 9.jXPXPXPXPXPXPXPXPXPXPXPXPX",
"PXPXPXPXPXPXPXKXJXKXPXPXPXKXdX8 9.jXi K hXOX|.3 >XI.Y.s '.; / P 9 A./ D l.~.T k.j ` k Y ^ * ^ ` @ u.JXPXPXPXPXPXPXPXPXPXPXPXPXPX",
"PXPXPXPXPXPXPXPXPXPXPXPXPXPXPXPX! < oXb.e  .c t.r.& 2 s L.j '.kXh.i.^ g.l.> > g.` a _ X Y L.j 9 jXPXPXPXPXPXPXKXPXPXPXPXPXPXPXPX",
"PXPXPXPXPXPXPXPXPXPXPXPXPXPXPXPXPXAXg Z .Xb.e MXK M.OXH.$.s 0.s P g.) ~ ^ T W.` Y > _ ^ T 8 S.PXPXPXPXPXPXPXPXPXPXPXPXPXPXPXPXPX",
"PXPXPXPXPXPXPXPXPXPXPXPXPXPXPXPXPXPXPXfXU U X.x.%.K #. .n p.D 0.F.S.( E p.a Y D T ^ w.U S.PXPXPXPXPXPXPXPXPXPXPXPXPXPXPXPXPXPXPX",
"PXPXPXPXPXPXPXPXPXPXPXPXPXPXPXPXPXPXPXPXPXAXJ.u.e.#.J m J +. .| $.R R 0.T Y R R e.A.fXPXPXPXPXPXPXPXPXPXPXPXPXPXPXPXPXPXPXPXPXPX",
"PXPXPXPXPXPXPXPXPXPXPXPXPXPXPXPXPXPXPXPXPXPXPXPXSXjXfXiXG.e.r.9.9.0.u.A.K.iXhXbXKXPXPXPXPXPXPXPXPXPXPXPXPXPXPXPXPXPXPXPXPXPXPXPX",
"PXPXPXPXPXPXPXPXPXPXPXPXPXPXPXPXPXPXPXPXPXPXPXPXPXPXPXPXPXKXKXKXPXKXKXKXPXPXPXPXPXPXPXPXPXPXPXPXPXPXPXPXPXPXPXPXPXPXPXPXPXPXPXPX"
};
