/* XPM */
static char *Free_Converter_com_versace_54782444[] = {
/* columns rows colors chars-per-pixel */
"64 63 255 2 ",
"   c #1A0B0A",
".  c #1E170B",
"X  c #1D1514",
"o  c #1D1A14",
"O  c #1D151A",
"+  c #1B1A1B",
"@  c #1E1B1C",
"#  c #260F09",
"$  c #23150C",
"%  c #291608",
"&  c #241A0D",
"*  c #2C1B0C",
"=  c #351B09",
"-  c #231514",
";  c #291515",
":  c #231B15",
">  c #2B1C13",
",  c #22161A",
"<  c #241C1A",
"1  c #291D1B",
"2  c #341D14",
"3  c #2B230B",
"4  c #34230A",
"5  c #3A260B",
"6  c #252014",
"7  c #2C2114",
"8  c #25211C",
"9  c #2A211C",
"0  c #332314",
"q  c #3C2512",
"w  c #3C2A12",
"e  c #38271A",
"r  c #3C3015",
"t  c #241C22",
"y  c #281B23",
"u  c #2B2422",
"i  c #292524",
"p  c #342A27",
"a  c #332D2B",
"s  c #37322D",
"d  c #3B3533",
"f  c #3C3837",
"g  c #45290B",
"h  c #4E300C",
"j  c #54340B",
"k  c #462813",
"l  c #432C14",
"z  c #442C1A",
"x  c #473615",
"c  c #4C3414",
"v  c #44331B",
"b  c #4B351B",
"n  c #4C3A1C",
"m  c #523314",
"M  c #543B1C",
"N  c #583A18",
"B  c #653A0A",
"V  c #653C19",
"C  c #432D25",
"Z  c #4A3723",
"A  c #543B23",
"S  c #583B25",
"D  c #433B37",
"F  c #513A31",
"G  c #623F24",
"H  c #58441A",
"J  c #5C431C",
"K  c #64441C",
"L  c #68471A",
"P  c #6B4B1C",
"I  c #734B16",
"U  c #68541E",
"Y  c #74521D",
"T  c #7A581C",
"R  c #7D621E",
"E  c #594727",
"W  c #5C4424",
"Q  c #50452F",
"!  c #634523",
"~  c #644B24",
"^  c #6B4C23",
"/  c #68492B",
"(  c #724C24",
")  c #685326",
"_  c #6C532A",
"`  c #775624",
"'  c #73552B",
"]  c #745B2C",
"[  c #7C5B2B",
"{  c #664B33",
"}  c #6B5536",
"|  c #785934",
" . c #7B622A",
".. c #7B6536",
"X. c #453F44",
"o. c #494644",
"O. c #534E4C",
"+. c #5B5655",
"@. c #645952",
"#. c #7D6644",
"$. c #67625B",
"%. c #706B68",
"&. c #8E5D15",
"*. c #885A1B",
"=. c #87631D",
"-. c #94641D",
";. c #986A1C",
":. c #99721A",
">. c #A3721C",
",. c #845C27",
"<. c #925D24",
"1. c #855D32",
"2. c #886627",
"3. c #84632B",
"4. c #8D6B2B",
"5. c #946B23",
"6. c #9B6B24",
"7. c #936828",
"8. c #9B6D2C",
"9. c #8C712A",
"0. c #9B7424",
"q. c #9D732D",
"w. c #99782A",
"e. c #836434",
"r. c #856737",
"t. c #8C6C32",
"y. c #8C6B3B",
"u. c #946C36",
"i. c #8A7339",
"p. c #937334",
"a. c #9C7433",
"s. c #9C7A34",
"d. c #93743B",
"f. c #9B743B",
"g. c #937A3B",
"h. c #9C7B3B",
"j. c #A16C26",
"k. c #A47523",
"l. c #A87A25",
"z. c #A3752C",
"x. c #AB762D",
"c. c #A47A2C",
"v. c #AB7C2D",
"b. c #B17D2B",
"n. c #A16E34",
"m. c #A37433",
"M. c #A47C33",
"N. c #AB7C33",
"B. c #A77539",
"V. c #A37D3B",
"C. c #AC7D3B",
"Z. c #B27D35",
"A. c #886C42",
"S. c #8A7347",
"D. c #977A46",
"F. c #9C7C44",
"G. c #95744B",
"H. c #A57B45",
"J. c #B07E41",
"K. c #9A8029",
"L. c #99823C",
"P. c #A9842A",
"I. c #AD822D",
"U. c #B2842D",
"Y. c #B8872B",
"T. c #B48A2C",
"R. c #A58233",
"E. c #AC8334",
"W. c #AD8B34",
"Q. c #A4843C",
"!. c #AC843B",
"~. c #A58A3A",
"^. c #AC8A3C",
"/. c #B38434",
"(. c #B48B34",
"). c #BB8C34",
"_. c #B3853B",
"`. c #BA8639",
"'. c #B38B3B",
"]. c #BB8B3B",
"[. c #B49231",
"{. c #BC9334",
"}. c #B4933C",
"|. c #B9973A",
" X c #BC933C",
".X c #BAA338",
"XX c #C28E2C",
"oX c #C18D38",
"OX c #C59937",
"+X c #C2943C",
"@X c #C49C3D",
"#X c #C9A33D",
"$X c #D2A63D",
"%X c #9B8747",
"&X c #978551",
"*X c #A38444",
"=X c #AB8543",
"-X c #AC8A44",
";X c #A5844A",
":X c #A68848",
">X c #AB8B4A",
",X c #B28543",
"<X c #B48C43",
"1X c #BA8D43",
"2X c #BA8B47",
"3X c #B48C4A",
"4X c #AD9146",
"5X c #BC9343",
"6X c #BB934C",
"7X c #B89848",
"8X c #A78953",
"9X c #B68C52",
"0X c #AC9454",
"qX c #B69757",
"wX c #BCA54B",
"eX c #BCA658",
"rX c #C18E44",
"tX c #C29443",
"yX c #C49C43",
"uX c #C49C4A",
"iX c #C99A48",
"pX c #C39A54",
"aX c #C5A444",
"sX c #CBA345",
"dX c #C4A34C",
"fX c #CBA44B",
"gX c #CBAC4A",
"hX c #D3A94A",
"jX c #CEB24F",
"kX c #C8A756",
"lX c #D4A956",
"zX c #D6B558",
"xX c #C9AC64",
"cX c #D7BA66",
"vX c #E1BE65",
"bX c #DCC25A",
"nX c #E8C75F",
"mX c #DAC56A",
"MX c #DCC276",
"NX c #ECCD66",
"BX c #8B8886",
"VX c #9D9B97",
"CX c #A29C9A",
"ZX c #A5A0A3",
"AX c #ABA7A6",
"SX c #B1AEAC",
"DX c #BAB7B6",
"FX c #C2BEBD",
"GX c #C5C2BE",
"HX c #CAC7C6",
"JX c #D2CFCE",
"KX c #D8D6D2",
"LX c #E1E0DA",
"PX c #F3F0EC",
"IX c #FDFCFB",
/* pixels */
"i < < @ : o , < 8 i p a d a i a p s s s d a i p i 8 i i a a s s d D f d s D f d f d d a u p p p p i u u i 1 8 i 9 i i s D d X.IX",
"o : O o > x - X o , O X o X < o , : o o X t : - $ r : < : O . O , : : < 0 1 : , < < , < , , < 1 < @ 1 , 1 < : 1 y v e 8 u u 1 IX",
"o , X   K.aX~ O O % m q ; - - * $ o O O X o o O w wX~ o , * / R n 7 @ 3 eXA.o o : : o o . . > 0 7 : 0 N j > < @ U gX7X7 t 8 9 PX",
"< $   # 5./.9.` R }.U.0.2.g.t.7.8.r.5 $ o t O .  .C.t.& U 7XY B c.:X> b R.Y 7 < - < @ - E f.9.V.;XD.h.R.).eXY ^ =XfXM.k 8 , 8 LX",
"@ 4 i.i.W.5.5.N.b._.q./.c.3X&.x./.>.C.| $ & : q ^.).k.2.:X,.R.dXm.` ~.W.&.OX .$ t , * t.E.b.`./.N.hXT./.I.sX{.OXN.:.yXc.S.w y HX",
"X ~ [.k.v.W.wX|.-XwX|.Y.c.v.;.E.U.7.l.C.r.* M 4.|.c.].OXL 7XnXhXv._ ,X[.'.hX;XH & * f.C.n.x.T.l.B.}.].@XdXxX~.|.zXwXwXk.|.L., KX",
"X 4 i.c.-.*X% w w * [ 8.<.V.r._ r.q.tX@Xc.B.c.N.zX^.$XR.`  XjX.XY.u.q.9.#XR.yX_.H.f.c.+X`._.6Xf.2XI.u.Z.P E ..| c 9.z. X7X..1 LX",
", O . t.&..X* A ..% 3.z.c.y.% X - = 5XW.(.U.j.v.zX-.W.~ T.2XsXzXoXN.c.5 T.T gXv.b.k. X|.E.M & . k R.B.k.i.u W E E mX6.W.w : y LX",
": @ . w.-.4X$ U G.# p.I.(.N O X * i.&.*.Z.`.!.E.xX;.[.= H.#XjX0.tX XD.k OX0.aX!.>.k.E.B.=Xk $ o : p.Y.rXf.= | A q bXZ.6X1 t < KX",
"@ X % 5XP.7X* ; 4 * 2.n.6.i.- = c.W.b.c./.m.Q.t.J W.`. X:XF.yXOXaXs.-X:XXXkXt.Q.M.].N.6.1X!.{ o ; t.P.`.F.C ] A C mXQ.#X7 8 , KX",
"@ X ` ].0.-X~ 3.4.[ ,.z.x.).3.B./.P.7.R.V.a.m. XU qXc.(.|.$ 0 r 7 n wX+X0.eX_ '.a.R.`.1X_.'.C.! N 5Xj.N. .b H b 7 eXc.fX) 8 8 JX",
"< X | &.[.P.;.q.b.n.q.q.C.c.f.l.v.U.2X5.N }.x.Q.r o ) 2.n o o . @ 6 r.W.~.0 _ '.N./.s.M.E.(./.,Xk.XX5XN.C.'.3XN.'.uX5X XQ.< < JX",
"o o 4 q.v.Z.<./.v.-.l.V.c x e u.m.I.l.7X5 !.8.Q.0 3 Z X - e A A v 7 $ $ - * F W.N.6X3 !.{.(.`.q.g.D.t.!.C.8.I.).j.5X$Xq.u.1 < HX",
": O & 4X[.c.x.i.] s./.l.A o X 2.7.I.,Xk.-Xx.8.x.5 D.N W ~.)./.'.].5X .q S.H n !.6.<XK uXI.1XN.F.% $ m }.XX2X+X/.q.Y.P.-Xl 9 8 HX",
", O $ t.*.5.d.  - $ ,.8.Z - % C.U.}.8./.(.+XE.f.J R iXN./._.x.9XE.(.N.}.f.U W Z.C.k.yXb.T.tXm.H.% t Z ,X7XU > x ~.+X1XkXr 9 t HX",
"t : % 2.x.0.U X . # f.z.s.0.E.N.;.N.a.g _.z.3.!.qXw.lXl. .5 & &X3 x 0Xl.#X2.( L M.{.(.M.m.,X).uXm l g !.m.= 8 : N rX5.C.A i : DX",
"8 X $ 7.oXI.9.,   p.Z.k.B.*.N.N.8.b.!.R 3X^.^ rX(.' ^.hXW i | | { u g zXzX;Xs.<XB V.(.c =XY.N.x.{.E.'.'.`.^ * @ C iXl.Z._ y 1 DX",
"8 . - y.;.n.6.% e./.I.c.k.P./.N.`.U.1XW.!. X` =Xh N a.5XH ~ 4 N k _ x kXa.m 0.+X1.,X|.~.!.`.m.Z.rX-././.). X_ < W oXhX`.E < 1 HX",
"1 - @ J N.7.T.!.-.v.:.'.l.N.B.=.p.^.U.<.8.6.e.n K }.tX3.2.7X[ @.Y <X) T /.t.k A.U }.`.N.tXT.1XE._.tXE.tX_.)._.K h.Z.8.!.v 1 : GX",
"8 o X # 1.Z.[.(.*.6.M.4.p.c.l.3.J 5X7.6.x.p.= u g 6X8.+X7X= g ^ m h 7XOX5XaX[ M ! u.z.7.'.7Xa.y.N.U.tX XM.U.z.tX#X5XrXy.< 1 9 DX",
"< - X X * y.w.)./.N.B.! g 2. XZ./.Y.N.n.^.!.F.W K K = i.~ r.C.<X=X| 1.-X| D.! e 5 F.C.x.n.R.9.;XI.!.[  .v./.k.}.fX@X;X4 < 1 < GX",
"8 X X O O = q.Z.C.q.5.!.M.z.`.P.t.s.4.u.m.+X].C.q.y._ b _ <.z.hXl.5.] 2 A./ m.f.=X+X`.z._.{.Y.b.yXQ.D.F.3X2X].].R.H.0 t 1 i 1 HX",
"8 o X $ O r x.j.6.V.z.k.z.-.].2.,.,._ = _ ,X/. Xc.[ P H.p.C.@XhXiX}.a.' ^ r./.`.).tX*X| s.;X( '.oXv.x.oX;.M.(.Y.`.x 8 7 1 1 1 KX",
"8 o X - # [ N.N.R.t._.H.V.F.a.1.@Xx.! E & B.).c.w.r.*.v.7.`.p.] u.C.<.C.2.t.c.}.rXR.H % | 2.V.u.I.B.N.`.+X3X<Xk.b.S.: 9 8 9 > JX",
"t O 6 J R.7XaXgXwX2.W r 3 % k ` D.' k ,.f.f.h.a.`.8.! H.8.B.A.k  .a.7.pX2.4.rXN._.N.= E L h.fX2.u.y.i.i.0XI ^.].).Q.N > y 9 > JX",
": 5 qX0.XXP.0.I &.P.kXw < %X^.|.9.^ 6X Xg j ` S.[ f.f.I ' P ,.qXy.( =XL V n.V.-Xs.M.9Xh.! | d.Y h x : - x eXmXgXzXzX^.0Xw 3 u JX",
"9 * &XH.5.).@XT.'.{.k.i.> g _.1XaXaX|.l.( } ^ ,.u.j P [ | A.S E A r.S &X*.H.N y.N N = I.aXY I jXcXeXr v jX0.I.1XfXI.|.|.xX..1 HX",
"< , o 4 2.[.q.V % 4XOX9.. N ).(..XkXI dXkX5 r.8.x.! D.2 U F v l l } ' = A.V ,X}.4.M ` ).tXkXuX{.].A > R k.|.t.f.pX@X`.<Xi.x 1 GX",
"9 < : L >XK T E.3Xp.7XA o =Xx...> q u.A.! ] N.t.&.9XK ' N N 7X7X0X~ m #.] Y M.f.t.c S.cXu.>XeX~.OXF.: ~ sXxXj u.3XgXW.z @ 1 < FX",
"i o 4 3X3.4.a.E.{.W.% o 0 1X1Xx e G w.k p.a.{.w.t.' 4./ M.kXlXT.+XtXpX1.` P a.!.M.7...J Q.j 7 w T.1Xz 7 [ e.kXoXc.G u.:X3 9 < GX",
"t o  .2.x.sXXXT._.aXp & w /. Xm { z N M f._.@XM.} p.N r.}.lXhXNXhX+X'.P.S r.` 4.lXb.z.K u.r.F 1 3X)._ : , :X@X}.<X Xf.!.] 7 : DX",
"1 $ S.I jXjX#XbXI.).N - e [.@X} ) n N { V.).sXV.l 3Xg ..q @XfXjX@X).1XN #.h.r.c aXhX'.[ S q ..Q V.oX..y 0 dX+XaXhXNXyX3.qX> < DX",
"9 - / M.s.|.yX X5XaXe : 0 2XI.M e n t.m ;Xz.].'.3.G.! E 6 5XjXmXNXW.d.z m ( t.^ fXaX_.] A g U b V.].r.1 7 dXyXgXbXNXbXf.qX% < DX",
"i o 3 7XK ` =XpX{.7.) * * M.x.f.- e t...g P R.=X7.;Xu.K > ^ 3XnXhX].{ b W ^ Y pXU.'.n.| 2.G.v > 9X).] : @ L.sXW.5X@X>X_.=X: < SX",
"a < : q V.W.~.5X_ ~.aXQ.X z oXiX9.7XY }.jXx ' s.m.z.c e.W ] &X;Xi.8X/  .r.V 2X7.s.y.| ^ 4.N 1 4 I.tXz 7 L.f.uX).^.[ N dXA 9 < SX",
"s : $ b q.{.E.K ~ R.1X~.% * =X>.kXfX6X_._.S ^ f.3XV :X= ^ N A e z E ! = { ( 6.1X*X| ] jXV.2.pXw.OX;X& E |.zXM p.wX<XwXE : 1 : DX",
"s 4 qXR.;.^.aXXX{.N.P.L.$ &XL.zXzXK =.#X` 5 _ ^ K I C.G.| ' ( E N ` ' y.L 8XP a.3.^ c !.5XdXsXsXT.G Z W v.yXp.[ 2.iXtXr.0 : 1 DX",
"s > &X=.OX|.w.T c.jX:X% : % k h ,.9.} a.}.F.f.R.6X8.1.j 7.B.G.9Xy.' 4./ ` R.,... .` 5 q.#X3.K kXzX0Xn u fXN.b.XX#X+XZ.'.eX} 6 DX",
"p , > w A.V.{. XW.L S.L.r.r.,.R 6XU.K ) A ,.R.U.}.pX( 7Xm.-.L ^ 1.1.z.5.s.! Z.|.3Xa.Q.*XL 1.8XY g C y 7 w 0XmXqXW.aXzX(.9XE > FX",
"i : o o & ) /.z.<X!.{.'.C.8.C.*.<.R.r.A - s.rXv.2XQ.r.s.4.m.!.d.e.=Xn.7.7.h.R.J.iX].! { { d.yXH.f.V.;X!.6X5.Q.'. X'.L.E 1 1 y AX",
"i - o o , 0 W.v.v.w.7.).b.6.'.!.t.3.V.p. .5X).+X1X7.| [ e.,XfXgXhXaXE.` | ( W.).).tX%X% ^ ` 9X*.E.m.m.`.'.3X}.l.Y.;X> 8 8 < 8 CX",
"6 : , : $ W M.+X`._.!.f.p.2.).+Xz.@XtXa.z.uX<XF.[ >Xm b c R c.5X XN.[ c r.V Q.3X|.sX5X1.V.6Xe.-XtX/./.|.N.C.tX/._.| 8 8 1 1 7 ZX",
"9 t O , W !.].[.M.N.=Xr.c >XT.C.[ wX0.6._.M.! * n xXP :XqXH >X_.N.F.~ qX^ c d.v r.2X5XM.x.iXfXP.sX2X' ] _.6X1X]./.y.2 1 6 1 9 CX",
"9 < : 5 V.Y. X5X&.v.U.W.yX/.2X2.d.,X_.n.8.v.A.A | <XiX).xXK k _ G c D.hX'.dX[ { 7 u.v./.q.!.;Xu.(.E.>X3.x.'.z.+X@X'.S.2 y 9 : CX",
"8 o > d.m.8.E.Y j.'.c.iXb. XW.W.pX).@XE.,XiXt.8Xg ..B.R.] >XD.E ' 6X3.T kX+XA / y.c.,Xn.2XyX~.H.R.]./.yXM.`.m.5XtXoX}.W 1 9 1 CX",
"9 , 4 M.`.b.A.* n |.+Xc.`.<.Y.pX8.N.{.L.uXtX` 6X(.) e.#XS.b l { 5 { x lX'.A Y 6XL wX XR.iX(.rX'.7XiX+X+X X+X,XK _.x.C._.9 9 1 CX",
"< < h m.x.@XJ t & N _.Y. XC.).Y.>.N._.m 3Xc.[ pXkX:XzXhXN 6 F S.n i x vXzX%XR.aX,.>X].y.7X`.v.(.].-._.`.`.5XA < ]  XiX`.b 1 1 AX",
": < 5 s.6.v.) , @ ; 3.V.S e b >X`.5Xa.m.).uX<X7.^ R lXU.pX..H ..z ^ =XU.zXa.t.*.,.(.1XV <XU._./.yX-X=X(.5Xl 6 9 A OX)._.E < 1 AX",
"< < % 4XM.U.H.M 5 J }.l.} 7 1 2.x.!.W.b.yXR./.=XM  .e.4XoX XU.pX(. X].7X~.Y / 9X'.@X XW.M.6X}.2X4 3 c ,X7.> 1 > ^ `.z.C.n 9 1 DX",
"8 @ & -X].Z.q.!.tX/.I.).~ 0 u d.x././.kXN ].z._.c v #.% ! H./.[.}.<Xf.e _ _ H '.f.].5XP.{.1Xx.D.: : { 1XlX2.n ~ 6X].3XkXe 1 1 FX",
": : E c.OXT.-.1Xv.6.a.C.f.-X;Xs.{.).].~.5 uX/.^.Z 6 3 r 8 6 > > % 1 > 0 3 9 Q ^.I.wXl kXT.tX].y.4 w V  X)._.yX(.l.1X).>X5 1 < DX",
"< - d.rXW.pX=XE.R.V.V.W. XY.C.5X/.(.v.R.Q.].!.uX..) 5XI.<X> s a s 3 &X5XqX3 ] ].`._.c -XiX].oX/.'.<X=XW.J.1XoX`.k.rXsXa.t.: 9 SX",
"< < g  X:.wX% = k = | !.5.9Xm h C. X`.`.1XQ.'.-Xx xX^.kXkX4 ' i.G c kXlXc.eX| 7Xn.`.R.'.E.tX'.qXR.@X1X3X=.-X>X4X;X7X@XtX>X< 8 AX",
"< < & Q.}.7Xl #.y.c r.].`.u.6 9 J W.N.7._. X<X!.7Xl.[.2.t.yXfXfXlX<Xp.4XyXjX..'.*XW.2X}.tX@X!.q g uXk.<X1.s 5 7 2 mXR.hX( 1 < CX",
"@ o : i.).|.x x _ 2 e.`. X:X6 t > n C.c././.k.!.cX;.zXq 5XsXlXK.tXsX%X5 #Xc.jX_.<X5X1X;.,XF.w t ; F.).+Xd.Q d.| q mX_.dX0 1 1 VX",
"@ & g 2.6.kXq E 3 e ' c.z.*Xx 7 0 W yX@XyX_.U.`.vX0.aX| }.dXjXNXoX1XQ.j {.*.zXc./.rX5XaX-X% i 8 * =XOX/.e.l G M v mXZ.kX* : 9 BX",
"a H wX{.0.-X~ qXxX%Xi./.z.].5X3XiXl.tXfX/.F.=X6XzXR.$XiXY dXcX.X Xf.5.a.#XV.jXT._.W.oXsXOX-X! H ;Xc.z.].l p 2 v z MX>._.i.E < BX",
"t c '.6.T.fXK.;.T K.<X$X}.].-.b.iX8.R.E.' > * ! P.E.yXsX3.4XvXsX(.` -X[.tXhXpX] e l ,X XR./.OX].W.].tX#XcXzXeXbXxX~.[.E.jX*X< BX",
"i : r x c.z.T.5X{.sX+X;.}.lXc./.].Z.=XM : : < e 7X$XV.P qXu.7XkX2.s.:XL.5.hXs.: 1 : r =X].Y.tX'._.fX X).}.sX).Y./.Y.kX^.S.w 9 BX",
"a o $ % g.OXL.: * U <X3XW b ) e.[ ! 0 : t < @ < N tX .> n dXR.f.6Xh.2 e E.s.z 9 i 9 > 0 _ ;X<X,X*Xd.*X/.OXQ.U ] 7XwX'.q > > < VX",
"i X , o ) :X) o y , * - < 1 < - - , < : : < o : u qXU o < * E ] Z - 6 8 &Xh.- 9 1 1 1 8 < * r 7 - : w E l < 8 > ..dX0X7 t i 8 BX",
"8 : X @ , $ < < - : 1 < 6 8 < < < : < : : 6 6 @ > . : : 6 < < 6 8 8 : + ; - O 6 7 6 8 1 y u t 1 8 t i > : 8 < 1 1 q - 6 9 i p ZX",
"+.f i a a s f D o.o.O.+.$.+.$.$.$.+.o.f f f s f D D X.X.f d s o.X.O.+.+.%.%.%.$.O.+.o.o.X.o.O.@.%.%.%.BXZXCXAXCXCXSXSXHXPXIXIXIX"
};
