/* XPM */
static char *_792_86fe8e9458e6511fc1b98b15a536691505ceb8503de0d23dc9bce3e6a75a942d[] = {
/* columns rows colors chars-per-pixel */
"64 64 245 2 ",
"   c #121215",
".  c #191C22",
"X  c #1E252C",
"o  c #222427",
"O  c #272D36",
"+  c #2A3438",
"@  c #36383A",
"#  c #49453F",
"$  c #50483F",
"%  c #2A3744",
"&  c #343C45",
"*  c #38444A",
"=  c #3A4755",
"-  c #3E5363",
";  c #484849",
":  c #554D47",
">  c #58524A",
",  c #444C57",
"<  c #4A5258",
"1  c #575759",
"2  c #625A4C",
"3  c #625E5A",
"4  c #68635C",
"5  c #7B6A52",
"6  c #4B5665",
"7  c #49566F",
"8  c #555B66",
"9  c #535C74",
"0  c #655F60",
"q  c #58636A",
"w  c #5B6778",
"e  c #576A7E",
"r  c #666668",
"t  c #736C64",
"y  c #716F6E",
"u  c #77736B",
"i  c #7B746B",
"p  c #666C76",
"a  c #6C7379",
"s  c #787878",
"d  c #877256",
"f  c #887A69",
"g  c #927F65",
"h  c #877D74",
"j  c #847E7A",
"k  c #97835A",
"l  c #B29256",
"z  c #8C826C",
"x  c #93836B",
"c  c #988768",
"v  c #9A906D",
"b  c #8C8476",
"n  c #85827B",
"m  c #8C847C",
"M  c #938574",
"N  c #998771",
"B  c #958974",
"V  c #9B8B73",
"C  c #938679",
"Z  c #958B7C",
"A  c #9B8E7C",
"S  c #9D9277",
"D  c #9D917D",
"F  c #A8926A",
"G  c #B69B6B",
"H  c #A89374",
"J  c #A2937C",
"K  c #AA9879",
"L  c #BCA06E",
"P  c #B9A57A",
"I  c #C1A56F",
"U  c #C2AA76",
"Y  c #576985",
"T  c #5E718B",
"R  c #656E83",
"E  c #68768A",
"W  c #767B86",
"Q  c #6B7B93",
"!  c #687895",
"~  c #737E96",
"^  c #837F80",
"/  c #7B838C",
"(  c #6F829E",
")  c #758194",
"_  c #7B8595",
"`  c #74839B",
"'  c #7A859C",
"]  c #7A899A",
"[  c #7D899B",
"{  c #6B80A0",
"}  c #7688A5",
"|  c #7C8CA4",
" . c #848384",
".. c #898786",
"X. c #8D8A85",
"o. c #83858B",
"O. c #8C8B8C",
"+. c #948C83",
"@. c #978C87",
"#. c #9B8E82",
"$. c #938D8A",
"%. c #8F908C",
"&. c #9B9285",
"*. c #95918B",
"=. c #9A9589",
"-. c #9C948C",
";. c #858A94",
":. c #898C95",
">. c #838C9B",
",. c #928E91",
"<. c #8C9396",
"1. c #8C929D",
"2. c #939292",
"3. c #9A9594",
"4. c #9C9A94",
"5. c #94959B",
"6. c #97989B",
"7. c #9C9B9B",
"8. c #A29584",
"9. c #A59A85",
"0. c #AB9C85",
"q. c #A1968A",
"w. c #A49B8C",
"e. c #AA9E8B",
"r. c #B59E85",
"t. c #A49D93",
"y. c #A99D94",
"u. c #A39D9B",
"i. c #9DA19C",
"p. c #AAA289",
"a. c #ACA18D",
"s. c #B3A384",
"d. c #BAA785",
"f. c #B3A48B",
"g. c #B6A98D",
"h. c #BAAB8D",
"j. c #BCB08F",
"k. c #A6A193",
"l. c #ACA393",
"z. c #AFA995",
"x. c #A6A39C",
"c. c #ABA59B",
"v. c #ADA99D",
"b. c #B3A593",
"n. c #B5AA94",
"m. c #BBAD93",
"M. c #B1A799",
"N. c #B3AB9C",
"B. c #BAAE9B",
"V. c #B9B09A",
"C. c #BCB29D",
"Z. c #818DA2",
"A. c #808EA8",
"S. c #8592A5",
"D. c #8B94A4",
"F. c #8594AC",
"G. c #8B96A8",
"H. c #8D99AB",
"J. c #949BA5",
"K. c #969AA5",
"L. c #9B9DA4",
"P. c #949DAC",
"I. c #8998B3",
"U. c #989EB2",
"Y. c #A19EA2",
"T. c #9DA2A5",
"R. c #9CA3AA",
"E. c #99A4B6",
"W. c #A4A4A3",
"Q. c #ABA6A2",
"!. c #ADAAA4",
"~. c #A3A5AB",
"^. c #A9A6AA",
"/. c #A6A9AA",
"(. c #ABAAAC",
"). c #B3ADA3",
"_. c #B9AFA2",
"`. c #B2AEAB",
"'. c #B5B1A4",
"]. c #BBB4A4",
"[. c #B5B2AC",
"{. c #BBB5AC",
"}. c #BEBAAA",
"|. c #A6ABB7",
" X c #ABADB3",
".X c #B1AEB2",
"XX c #ADB1B6",
"oX c #B4B3B3",
"OX c #BAB6B2",
"+X c #BDBAB4",
"@X c #B3B4BA",
"#X c #B7B8BC",
"$X c #BCBBBB",
"%X c #C1AA83",
"&X c #C2AD8C",
"*X c #C5B389",
"=X c #C1AD93",
"-X c #C3B599",
";X c #C1B5A3",
":X c #C3BAA5",
">X c #C1B7AA",
",X c #C3BBAB",
"<X c #C8BEAB",
"1X c #C3BDB3",
"2X c #C9BEB5",
"3X c #C1BEBB",
"4X c #BFC0BE",
"5X c #C9C1AD",
"6X c #D0C1A7",
"7X c #C5C1B4",
"8X c #CAC3B5",
"9X c #C4C2BC",
"0X c #CAC5BC",
"qX c #CDC9BD",
"wX c #D2C8BA",
"eX c #97A9C0",
"rX c #A9B0C2",
"tX c #B5B9C2",
"yX c #B7BAC6",
"uX c #BCBDC3",
"iX c #C1BFC2",
"pX c #BDC1C7",
"aX c #BFC4D4",
"sX c #C4C3C3",
"dX c #C9C6C3",
"fX c #C7C8C6",
"gX c #CCCAC4",
"hX c #C4C5CA",
"jX c #C9C7CB",
"kX c #C6C9CD",
"lX c #CCCBCB",
"zX c #D1CDC5",
"xX c #D1CECA",
"cX c #CFD1CE",
"vX c #D6D3C9",
"bX c #D3D2CD",
"nX c #C3C6D1",
"mX c #C5CAD2",
"MX c #CBCCD3",
"NX c #C7CCDA",
"BX c #D1CFD2",
"VX c #D4D4D2",
"CX c #D9D8D7",
"ZX c #C7CFE4",
"AX c #E0E2E2",
/* pixels */
"-.k.w.A V S A 8.k.c V z c K K D S D k.a.0.H c J z.0.b.w.J p.p.V.K V.n.g.g.v.[.p.+X}.'.).e.w.8Xn.[.z.p.k.N.}.k.a.C.w.OX'.'.v.z.v.",
"D oXOX[.#X#XpX9X4X+X7X+X$X4X4XqX9X9XfXdX0X9X9X7X0XgXgXsXqXfXlX0XxXfXzXcX4XgXgXlXxXxXlXCXbXVXlXlXxXxXbXgXvXfXgXqXbXzXxXxXgXdX7X8.",
"B {.$X$X4X9X9X9X[.$X+X$X4X9X4X0X9X!.b m lXgX0X0XlXqX$XgXlXxXgX9XxXlXxXfXbX4XlXlXcXCXcXvX4.u.W.gXdXgX9X,XlXbX9X].9XVXbXgXzXgXdXN.",
"B [.$Xz.k.OXfXt.v.sX7Xk.Z +.).4X=.b b D Z 9XdXgXqXgXqX7XqX9X4X7XlXcXxXgXcXcXgXzXxXcX9Xp.&.-.+.'.0Xv.8.l.).gXbX7Xk.gX}.n.'.fXlXz.",
"&.OX$Xp.B S ).=.!.9XOXf f z m !.-.&.D ).7XfXcX9XkXcXfXlXgXlXgXcXqXcXvX4XsXgXvXcXVXxXfXgX7Xa.p.f.N.8.J p.q.[.gX].z.N.a.k.7XvXfXz.",
"=.OX$X'.Z Z S S J 9XOXC z z *.k.k.w.$XgX9XgXcXgXxXlXcXxXlXgXzXvXfXcXqXqXvXgXvXVXbXxXVXcXVXfXa.p.w.p.K a.t.{.lXM.k.y.J p.gXcXfX'.",
"-.OX4XsXv.+.&.B c '.3Xc.3Xv.4.+.4.{.cX0XgXgXfXgXCXcXgXfX%.t 3 < E.<.r s i.pXCXAXbXcXvXVXcXVX4Xp.a.x B.bX+XbX1Xa.N.p.9.}.zXqXqXz.",
"4.OX{.w.v Z V A c &.OX9XdX9X*.z !.gXgXcXcX9XcX4X3 p + * ] = e w | p < & O + / y 9XVXcXvXCXVXCXV.k.w.'.bXgX+XN.p.M.0.4.k.c.cX9Xz.",
"i.OXv.p.z.c.v k v J w.4X0Xk.&.-.fXsXzXbX$Xo.@ * < ) I.P.R.x.c.v.v.p.=.i.R.>.) ) - p 6.pXCXCXvXvX].w.n.xXdX9.r.0.a.k.{.{.3X9X9Xz.",
"=.OX$X4X9X$X+Xa.k p.p.w.=.B w.fXqXlXqXa . = ] G.R.j.P U d.g.b *.n X.p.-X*XL p.i.H.] = p / vXAXCXvXg.q.).f.l.N.t.7XvXvXgXzX9X1XJ ",
"S OX$X9X+Xc.3XsXk.8.K S k.+XbXlXlX@X_ = E G.v.V.4.%./ / i.I.R.6.T.I.k.k.) H.i.j.*Xl.J.E.6 q fXCXVXCX8Xe.b.z.f.OXCX0X+X+XdXvX7XJ ",
"f [.$Xw.z f a.sXsX$XJ z.dXgXfXbX1.& ( A.f.0.X.] / S D S.'.E.-X4.R.| P / W.N.k.G.E.*Xj.i.H.E < / AXbXCXxX1XF ;XBXbXuX^.-.w.fX0X_.",
"q.[.9Xv x f [.dXfX[.z.9XgXlXfXp % | 6.I K N./ 4.j.V.R.| -XF.P G.<.R.V.<.z.i.x.}.E.:XeXV.d.i.| @ > bXcXVX8XOXM.xXgXcXx.&.q.xX9Xc.",
"8.+X4XS z b x.$X X=.'.fXxX$X< 6 Z.!.d.;.F.x.v.>.L I.p.g.j.D.k.T.j.}.qXOX4X_ / / x./.E.|.|.j.n.>.e q OXVXBX'.+.!.VX!.*.*.y.9X0XM.",
"&.uX4X`.x N =.&.k.x.gXgXlX1 ) ) p.p.| v.C.G.N.H.d./.H.E.#X}.7X'.R.G.vXlXqX#X7X5X*XH.[.5X4XE.[.j.F.E + qXvXvXQ.u.Q.u.*.oXgXgX0Xa.",
"=.4X9XsX4Xk.k.k.9.$X4X4X; { } k.k.] !.j.| i.C.|./.5XE.kX0X8XgXkXcXC.7XzX:X}.$X9XC.>.}.P.!.c.} -X-XH.o 1 xXVXgXoXx.!.$X9XbXgX1XD ",
"q.4XsXk.+.=.V z.sXfX9X1 = E v.k.k.[ 2.K I.`.qX[.,X,X,X,X8XT.~.6.9X2Xx.5X;Xk.].].[.$XgX|.H.F.&X{.(.V.< * a vXxXcXuX).(.`.y.zX8Xe.",
"&.9Xv.i Z &.OXlXlXxXX.6 | +.~.| 4.n.| e.d.[.qXOX7X,X9XdX9X7X9XH.(.,Xi.N.1XsX3X3X0Xm.].zX9X:X;X| _ 3.F * - @XbXbXbX[.!.x.C ).xXM.",
"-.$XW.M B OXlXfXlX3X& Y 1.x.I.'.I.p.C.XX:X,X9X9X}.;X,Xx.V.5X;X-XdX,XK.N.B.:X,X,Xh.n.k.].zX8XXX).I q J z w < xXxXvXvXVX`.t._.gXM.",
"D $XfX&.v.fX9XsXgXq ` _ N.S.d.x.) 4Xp.N.dX0XV.V.7XwX0XpXD.>.lX:X:X/.3.f.;Xm.-XqX7Xo.$X-Xf.j.;X8X6Xp.: L J.@ 1 CXgXvXgXdXy.zXxX0.",
"&.9X+X[.4X9X4XsX^.* e 3.7.J.C. XgXlXXX~.P.R.|.8XC.B.M.:XvX@X1.*.k.n.C.C.7.5.W.c.i.'.-Xm.&Xb.-.$.7.oXW.n.s.G.8 $XbXvXxXsX3XvXdXf.",
"&.$XpX9XsX4XfXfXq X R &X*.P.1X>X,X].C.,XqXdX,Xl.N.C.}.V.}.}.5X5Xk.g.n.m.k.XXXX9X].4.f.m.=Xh.0.e.;.4XT.x.2X|.6 T.VXVXbXxXxXVX1XF ",
"d $XfXpXsX9XiXfXo w 4.l.*X9X0X0XfXdX3X6.u 4.Q.2X7X9X9XgXqXu.@ @ q 5XP.(.[.N.b.z.0X].:.y.a.a.s.V =.o.lX[.:X~.[ p bXzXzXCXVXzX0Xb.",
"Q.4XsXhXhXjXkXX.O E =X[.{.}.}.x.p r q W.uX|.~.T.;X9X7X1X0.3 vX<./. XXXuX#XXX(.|.E.0X9XQ..XXXJ.D. ./ s z.2X1XQ @ OXzXdXzXxXlXgX9.",
"/.mXhXfXjXkXMXq 6 s j.lXlXP.~ T ' T.[.;Xu.1XW.r 8 c.n.#.1.VXq.y.0XfXgX1X1X1X+X[.P.|.8XzXxXqX].].8XXXx.B.-X-XK.= s vXqXgXbXbXdXN ",
"(.uXuXsXhX9XgX= ! l.fX@Xp W ~.K.9XC.g.2XoXy 8 < 1 1 o.yXzXv.E ;.W.W.7.J.1.|./.K.(.R.Z.F.Z.2.!.-X8X,X].v.:X&X#Xw @ CXxXVXbXbX9Xc ",
"^.$XsXsXsXfXT.= E oXoX< r [.XXhXf.x..X>X&.K p.c.:X5X:XM.:. .i &.O.2.4.W.W.J.~.{.K.oXuXjXjX,X*./ ].wX:Xo.].wX>XZ.. 9XvXbXzXlX9X9.",
".XuXhXkXkXhX<.% ~ x.,.>.1X@.3XsX-Xh 1 9.f.s._.q.s 4 a *.K 3 _.m.C.:X5XsX+XC.4.D.^.tX0Xy.j n B._.1.!.0X{.o.1X2XE.[ W.vXbXgXzX9Xf.",
"(.NXpXhXpXhXa = / *.7.Q.3X9.A u.>Xt.Y.y f m.3.9 @ i -X2Xi f.m.iXCXCXMXCXVXMX+X`.D.p ; & o.t..X~.)./.>.D.>.1.<X|.;  .VXvXbXVX9Xp.",
"tXiXhXhXhXVX0 & / !.I.I.5.t.c.b.>X1 !.,.X.; ; r h.:XOX4 s.r.h.xXVXgXfXhXdXCXhX3X3.;.^.>X_._.m.>X5.d.I G b.~ s.T.= s zXbX0XxX9Xv ",
"7.nXhXhXhXkXp O ;.R.S.T.I.J b.!.>X< C M.1X8XqXzX2X$X$.1XJ v.+XVXBXsXp.t._.oXOXM.x.D.M.N.+XN._.8.K 5.;.E q.5.x.*., r bXbXdXgX0Xc ",
"6.uXsXkXhXMX_ + :.T.>.(.Z.C N.].,.1 3.C y.l.$XW.q.x.3X<X'.$X_.lXVXm.B.n OX1X+X1X_.r C.;XdX2XxX>Xf.D._.W -.5.u.Q.9 r vXxXxXgX3XK ",
"|.uXpX4XsXkXW % o.x.>.c.| n w.y ; ..W W 1 3 u.3 c.1XM.'.{.t b sXiXm.X.4.9XoX3.9Xb.: iX].0X2XzX0X*XH.a.;.1.D.!.t.w |.bXbXzXbXdXa.",
"rXmXhXhXsXpXr X / y.Q `.x.O.o.&.D.8  .s j '.u.3 ).OX+XOX{.7X'.lX{.N.1X{.3Xu.[.].n.# E.).].dX].{.U 1.s.&.u.c.h.T., a VX0XdXzX8Xk ",
"tXZXhXmXkXMX/ . [ K Y T _ W E t._ tXjXxX3Xy >.3 ).).[.3XcX].H 1XoXb.fX7XB.[.0XgXe.o E.9X_.].1X3.G U.o.-.M.f.&XT.@ s gXxXzXzXfX0.",
"XXhXNXhXhXMX|.O E L F s.&.m.[ 7.W J.3 3 3 a 6.> $X'.m.B.M.b.s.2X'.].0XCXVXBXCXzX+.r s K.sX,X8Xk.P G n J.E.I.B.<.o $.bXlXlXgXfXz.",
"|.nXMXnXMXjXuX. e P p R Y Q.2.W o.E o., @ q.OX1 u _.,X;X;X,Xf.8X,X9.M.fXxXVXVX).t +X4 `.1.].o.3.k.>. X/.l.E.*XH.8 [.zXgXxXdX0X0.",
"rXZXNXmXhXhXBX. e e.t h C W [ >.M.w XX$.N.3XJ.4 ; [.].,X,X].8.i O.u.{.9X0XjXxXOX: x.uXQ.4.s Q J ^ U.H.k.n.W.g.w * VXgXdXxXlX9Xe.",
"rXNXiXhXhXhXMXq Y O.t.y P ' 6.}.N.a _ u w.r .X3.> ,.3X1X}.V.b.J D w.B.1XdXCXlXw.: > zXK.1Xp Q K S.n.D.x.T.:X*., 1 vX0XgXgXzXgXe.",
"Y.NXpXpXuXhXMX@X% ` h.Y P K *.Q >.M.w MXu r t.W e.1 OX9X}.}.N.f.m.n.:X1X0XkX2X> B r i uXo.} u.u.R.6X7.| S.&X' O !.zXgXgXdXxXdXc ",
"yXZXiXyXNXNXnXMXT { !.1.>.>.>.7.F.x.a R x.v.W u B.i j '.>X,X-.s 3 u 4.{.bX0Xh 2 *.n b #X!.:.*XW.E.1.u.m.w.f.A.8 gXfX0XdX9XgX9Xw.",
"|.aXNXyXmXiXmXMXU.} [ '.p k.b.3.u.A.P 8 s J 8 k.b.N.; ].>X,X_.8.A 8.8.0X7Xl.2 B.4 1XB.1Xu.9.W.x.-Xm.[ ~ %XP.< K.dXdXdX9XdXdXdXa.",
"rXyXiXtX$XMXNXNXT.= ( v.n.1.R Q e.| $.5 r ;Xt [.>Xe.b.# M.1X}.}.:X:Xm.-Xn.$ w.4 ).:Xl.M.$.M._ 1.Q &XO.(.g.~ o Q.0XdXdX9X1X3X0Xw.",
"~.tXNX7.oXmXjXmXMX< = I.N.! t.,.Q J.t.t K w.;X>X2XM.B.q.: Z 8X1XgX9XC.&.2 M.4 M.,X-.L.y.:X/ F  .H f._ U P.E ; gX0XsXsX].8.dX3XJ ",
"L.uXnXj *.iXnXhXiX@XO ! x.3.~ x.,.m.a 9 p G c.$X`.3XN.B.w.: # k.].n.4 : h.t c.N.b E XXl.^.^ P ~ ^.I.c.Q.` * sXsXdXgXgX&.#.c.3Xd ",
"u.tX(.X.m .XiXiXhXjXs & ` l.o.>.k.G.W f.s p A B.N b.2X).m.v.t.i t 4 +.].Q.3.w.j m h.2Xe.`.I.M.d.T.~.n.I.& ..lXgXdXsXk.A #.@.dXg ",
",.uX@Xi j @.L.uXsXmXmXq % S.n.L.I.D.h.1 H q b ).L G g.3XiXdX:XOX{.MXjX[.>X{.hX1X[.~ 3Xt.!.2XD.;.L P J.G.< fXfXdX1XA y.Q.*.OX9XH ",
"Y.yXiXuX*.X.$.*.@XkXsXT.* 7 >.B.3.&XW p w ! b (.! X.&X{.<XK H w.b.>XiX$X`.{.].+X@X#X].1.;.>X1.>.h./.Y , oXsXgX[.V A u.].9X0XdX9.",
"O.@XiXNXY.@.-.$..XNXhXMX6., 9 G.r.3.! y.u.<.0.x.yX~.OXN.^.b v J n.V.K.] ~ :.1X_.].C.-.,.].;.6.m.|.) O 4.xX3X_.D J g A b.1XiX3XA ",
"j .XyX6.#.^ j j j h iXMXhX~.% } :.H 3.w 2.B.y r b k.h ..4.` Q E | =./ :.].f.&.L.=.n F ) ' u.-XU.Q & *.sXdX>XV q.@.A c #.w.3X2XV ",
",.tXuXj ^ j 3.tXOX,.(.hXmXMX,., 9 I.y.H W W 6 H ` o.T :.~.5.h.l.D.(.*.:.S W Z.L.B.E x =.y.).H.w 8 L.lXsXiXN 8.3XdX>XV &.B 3XOX8.",
"u.yXiX..j u.Y.iXiX`.3.uXhXjXNXtX@ % } ~ n.f n 9.~ l l l ;.!.Y.~ | x.M.>.7.' B.Y.E Q a.d.K.F.| @ (.dXfXsX2XF [.dXdXOX8.C D 3X{.x ",
"Y.@XuXu.j ,.Y.uX.XY.3.$.iXnXiXMXuX: % e , d K y./ ' ..z W ,XJ.3.:X>Xy.| x.E E >.w.-XN.S.Q @ p #X9X9X3X1Xe.8.0._.iXM.A J M.$X[.J ",
"3.@XyX$X@X.XyXiXh |.@.+.-.u..XhXiXiXK.&   O R o.y.K &...>.6X:.| F.I.U.E.;XB.h.!.7.H.e 6 9 ,.dXhXsX{.8.D J q.c N [.3XOXOX3X3X[.S ",
",.|.yXtXyXyXtXu.^ @.+.Y.uXtXm .XjXuX3XiX8 + & Y T } 2.c._.N.].g.-X,X:X1XY.U.F.F.! O o ;.zXiXkXiX1XA Z !.[.D V c c y.3X1X>X[.{.A ",
",.@X(.^.3.3.O.@.-.^ ,.iXiX`.Y.$..XjXiXiXxXoXO.@   O 6 9 Y E ~ ) Z.I.{ E Y , 9 , < o.$X3XsX3X3X1X8.w._.3X3Xc.c c F =.V V A l.[.x ",
"..XXyX.X3.Y.$.j 3.3.iX@XiX$Xj Y.$.nXiXiXhXhXBXuXjX<.1   . %   . w . O 6 O p |.iXiXMXBXiXlXiXiXJ #.Z OXiX$XsXM.c N Z C k.v.+X'.g ",
"6.yXyXuX@XY.j ,.^ yX.X,..Xy.3.u.$.@.MXiXiXMXiXjXiXlXjXVXiXyXO.L.6.Y.XXBXCXMXjXMXhXjXsXhX3XsX[.B w.A u.`.w.!.3XA D N x B oX$X[.g ",
"^ .XyX X^ +.$.3.$.iX^ h h @.3.^.Y.@.^.uXjXiXhXiXlX$XkXnXsXdXjXmXMXiXdXhXdXkXkXBX$XdX3XsXiXM.A A M.N A C C w.OX8.A &.M d t.[.c.z ",
",..X@X^ h ^ yXY.Y.iXY.j @.3.X.^.7.f 3.u.tXiXnXMXmXiXsX3XsXjXkXiXiXiXhXiXhXsXjXiXsX3XdXy.J g N b [.N b +.+.!.`.w.x !.N x q.'.[.x ",
"-.(.yXn ..^.uX^.ZXyXuXY.W.$. XnX@Xi K.+.Y.#XiXiXiXhXsXiXiXlXhXiXhXhXMXiX$XsXsXhX3XOXOXe.g #.C y.OXM.A +.w.[.).-.&.3X[.q.&.oX[.Z ",
",.XXyX@XtXyXyXtXXXyXiXiXyXiXNXiXiXtX@.iXiX#X#XiXhXiXjXiXhXiXiXsXiXsXMXhX+XhX9X$XiX$XOXhXoXy.!.3X$X[.[.[.#XOX'.x.OXOXOX$X).[.).Z ",
"^ L.yXtX@X.XrXoX.X.XiX.X#X@XyXuXiXiX3XiXiXiX3X3X#X.X$X$XiX3X$XiX$X$X3XOX$X$X[.c.oX#X[.[.`.).N.).`.).c.y.t.y.!.!.`.).Q.y.x.x.x.g ",
",.$.$.X.@.#.^ @.@.^ ,.q.#.Z @.#.h g @.Y.q.#.q.8.A #.#.A #.q.@.y.h A &.@.@.$.j d f M A Z +.M h C f A 5 d 5 5 f C X.b d d h i f f "
};
